{
.appVersion = "3108";
classes = (
{
automatic = 1;

glyphs = (
{
glyphname = A;
lastChange = "2020-06-22 01:19:52 +0000";
layers = (
{
anchors = (
{
name = bottom;
position = "{577, 0}";
},
{
name = ogonek;
position = "{1041, 0}";
},
{
name = top;
position = "{579, 1475}";
}
);
layerId = "A1A0948C-E637-4A65-8CCC-05505AD98C44";
paths = (
{
closed = 1;
nodes = (
"149 0 LINE",
"580 1449 LINE",
"578 1449 LINE",
"1007 0 LINE",
"1041 0 LINE",
"600 1482 LINE",
"559 1482 LINE",
"115 0 LINE"
);
},
{
closed = 1;
nodes = (
"888 451 LINE",
"888 479 LINE",
"271 479 LINE",
"271 451 LINE"
);
}
);
width = 1156;
},
{
anchors = (
{
name = bottom;
position = "{702, 0}";
},
{
name = ogonek;
position = "{1365, 0}";
},
{
name = top;
position = "{704, 1475}";
}
);
layerId = "584F9D0D-8480-40C6-ABEA-8DD6EE64252D";
paths = (
{
closed = 1;
nodes = (
"453 0 LINE",
"705 1234 LINE",
"703 1234 LINE",
"952 0 LINE",
"1365 0 LINE",
"1024 1475 LINE",
"383 1475 LINE",
"40 0 LINE"
);
},
{
closed = 1;
nodes = (
"1068 310 LINE",
"1068 613 LINE",
"340 613 LINE",
"340 310 LINE"
);
}
);
width = 1405;
},
{
anchors = (
{
name = bottom;
position = "{615, 0}";
},
{
name = ogonek;
position = "{1153, 0}";
},
{
name = top;
position = "{617, 1475}";
}
);
layerId = "F6BDCC95-B00C-46EE-8A70-124DE74BF6E5";
paths = (
{
closed = 1;
nodes = (
"254 0 LINE",
"618 1368 LINE",
"616 1368 LINE",
"977 0 LINE",
"1153 0 LINE",
"750 1479 LINE",
"484 1479 LINE",
"78 0 LINE"
);
},
{
closed = 1;
nodes = (
"946 391 LINE",
"946 541 LINE",
"288 541 LINE",
"288 391 LINE"
);
}
);
width = 1231;
}
);
leftKerningGroup = A;
note = A;
rightKerningGroup = A;
unicode = 0041;
},
{
glyphname = AE;
lastChange = "2020-06-22 01:19:52 +0000";
layers = (
{
anchors = (
{
name = bottom;
position = "{891, 0}";
},
{
name = top;
position = "{967, 1472}";
}
);
layerId = "A1A0948C-E637-4A65-8CCC-05505AD98C44";
paths = (
{
closed = 1;
nodes = (
"51 0 LINE",
"897 1428 LINE",
"890 1430 LINE",
"890 0 LINE",
"1606 0 LINE",
"1606 28 LINE",
"907 28 LINE",
"921 14 LINE",
"921 736 LINE",
"907 726 LINE",
"1495 726 LINE",
"1495 754 LINE",
"907 754 LINE",
"921 744 LINE",
"921 1461 LINE",
"907 1447 LINE",
"1606 1447 LINE",
"1606 1475 LINE",
"887 1475 LINE",
"15 0 LINE"
);
},
{
closed = 1;
nodes = (
"907 386 LINE",
"907 414 LINE",
"279 414 LINE",
"269 386 LINE"
);
}
);
width = 1781;
},
{
anchors = (
{
name = bottom;
position = "{989, 0}";
},
{
name = top;
position = "{1297, 1475}";
}
);
layerId = "584F9D0D-8480-40C6-ABEA-8DD6EE64252D";
paths = (
{
closed = 1;
nodes = (
"437 0 LINE",
"1029 1127 LINE",
"999 1151 LINE",
"999 0 LINE",
"1957 0 LINE",
"1957 300 LINE",
"1272 300 LINE",
"1386 186 LINE",
"1386 694 LINE",
"1282 590 LINE",
"1846 590 LINE",
"1846 890 LINE",
"1272 890 LINE",
"1386 776 LINE",
"1386 1306 LINE",
"1255 1175 LINE",
"1957 1175 LINE",
"1957 1475 LINE",
"837 1475 LINE",
"0 0 LINE"
);
},
{
closed = 1;
nodes = (
"1182 260 LINE",
"1182 544 LINE",
"537 544 LINE",
"458 260 LINE"
);
}
);
width = 2067;
},
{
anchors = (
{
name = bottom;
position = "{918, 0}";
},
{
name = top;
position = "{1055, 1475}";
}
);
layerId = "F6BDCC95-B00C-46EE-8A70-124DE74BF6E5";
paths = (
{
closed = 1;
nodes = (
"186 0 LINE",
"937 1315 LINE",
"922 1325 LINE",
"922 0 LINE",
"1728 0 LINE",
"1728 150 LINE",
"1035 150 LINE",
"1086 99 LINE",
"1086 720 LINE",
"1038 665 LINE",
"1617 665 LINE",
"1617 815 LINE",
"1035 815 LINE",
"1086 756 LINE",
"1086 1383 LINE",
"1028 1325 LINE",
"1728 1325 LINE",
"1728 1475 LINE",
"859 1475 LINE",
"0 0 LINE"
);
},
{
closed = 1;
nodes = (
"1001 326 LINE",
"1001 476 LINE",
"366 476 LINE",
"331 326 LINE"
);
}
);
width = 1869;
}
);
leftKerningGroup = AE;
rightKerningGroup = E;
rightMetricsKey = E;
unicode = 00C6;
},
{
glyphname = B;
lastChange = "2020-06-22 01:19:52 +0000";
layers = (
{
anchors = (
{
name = bottom;
position = "{555, 0}";
},
{
name = top;
position = "{555, 1475}";
}
);
layerId = "A1A0948C-E637-4A65-8CCC-05505AD98C44";
paths = (
{
closed = 1;
nodes = (
"175 1475 LINE",
"175 0 LINE",
"558 0 LINE SMOOTH",
"833 0 OFFCURVE",
"1007 122 OFFCURVE",
"1007 398 CURVE SMOOTH",
"1007 670 OFFCURVE",
"832 775 OFFCURVE",
"634 779 CURVE",
"810 784 OFFCURVE",
"979 893 OFFCURVE",
"979 1130 CURVE SMOOTH",
"979 1390 OFFCURVE",
"809 1475 OFFCURVE",
"572 1475 CURVE SMOOTH"
);
},
{
closed = 1;
nodes = (
"208 1461 LINE",
"194 1447 LINE",
"569 1447 LINE SMOOTH",
"785 1447 OFFCURVE",
"947 1379 OFFCURVE",
"947 1130 CURVE SMOOTH",
"947 892 OFFCURVE",
"776 791 OFFCURVE",
"506 791 CURVE SMOOTH",
"194 791 LINE",
"208 779 LINE"
);
},
{
closed = 1;
nodes = (
"194 28 LINE",
"208 14 LINE",
"208 774 LINE",
"194 763 LINE",
"505 763 LINE SMOOTH",
"738 763 OFFCURVE",
"975 710 OFFCURVE",
"975 398 CURVE SMOOTH",
"975 131 OFFCURVE",
"806 28 OFFCURVE",
"553 28 CURVE SMOOTH"
);
}
);
width = 1172;
},
{
anchors = (
{
name = bottom;
position = "{689, 0}";
},
{
name = top;
position = "{689, 1475}";
}
);
layerId = "584F9D0D-8480-40C6-ABEA-8DD6EE64252D";
paths = (
{
closed = 1;
nodes = (
"110 1475 LINE",
"110 0 LINE",
"755 0 LINE SMOOTH",
"1139 0 OFFCURVE",
"1258 195 OFFCURVE",
"1258 424 CURVE SMOOTH",
"1258 674 OFFCURVE",
"1076 761 OFFCURVE",
"952 765 CURVE",
"1076 776 OFFCURVE",
"1219 904 OFFCURVE",
"1219 1115 CURVE SMOOTH",
"1219 1321 OFFCURVE",
"1086 1475 OFFCURVE",
"755 1475 CURVE SMOOTH"
);
},
{
closed = 1;
nodes = (
"494 1357 LINE",
"312 1175 LINE",
"650 1175 LINE SMOOTH",
"770 1175 OFFCURVE",
"817 1127 OFFCURVE",
"817 1045 CURVE SMOOTH",
"817 966 OFFCURVE",
"770 903 OFFCURVE",
"650 903 CURVE SMOOTH",
"362 903 LINE",
"494 797 LINE"
);
},
{
closed = 1;
nodes = (
"312 301 LINE",
"494 119 LINE",
"494 711 LINE",
"362 605 LINE",
"676 605 LINE SMOOTH",
"796 605 OFFCURVE",
"847 529 OFFCURVE",
"847 449 CURVE SMOOTH",
"847 367 OFFCURVE",
"796 301 OFFCURVE",
"676 301 CURVE SMOOTH"
);
}
);
width = 1328;
},
{
anchors = (
{
name = bottom;
position = "{596, 0}";
},
{
name = top;
position = "{596, 1475}";
}
);
layerId = "F6BDCC95-B00C-46EE-8A70-124DE74BF6E5";
paths = (
{
closed = 1;
nodes = (
"141 1475 LINE",
"141 0 LINE",
"623 0 LINE SMOOTH",
"938 0 OFFCURVE",
"1092 149 OFFCURVE",
"1092 408 CURVE SMOOTH",
"1092 672 OFFCURVE",
"914 770 OFFCURVE",
"744 774 CURVE",
"900 781 OFFCURVE",
"1060 897 OFFCURVE",
"1060 1124 CURVE SMOOTH",
"1060 1364 OFFCURVE",
"904 1475 OFFCURVE",
"631 1475 CURVE SMOOTH"
);
},
{
closed = 1;
nodes = (
"306 1422 LINE",
"229 1325 LINE",
"590 1325 LINE SMOOTH",
"770 1325 OFFCURVE",
"889 1265 OFFCURVE",
"889 1098 CURVE SMOOTH",
"889 930 OFFCURVE",
"764 843 OFFCURVE",
"551 843 CURVE SMOOTH",
"248 843 LINE",
"306 785 LINE"
);
},
{
closed = 1;
nodes = (
"229 150 LINE",
"306 53 LINE",
"306 752 LINE",
"248 694 LINE",
"560 694 LINE SMOOTH",
"750 694 OFFCURVE",
"918 632 OFFCURVE",
"918 417 CURVE SMOOTH",
"918 240 OFFCURVE",
"793 150 OFFCURVE",
"590 150 CURVE SMOOTH"
);
}
);
width = 1214;
}
);
leftKerningGroup = H;
leftMetricsKey = H;
note = B;
rightKerningGroup = O;
rightMetricsKey = R;
unicode = 0042;
},
{
glyphname = C;
lastChange = "2020-06-22 01:19:52 +0000";
layers = (
{
anchors = (
{
name = bottom;
position = "{644, 0}";
},
{
name = top;
position = "{644, 1475}";
}
);
layerId = "A1A0948C-E637-4A65-8CCC-05505AD98C44";
paths = (
{
closed = 1;
nodes = (
"1089 474 LINE",
"1089 269 OFFCURVE",
"934 11 OFFCURVE",
"644 11 CURVE SMOOTH",
"341 11 OFFCURVE",
"147 298 OFFCURVE",
"147 737 CURVE SMOOTH",
"147 1176 OFFCURVE",
"341 1460 OFFCURVE",
"644 1460 CURVE SMOOTH",
"904 1460 OFFCURVE",
"1055 1256 OFFCURVE",
"1084 1066 CURVE SMOOTH",
"1087 1043 OFFCURVE",
"1089 1021 OFFCURVE",
"1089 1000 CURVE",
"1120 1000 LINE",
"1120 1023 OFFCURVE",
"1118 1047 OFFCURVE",
"1114 1071 CURVE SMOOTH",
"1084 1271 OFFCURVE",
"926 1488 OFFCURVE",
"644 1488 CURVE SMOOTH",
"314 1488 OFFCURVE",
"115 1192 OFFCURVE",
"115 737 CURVE SMOOTH",
"115 282 OFFCURVE",
"314 -17 OFFCURVE",
"644 -17 CURVE SMOOTH",
"960 -17 OFFCURVE",
"1120 256 OFFCURVE",
"1120 474 CURVE"
);
}
);
width = 1235;
},
{
anchors = (
{
name = bottom;
position = "{756, 0}";
},
{
name = top;
position = "{749, 1475}";
}
);
layerId = "584F9D0D-8480-40C6-ABEA-8DD6EE64252D";
paths = (
{
closed = 1;
nodes = (
"994 557 LINE",
"994 403 OFFCURVE",
"907 285 OFFCURVE",
"759 285 CURVE SMOOTH",
"603 285 OFFCURVE",
"480 419 OFFCURVE",
"480 738 CURVE SMOOTH",
"480 1057 OFFCURVE",
"603 1188 OFFCURVE",
"759 1188 CURVE SMOOTH",
"889 1188 OFFCURVE",
"972 1104 OFFCURVE",
"990 974 CURVE SMOOTH",
"993 956 OFFCURVE",
"994 937 OFFCURVE",
"994 918 CURVE",
"1399 918 LINE",
"1399 967 OFFCURVE",
"1392 1017 OFFCURVE",
"1379 1067 CURVE SMOOTH",
"1319 1293 OFFCURVE",
"1119 1500 OFFCURVE",
"759 1500 CURVE SMOOTH",
"324 1500 OFFCURVE",
"70 1188 OFFCURVE",
"70 738 CURVE SMOOTH",
"70 288 OFFCURVE",
"324 -26 OFFCURVE",
"759 -26 CURVE SMOOTH",
"1198 -26 OFFCURVE",
"1399 288 OFFCURVE",
"1399 557 CURVE"
);
}
);
width = 1469;
},
{
anchors = (
{
name = bottom;
position = "{685, 0}";
},
{
name = top;
position = "{683, 1475}";
}
);
layerId = "F6BDCC95-B00C-46EE-8A70-124DE74BF6E5";
paths = (
{
closed = 1;
nodes = (
"1053 513 LINE",
"1053 327 OFFCURVE",
"923 134 OFFCURVE",
"687 134 CURVE SMOOTH",
"439 134 OFFCURVE",
"275 343 OFFCURVE",
"275 737 CURVE SMOOTH",
"275 1131 OFFCURVE",
"439 1338 OFFCURVE",
"687 1338 CURVE SMOOTH",
"898 1338 OFFCURVE",
"1023 1192 OFFCURVE",
"1048 1024 CURVE SMOOTH",
"1051 1003 OFFCURVE",
"1053 982 OFFCURVE",
"1053 962 CURVE",
"1224 962 LINE",
"1224 995 OFFCURVE",
"1220 1028 OFFCURVE",
"1213 1062 CURVE SMOOTH",
"1172 1272 OFFCURVE",
"998 1493 OFFCURVE",
"687 1493 CURVE SMOOTH",
"313 1493 OFFCURVE",
"101 1179 OFFCURVE",
"101 737 CURVE SMOOTH",
"101 296 OFFCURVE",
"313 -20 OFFCURVE",
"687 -20 CURVE SMOOTH",
"1049 -20 OFFCURVE",
"1224 276 OFFCURVE",
"1224 513 CURVE"
);
}
);
width = 1325;
}
);
leftKerningGroup = O;
leftMetricsKey = O;
note = C;
rightKerningGroup = O;
rightMetricsKey = O;
unicode = 0043;
},
{
glyphname = Ccedilla;
lastChange = "2020-06-22 01:19:52 +0000";
layers = (
{
anchors = (
{
name = bottom;
position = "{662, -434}";
},
{
name = top;
position = "{644, 1475}";
}
);
layerId = "A1A0948C-E637-4A65-8CCC-05505AD98C44";
paths = (
{
closed = 1;
nodes = (
"1089 474 LINE",
"1089 269 OFFCURVE",
"934 11 OFFCURVE",
"644 11 CURVE SMOOTH",
"341 11 OFFCURVE",
"147 298 OFFCURVE",
"147 737 CURVE SMOOTH",
"147 1176 OFFCURVE",
"341 1460 OFFCURVE",
"644 1460 CURVE SMOOTH",
"904 1460 OFFCURVE",
"1055 1256 OFFCURVE",
"1084 1066 CURVE SMOOTH",
"1087 1043 OFFCURVE",
"1089 1021 OFFCURVE",
"1089 1000 CURVE",
"1120 1000 LINE",
"1120 1023 OFFCURVE",
"1118 1047 OFFCURVE",
"1114 1071 CURVE SMOOTH",
"1084 1271 OFFCURVE",
"926 1488 OFFCURVE",
"644 1488 CURVE SMOOTH",
"314 1488 OFFCURVE",
"115 1192 OFFCURVE",
"115 737 CURVE SMOOTH",
"115 282 OFFCURVE",
"314 -17 OFFCURVE",
"644 -17 CURVE SMOOTH",
"960 -17 OFFCURVE",
"1120 256 OFFCURVE",
"1120 474 CURVE"
);
},
{
closed = 1;
nodes = (
"652 -143 OFFCURVE",
"604 -160 OFFCURVE",
"593 -185 CURVE",
"594 -195 LINE",
"658 0 LINE",
"628 0 LINE",
"562 -199 LINE",
"591 -212 LINE",
"612 -188 OFFCURVE",
"657 -171 OFFCURVE",
"693 -171 CURVE SMOOTH",
"750 -171 OFFCURVE",
"787 -201 OFFCURVE",
"787 -273 CURVE SMOOTH",
"787 -357 OFFCURVE",
"717 -406 OFFCURVE",
"632 -406 CURVE SMOOTH",
"567 -406 OFFCURVE",
"531 -387 OFFCURVE",
"520 -379 CURVE",
"506 -407 LINE",
"516 -415 OFFCURVE",
"562 -434 OFFCURVE",
"628 -434 CURVE SMOOTH",
"730 -434 OFFCURVE",
"817 -378 OFFCURVE",
"817 -273 CURVE SMOOTH",
"817 -178 OFFCURVE",
"763 -143 OFFCURVE",
"698 -143 CURVE SMOOTH"
);
}
);
width = 1235;
},
{
anchors = (
{
name = bottom;
position = "{769, -410}";
},
{
name = top;
position = "{749, 1475}";
}
);
layerId = "584F9D0D-8480-40C6-ABEA-8DD6EE64252D";
paths = (
{
closed = 1;
nodes = (
"994 557 LINE",
"994 403 OFFCURVE",
"907 285 OFFCURVE",
"759 285 CURVE SMOOTH",
"603 285 OFFCURVE",
"480 419 OFFCURVE",
"480 738 CURVE SMOOTH",
"480 1057 OFFCURVE",
"603 1188 OFFCURVE",
"759 1188 CURVE SMOOTH",
"889 1188 OFFCURVE",
"972 1104 OFFCURVE",
"990 974 CURVE SMOOTH",
"993 956 OFFCURVE",
"994 937 OFFCURVE",
"994 918 CURVE",
"1399 918 LINE",
"1399 967 OFFCURVE",
"1392 1017 OFFCURVE",
"1379 1067 CURVE SMOOTH",
"1319 1293 OFFCURVE",
"1119 1500 OFFCURVE",
"759 1500 CURVE SMOOTH",
"314 1500 OFFCURVE",
"70 1158 OFFCURVE",
"70 738 CURVE SMOOTH",
"70 318 OFFCURVE",
"314 -26 OFFCURVE",
"759 -26 CURVE SMOOTH",
"1198 -26 OFFCURVE",
"1399 288 OFFCURVE",
"1399 557 CURVE"
);
},
{
closed = 1;
nodes = (
"816 -56 OFFCURVE",
"778 -75 OFFCURVE",
"765 -107 CURVE",
"775 -107 LINE",
"833 0 LINE",
"667 0 LINE",
"593 -143 LINE",
"739 -182 LINE",
"753 -160 OFFCURVE",
"787 -150 OFFCURVE",
"818 -150 CURVE SMOOTH",
"849 -150 OFFCURVE",
"875 -165 OFFCURVE",
"875 -199 CURVE SMOOTH",
"875 -243 OFFCURVE",
"823 -265 OFFCURVE",
"752 -265 CURVE SMOOTH",
"681 -265 OFFCURVE",
"598 -230 OFFCURVE",
"568 -212 CURVE",
"492 -353 LINE",
"535 -382 OFFCURVE",
"650 -410 OFFCURVE",
"739 -410 CURVE SMOOTH",
"891 -410 OFFCURVE",
"1046 -350 OFFCURVE",
"1046 -207 CURVE SMOOTH",
"1046 -95 OFFCURVE",
"953 -56 OFFCURVE",
"881 -56 CURVE SMOOTH"
);
}
);
width = 1469;
},
{
anchors = (
{
name = bottom;
position = "{701, -425}";
},
{
name = top;
position = "{683, 1475}";
}
);
layerId = "F6BDCC95-B00C-46EE-8A70-124DE74BF6E5";
paths = (
{
closed = 1;
nodes = (
"1053 513 LINE",
"1053 327 OFFCURVE",
"923 134 OFFCURVE",
"687 134 CURVE SMOOTH",
"439 134 OFFCURVE",
"275 343 OFFCURVE",
"275 737 CURVE SMOOTH",
"275 1131 OFFCURVE",
"439 1338 OFFCURVE",
"687 1338 CURVE SMOOTH",
"898 1338 OFFCURVE",
"1023 1192 OFFCURVE",
"1048 1024 CURVE SMOOTH",
"1051 1003 OFFCURVE",
"1053 982 OFFCURVE",
"1053 962 CURVE",
"1224 962 LINE",
"1224 995 OFFCURVE",
"1220 1028 OFFCURVE",
"1213 1062 CURVE SMOOTH",
"1172 1272 OFFCURVE",
"998 1493 OFFCURVE",
"687 1493 CURVE SMOOTH",
"313 1493 OFFCURVE",
"101 1179 OFFCURVE",
"101 737 CURVE SMOOTH",
"101 296 OFFCURVE",
"313 -20 OFFCURVE",
"687 -20 CURVE SMOOTH",
"1049 -20 OFFCURVE",
"1224 276 OFFCURVE",
"1224 513 CURVE"
);
},
{
closed = 1;
nodes = (
"713 -100 OFFCURVE",
"659 -128 OFFCURVE",
"647 -156 CURVE",
"661 -162 LINE",
"723 0 LINE",
"642 0 LINE",
"573 -178 LINE",
"646 -201 LINE",
"664 -178 OFFCURVE",
"705 -163 OFFCURVE",
"739 -163 CURVE SMOOTH",
"786 -163 OFFCURVE",
"819 -188 OFFCURVE",
"819 -245 CURVE SMOOTH",
"819 -314 OFFCURVE",
"756 -353 OFFCURVE",
"676 -353 CURVE SMOOTH",
"609 -353 OFFCURVE",
"555 -328 OFFCURVE",
"537 -316 CURVE",
"500 -387 LINE",
"522 -403 OFFCURVE",
"594 -425 OFFCURVE",
"669 -425 CURVE SMOOTH",
"790 -425 OFFCURVE",
"902 -368 OFFCURVE",
"902 -248 CURVE SMOOTH",
"902 -147 OFFCURVE",
"834 -100 OFFCURVE",
"766 -100 CURVE SMOOTH"
);
}
);
width = 1325;
}
);
leftKerningGroup = O;
rightKerningGroup = O;
unicode = 00C7;
},
{
glyphname = D;
lastChange = "2020-06-22 01:19:52 +0000";
layers = (
{
anchors = (
{
name = bottom;
position = "{582, 0}";
},
{
name = center;
position = "{341, 738}";
},
{
name = top;
position = "{582, 1475}";
}
);
layerId = "A1A0948C-E637-4A65-8CCC-05505AD98C44";
paths = (
{
closed = 1;
nodes = (
"437 0 LINE SMOOTH",
"820 0 OFFCURVE",
"1066 259 OFFCURVE",
"1066 736 CURVE SMOOTH",
"1066 1213 OFFCURVE",
"820 1475 OFFCURVE",
"437 1475 CURVE SMOOTH",
"175 1475 LINE",
"175 0 LINE"
);
},
{
closed = 1;
nodes = (
"208 1461 LINE",
"194 1447 LINE",
"438 1447 LINE SMOOTH",
"802 1447 OFFCURVE",
"1034 1185 OFFCURVE",
"1034 736 CURVE SMOOTH",
"1034 287 OFFCURVE",
"802 28 OFFCURVE",
"438 28 CURVE SMOOTH",
"194 28 LINE",
"208 14 LINE"
);
}
);
width = 1181;
},
{
anchors = (
{
name = bottom;
position = "{659, 0}";
},
{
name = center;
position = "{391, 735}";
},
{
name = top;
position = "{659, 1475}";
}
);
layerId = "584F9D0D-8480-40C6-ABEA-8DD6EE64252D";
paths = (
{
closed = 1;
nodes = (
"658 0 LINE SMOOTH",
"1056 0 OFFCURVE",
"1333 320 OFFCURVE",
"1333 741 CURVE SMOOTH",
"1333 1162 OFFCURVE",
"1056 1475 OFFCURVE",
"658 1475 CURVE SMOOTH",
"110 1475 LINE",
"110 0 LINE"
);
},
{
closed = 1;
nodes = (
"514 1357 LINE",
"332 1175 LINE",
"604 1175 LINE SMOOTH",
"775 1175 OFFCURVE",
"923 1014 OFFCURVE",
"923 741 CURVE SMOOTH",
"923 468 OFFCURVE",
"775 300 OFFCURVE",
"604 300 CURVE SMOOTH",
"332 300 LINE",
"514 118 LINE"
);
}
);
width = 1403;
},
{
anchors = (
{
name = bottom;
position = "{602, 0}";
},
{
name = center;
position = "{350, 737}";
},
{
name = top;
position = "{602, 1475}";
}
);
layerId = "F6BDCC95-B00C-46EE-8A70-124DE74BF6E5";
paths = (
{
closed = 1;
nodes = (
"511 0 LINE SMOOTH",
"899 0 OFFCURVE",
"1149 282 OFFCURVE",
"1149 738 CURVE SMOOTH",
"1149 1194 OFFCURVE",
"899 1475 OFFCURVE",
"511 1475 CURVE SMOOTH",
"141 1475 LINE",
"141 0 LINE"
);
},
{
closed = 1;
nodes = (
"313 1422 LINE",
"236 1325 LINE",
"491 1325 LINE SMOOTH",
"775 1325 OFFCURVE",
"976 1101 OFFCURVE",
"976 738 CURVE SMOOTH",
"976 375 OFFCURVE",
"775 150 OFFCURVE",
"491 150 CURVE SMOOTH",
"236 150 LINE",
"313 53 LINE"
);
}
);
width = 1250;
}
);
leftKerningGroup = H;
leftMetricsKey = H;
note = D;
rightKerningGroup = O;
rightMetricsKey = O;
unicode = 0044;
},
{
glyphname = Eth;
lastChange = "2020-06-22 01:19:52 +0000";
layers = (
{
components = (
{
name = D;
}
);
layerId = "A1A0948C-E637-4A65-8CCC-05505AD98C44";
paths = (
{
closed = 1;
nodes = (
"673 725 LINE",
"673 751 LINE",
"9 751 LINE",
"9 725 LINE"
);
}
);
width = 1181;
},
{
components = (
{
name = D;
}
);
layerId = "584F9D0D-8480-40C6-ABEA-8DD6EE64252D";
paths = (
{
closed = 1;
nodes = (
"766 645 LINE",
"766 824 LINE",
"16 824 LINE",
"16 645 LINE"
);
}
);
width = 1403;
},
{
components = (
{
name = D;
}
);
layerId = "F6BDCC95-B00C-46EE-8A70-124DE74BF6E5";
paths = (
{
closed = 1;
nodes = (
"698 696 LINE",
"698 779 LINE",
"2 779 LINE",
"2 696 LINE"
);
}
);
width = 1250;
}
);
leftKerningGroup = H;
rightKerningGroup = O;
unicode = 00D0;
},
{
glyphname = E;
lastChange = "2020-06-22 01:19:52 +0000";
layers = (
{
anchors = (
{
name = bottom;
position = "{572, 0}";
},
{
name = ogonek;
position = "{890, 0}";
},
{
name = top;
position = "{542, 1475}";
},
{
name = topleft;
position = "{74, 1475}";
}
);
layerId = "A1A0948C-E637-4A65-8CCC-05505AD98C44";
paths = (
{
closed = 1;
nodes = (
"890 1447 LINE",
"890 1475 LINE",
"175 1475 LINE",
"175 0 LINE",
"890 0 LINE",
"890 28 LINE",
"191 28 LINE",
"205 14 LINE",
"205 740 LINE",
"191 726 LINE",
"839 726 LINE",
"839 754 LINE",
"191 754 LINE",
"205 740 LINE",
"205 1461 LINE",
"191 1447 LINE"
);
}
);
width = 1065;
},
{
anchors = (
{
name = bottom;
position = "{603, 0}";
},
{
name = ogonek;
position = "{1067, 0}";
},
{
name = top;
position = "{603, 1475}";
},
{
name = topleft;
position = "{43, 1475}";
}
);
layerId = "584F9D0D-8480-40C6-ABEA-8DD6EE64252D";
paths = (
{
closed = 1;
nodes = (
"1067 1175 LINE",
"1067 1475 LINE",
"110 1475 LINE",
"110 0 LINE",
"1067 0 LINE",
"1067 300 LINE",
"334 300 LINE",
"516 118 LINE",
"516 697 LINE",
"426 590 LINE",
"956 590 LINE",
"956 890 LINE",
"426 890 LINE",
"516 782 LINE",
"516 1357 LINE",
"334 1175 LINE"
);
}
);
width = 1177;
},
{
anchors = (
{
name = bottom;
position = "{574, 0}";
},
{
name = ogonek;
position = "{947, 0}";
},
{
name = top;
position = "{556, 1475}";
},
{
name = topleft;
position = "{53, 1475}";
}
);
layerId = "F6BDCC95-B00C-46EE-8A70-124DE74BF6E5";
paths = (
{
closed = 1;
nodes = (
"947 1325 LINE",
"947 1475 LINE",
"141 1475 LINE",
"141 0 LINE",
"947 0 LINE",
"947 150 LINE",
"235 150 LINE",
"312 53 LINE",
"312 724 LINE",
"270 665 LINE",
"836 665 LINE",
"836 815 LINE",
"270 815 LINE",
"312 756 LINE",
"312 1422 LINE",
"235 1325 LINE"
);
}
);
width = 1088;
}
);
leftKerningGroup = H;
leftMetricsKey = H;
note = E;
rightKerningGroup = E;
rightMetricsKey = H;
unicode = 0045;
},
{
glyphname = Ezh;
lastChange = "2020-06-22 01:19:52 +0000";
layers = (
{
anchors = (
{
name = bottom;
position = "{534, 0}";
},
{
name = top;
position = "{534, 1475}";
}
);
layerId = "A1A0948C-E637-4A65-8CCC-05505AD98C44";
paths = (
{
closed = 1;
nodes = (
"757 -17 OFFCURVE",
"872 154 OFFCURVE",
"872 425 CURVE SMOOTH",
"872 644 OFFCURVE",
"781 789 OFFCURVE",
"511 789 CURVE",
"900 1451 LINE",
"900 1475 LINE",
"178 1475 LINE",
"178 1447 LINE",
"867 1447 LINE",
"462 761 LINE",
"517 761 LINE",
"746 761 OFFCURVE",
"840 644 OFFCURVE",
"840 425 CURVE SMOOTH",
"840 165 OFFCURVE",
"727 11 OFFCURVE",
"534 11 CURVE SMOOTH",
"327 11 OFFCURVE",
"210 127 OFFCURVE",
"210 424 CURVE SMOOTH",
"210 426 OFFCURVE",
"210 427 OFFCURVE",
"210 429 CURVE",
"178 429 LINE",
"178 427 OFFCURVE",
"178 426 OFFCURVE",
"178 424 CURVE SMOOTH",
"178 110 OFFCURVE",
"300 -17 OFFCURVE",
"534 -17 CURVE SMOOTH"
);
}
);
width = 1067;
},
{
anchors = (
{
name = bottom;
position = "{660, 0}";
},
{
name = top;
position = "{660, 1475}";
}
);
layerId = "584F9D0D-8480-40C6-ABEA-8DD6EE64252D";
paths = (
{
closed = 1;
nodes = (
"1041 -26 OFFCURVE",
"1208 196 OFFCURVE",
"1208 475 CURVE SMOOTH",
"1208 697 OFFCURVE",
"1078 836 OFFCURVE",
"901 836 CURVE",
"1143 1198 LINE",
"1143 1475 LINE",
"146 1475 LINE",
"146 1175 LINE",
"749 1175 LINE",
"401 630 LINE",
"528 630 LINE",
"749 630 OFFCURVE",
"804 570 OFFCURVE",
"804 436 CURVE SMOOTH",
"804 308 OFFCURVE",
"738 275 OFFCURVE",
"652 275 CURVE SMOOTH",
"548 275 OFFCURVE",
"480 320 OFFCURVE",
"480 490 CURVE",
"480 491 OFFCURVE",
"480 493 OFFCURVE",
"480 494 CURVE",
"77 494 LINE",
"77 493 OFFCURVE",
"77 491 OFFCURVE",
"77 490 CURVE",
"77 235 OFFCURVE",
"191 -26 OFFCURVE",
"647 -26 CURVE SMOOTH"
);
}
);
width = 1319;
},
{
anchors = (
{
name = bottom;
position = "{572, 0}";
},
{
name = top;
position = "{572, 1475}";
}
);
layerId = "F6BDCC95-B00C-46EE-8A70-124DE74BF6E5";
paths = (
{
closed = 1;
nodes = (
"854 -20 OFFCURVE",
"989 160 OFFCURVE",
"989 434 CURVE SMOOTH",
"989 654 OFFCURVE",
"903 818 OFFCURVE",
"668 818 CURVE",
"982 1336 LINE",
"982 1475 LINE",
"157 1475 LINE",
"157 1325 LINE",
"783 1325 LINE",
"410 672 LINE",
"492 672 LINE",
"718 672 OFFCURVE",
"817 626 OFFCURVE",
"817 429 CURVE SMOOTH",
"817 219 OFFCURVE",
"722 130 OFFCURVE",
"569 130 CURVE SMOOTH",
"401 130 OFFCURVE",
"302 209 OFFCURVE",
"302 449 CURVE",
"302 450 OFFCURVE",
"302 452 OFFCURVE",
"302 453 CURVE",
"131 453 LINE",
"131 452 OFFCURVE",
"131 450 OFFCURVE",
"131 449 CURVE",
"131 167 OFFCURVE",
"250 -20 OFFCURVE",
"567 -20 CURVE SMOOTH"
);
}
);
width = 1143;
}
);
unicode = 01B7;
},
{
glyphname = F;
lastChange = "2020-06-22 01:19:52 +0000";
layers = (
{
anchors = (
{
name = bottom;
position = "{577, 0}";
},
{
name = top;
position = "{577, 1475}";
}
);
layerId = "A1A0948C-E637-4A65-8CCC-05505AD98C44";
paths = (
{
closed = 1;
nodes = (
"870 1447 LINE",
"870 1475 LINE",
"175 1475 LINE",
"175 0 LINE",
"205 0 LINE",
"205 734 LINE",
"191 720 LINE",
"781 720 LINE",
"781 748 LINE",
"191 748 LINE",
"205 734 LINE",
"205 1461 LINE",
"191 1447 LINE"
);
}
);
width = 985;
},
{
anchors = (
{
name = bottom;
position = "{600, 0}";
},
{
name = top;
position = "{600, 1475}";
}
);
layerId = "584F9D0D-8480-40C6-ABEA-8DD6EE64252D";
paths = (
{
closed = 1;
nodes = (
"1086 1175 LINE",
"1086 1475 LINE",
"110 1475 LINE",
"110 0 LINE",
"512 0 LINE",
"512 668 LINE",
"389 565 LINE",
"997 565 LINE",
"997 866 LINE",
"389 866 LINE",
"512 771 LINE",
"512 1357 LINE",
"330 1175 LINE"
);
}
);
width = 1176;
},
{
anchors = (
{
name = bottom;
position = "{576, 0}";
},
{
name = top;
position = "{539, 1475}";
}
);
layerId = "F6BDCC95-B00C-46EE-8A70-124DE74BF6E5";
paths = (
{
closed = 1;
nodes = (
"942 1325 LINE",
"942 1475 LINE",
"141 1475 LINE",
"141 0 LINE",
"311 0 LINE",
"311 709 LINE",
"256 652 LINE",
"853 652 LINE",
"853 802 LINE",
"256 802 LINE",
"311 748 LINE",
"311 1422 LINE",
"234 1325 LINE"
);
}
);
width = 1038;
}
);
leftKerningGroup = H;
leftMetricsKey = H;
note = F;
rightKerningGroup = F;
unicode = 0046;
},
{
glyphname = G;
lastChange = "2020-06-22 01:19:52 +0000";
layers = (
{
anchors = (
{
name = bottom;
position = "{661, 0}";
},
{
name = top;
position = "{660, 1475}";
}
);
layerId = "A1A0948C-E637-4A65-8CCC-05505AD98C44";
paths = (
{
closed = 1;
nodes = (
"913 -17 OFFCURVE",
"1055 120 OFFCURVE",
"1079 197 CURVE",
"1079 0 LINE",
"1111 0 LINE",
"1111 653 LINE",
"650 653 LINE",
"650 625 LINE",
"1080 625 LINE",
"1080 256 LINE",
"1050 162 OFFCURVE",
"931 11 OFFCURVE",
"653 11 CURVE SMOOTH",
"351 11 OFFCURVE",
"146 308 OFFCURVE",
"146 738 CURVE SMOOTH",
"146 1168 OFFCURVE",
"361 1459 OFFCURVE",
"669 1459 CURVE SMOOTH",
"975 1459 OFFCURVE",
"1084 1201 OFFCURVE",
"1084 1005 CURVE SMOOTH",
"1084 1001 OFFCURVE",
"1084 997 OFFCURVE",
"1084 993 CURVE",
"1114 993 LINE",
"1114 997 OFFCURVE",
"1114 1001 OFFCURVE",
"1114 1005 CURVE SMOOTH",
"1114 1209 OFFCURVE",
"1001 1488 OFFCURVE",
"669 1488 CURVE SMOOTH",
"345 1488 OFFCURVE",
"115 1198 OFFCURVE",
"115 738 CURVE SMOOTH",
"115 278 OFFCURVE",
"335 -17 OFFCURVE",
"654 -17 CURVE SMOOTH"
);
}
);
width = 1289;
},
{
anchors = (
{
name = bottom;
position = "{747, 0}";
},
{
name = top;
position = "{757, 1475}";
}
);
layerId = "584F9D0D-8480-40C6-ABEA-8DD6EE64252D";
paths = (
{
closed = 1;
nodes = (
"1002 -26 OFFCURVE",
"1118 103 OFFCURVE",
"1137 163 CURVE",
"1178 0 LINE",
"1366 0 LINE",
"1366 769 LINE",
"763 769 LINE",
"763 490 LINE",
"1009 490 LINE",
"1009 434 LINE",
"992 367 OFFCURVE",
"908 285 OFFCURVE",
"765 285 CURVE SMOOTH",
"632 285 OFFCURVE",
"480 369 OFFCURVE",
"480 732 CURVE SMOOTH",
"480 1093 OFFCURVE",
"637 1188 OFFCURVE",
"770 1188 CURVE SMOOTH",
"899 1188 OFFCURVE",
"980 1095 OFFCURVE",
"980 993 CURVE SMOOTH",
"980 989 OFFCURVE",
"980 985 OFFCURVE",
"980 981 CURVE",
"1372 981 LINE",
"1372 985 OFFCURVE",
"1372 989 OFFCURVE",
"1372 993 CURVE SMOOTH",
"1372 1184 OFFCURVE",
"1209 1500 OFFCURVE",
"770 1500 CURVE SMOOTH",
"380 1500 OFFCURVE",
"70 1232 OFFCURVE",
"70 732 CURVE SMOOTH",
"70 232 OFFCURVE",
"360 -26 OFFCURVE",
"725 -26 CURVE SMOOTH"
);
}
);
width = 1482;
},
{
anchors = (
{
name = bottom;
position = "{708, 0}";
},
{
name = top;
position = "{711, 1475}";
}
);
layerId = "F6BDCC95-B00C-46EE-8A70-124DE74BF6E5";
paths = (
{
closed = 1;
nodes = (
"961 -20 OFFCURVE",
"1065 124 OFFCURVE",
"1086 164 CURVE",
"1095 0 LINE",
"1222 0 LINE",
"1222 697 LINE",
"707 697 LINE",
"707 554 LINE",
"1068 554 LINE",
"1068 399 LINE",
"1043 279 OFFCURVE",
"937 134 OFFCURVE",
"700 134 CURVE SMOOTH",
"461 134 OFFCURVE",
"273 323 OFFCURVE",
"273 736 CURVE SMOOTH",
"273 1140 OFFCURVE",
"470 1337 OFFCURVE",
"712 1337 CURVE SMOOTH",
"952 1337 OFFCURVE",
"1060 1158 OFFCURVE",
"1060 997 CURVE SMOOTH",
"1060 993 OFFCURVE",
"1060 989 OFFCURVE",
"1060 985 CURVE",
"1226 985 LINE",
"1226 989 OFFCURVE",
"1226 993 OFFCURVE",
"1226 997 CURVE SMOOTH",
"1226 1196 OFFCURVE",
"1084 1493 OFFCURVE",
"712 1493 CURVE SMOOTH",
"367 1493 OFFCURVE",
"101 1211 OFFCURVE",
"101 736 CURVE SMOOTH",
"101 261 OFFCURVE",
"366 -20 OFFCURVE",
"696 -20 CURVE SMOOTH"
);
}
);
width = 1367;
}
);
leftKerningGroup = O;
leftMetricsKey = O;
note = G;
rightKerningGroup = O;
rightMetricsKey = H;
unicode = 0047;
},
{
glyphname = Gstroke;
lastChange = "2020-06-22 01:19:52 +0000";
layers = (
{
layerId = "A1A0948C-E637-4A65-8CCC-05505AD98C44";
paths = (
{
closed = 1;
nodes = (
"1221 354 LINE",
"1221 380 LINE",
"629 380 LINE",
"629 354 LINE"
);
},
{
closed = 1;
nodes = (
"893 -17 OFFCURVE",
"1035 120 OFFCURVE",
"1059 197 CURVE",
"1059 0 LINE",
"1091 0 LINE",
"1091 653 LINE",
"630 653 LINE",
"630 625 LINE",
"1060 625 LINE",
"1060 256 LINE",
"1030 162 OFFCURVE",
"911 11 OFFCURVE",
"633 11 CURVE SMOOTH",
"331 11 OFFCURVE",
"146 308 OFFCURVE",
"146 738 CURVE SMOOTH",
"146 1168 OFFCURVE",
"341 1459 OFFCURVE",
"649 1459 CURVE SMOOTH",
"955 1459 OFFCURVE",
"1064 1201 OFFCURVE",
"1064 1005 CURVE",
"1064 1001 OFFCURVE",
"1064 997 OFFCURVE",
"1064 993 CURVE",
"1094 993 LINE",
"1094 997 OFFCURVE",
"1094 1001 OFFCURVE",
"1094 1005 CURVE",
"1094 1209 OFFCURVE",
"981 1488 OFFCURVE",
"649 1488 CURVE SMOOTH",
"325 1488 OFFCURVE",
"115 1198 OFFCURVE",
"115 738 CURVE SMOOTH",
"115 278 OFFCURVE",
"315 -17 OFFCURVE",
"634 -17 CURVE SMOOTH"
);
}
);
width = 1264;
},
{
layerId = "584F9D0D-8480-40C6-ABEA-8DD6EE64252D";
paths = (
{
closed = 1;
nodes = (
"1457 338 LINE",
"1457 547 LINE",
"748 547 LINE",
"748 338 LINE"
);
},
{
closed = 1;
nodes = (
"987 -26 OFFCURVE",
"1103 103 OFFCURVE",
"1122 163 CURVE",
"1163 0 LINE",
"1351 0 LINE",
"1351 829 LINE",
"748 829 LINE",
"748 590 LINE",
"994 590 LINE",
"994 424 LINE",
"977 367 OFFCURVE",
"893 285 OFFCURVE",
"750 285 CURVE SMOOTH",
"617 285 OFFCURVE",
"475 349 OFFCURVE",
"475 732 CURVE SMOOTH",
"475 1093 OFFCURVE",
"622 1188 OFFCURVE",
"755 1188 CURVE SMOOTH",
"884 1188 OFFCURVE",
"965 1085 OFFCURVE",
"965 983 CURVE SMOOTH",
"965 979 OFFCURVE",
"965 975 OFFCURVE",
"965 971 CURVE",
"1357 971 LINE",
"1357 975 OFFCURVE",
"1357 979 OFFCURVE",
"1357 983 CURVE SMOOTH",
"1357 1174 OFFCURVE",
"1194 1500 OFFCURVE",
"755 1500 CURVE SMOOTH",
"375 1500 OFFCURVE",
"70 1232 OFFCURVE",
"70 732 CURVE SMOOTH",
"70 232 OFFCURVE",
"335 -26 OFFCURVE",
"710 -26 CURVE SMOOTH"
);
}
);
width = 1449;
},
{
layerId = "F6BDCC95-B00C-46EE-8A70-124DE74BF6E5";
paths = (
{
closed = 1;
nodes = (
"1324 326 LINE",
"1324 436 LINE",
"685 436 LINE",
"685 326 LINE"
);
},
{
closed = 1;
nodes = (
"941 -20 OFFCURVE",
"1045 124 OFFCURVE",
"1066 164 CURVE",
"1075 0 LINE",
"1202 0 LINE",
"1202 697 LINE",
"687 697 LINE",
"687 554 LINE",
"1048 554 LINE",
"1048 399 LINE",
"1023 279 OFFCURVE",
"917 134 OFFCURVE",
"680 134 CURVE SMOOTH",
"441 134 OFFCURVE",
"273 323 OFFCURVE",
"273 736 CURVE SMOOTH",
"273 1140 OFFCURVE",
"450 1337 OFFCURVE",
"692 1337 CURVE SMOOTH",
"932 1337 OFFCURVE",
"1040 1158 OFFCURVE",
"1040 997 CURVE SMOOTH",
"1040 993 OFFCURVE",
"1040 989 OFFCURVE",
"1040 985 CURVE",
"1206 985 LINE",
"1206 989 OFFCURVE",
"1206 993 OFFCURVE",
"1206 997 CURVE SMOOTH",
"1206 1196 OFFCURVE",
"1064 1493 OFFCURVE",
"692 1493 CURVE SMOOTH",
"347 1493 OFFCURVE",
"101 1211 OFFCURVE",
"101 736 CURVE SMOOTH",
"101 261 OFFCURVE",
"346 -20 OFFCURVE",
"676 -20 CURVE SMOOTH"
);
}
);
width = 1339;
}
);
leftKerningGroup = O;
leftMetricsKey = O;
unicode = 01E4;
},
{
glyphname = H;
lastChange = "2020-06-22 01:19:52 +0000";
layers = (
{
anchors = (
{
name = bottom;
position = "{596, 0}";
},
{
name = center;
position = "{596, 738}";
},
{
name = top;
position = "{596, 1475}";
},
{
name = topleft;
position = "{152, 1475}";
}
);
layerId = "A1A0948C-E637-4A65-8CCC-05505AD98C44";
paths = (
{
closed = 1;
nodes = (
"990 1475 LINE",
"990 734 LINE",
"1004 748 LINE",
"191 748 LINE",
"205 734 LINE",
"205 1475 LINE",
"175 1475 LINE",
"175 0 LINE",
"205 0 LINE",
"205 733 LINE",
"191 719 LINE",
"1004 719 LINE",
"990 733 LINE",
"990 0 LINE",
"1020 0 LINE",
"1020 1475 LINE"
);
}
);
width = 1195;
},
{
anchors = (
{
name = bottom;
position = "{741, 0}";
},
{
name = center;
position = "{741, 738}";
},
{
name = top;
position = "{741, 1475}";
},
{
name = topleft;
position = "{43, 1475}";
}
);
layerId = "584F9D0D-8480-40C6-ABEA-8DD6EE64252D";
paths = (
{
closed = 1;
nodes = (
"965 1475 LINE",
"965 790 LINE",
"1147 884 LINE",
"332 884 LINE",
"514 789 LINE",
"514 1475 LINE",
"110 1475 LINE",
"110 0 LINE",
"514 0 LINE",
"514 676 LINE",
"332 583 LINE",
"1147 583 LINE",
"965 682 LINE",
"965 0 LINE",
"1369 0 LINE",
"1369 1475 LINE"
);
}
);
width = 1479;
},
{
anchors = (
{
name = bottom;
position = "{641, 0}";
},
{
name = center;
position = "{641, 738}";
},
{
name = top;
position = "{641, 1475}";
},
{
name = topleft;
position = "{102, 1475}";
}
);
layerId = "F6BDCC95-B00C-46EE-8A70-124DE74BF6E5";
paths = (
{
closed = 1;
nodes = (
"971 1475 LINE",
"971 721 LINE",
"1048 811 LINE",
"235 811 LINE",
"312 721 LINE",
"312 1475 LINE",
"141 1475 LINE",
"141 0 LINE",
"312 0 LINE",
"312 746 LINE",
"235 661 LINE",
"1048 661 LINE",
"971 746 LINE",
"971 0 LINE",
"1142 0 LINE",
"1142 1475 LINE"
);
}
);
width = 1283;
}
);
leftKerningGroup = H;
note = H;
rightKerningGroup = H;
unicode = 0048;
},
{
glyphname = Hbar;
lastChange = "2020-06-22 01:19:52 +0000";
layers = (
{
components = (
{
name = H;
}
);
layerId = "A1A0948C-E637-4A65-8CCC-05505AD98C44";
paths = (
{
closed = 1;
nodes = (
"1125 1143 LINE",
"1125 1169 LINE",
"69 1169 LINE",
"69 1143 LINE"
);
}
);
width = 1195;
},
{
components = (
{
name = H;
}
);
layerId = "584F9D0D-8480-40C6-ABEA-8DD6EE64252D";
paths = (
{
closed = 1;
nodes = (
"1445 1083 LINE",
"1445 1262 LINE",
"32 1262 LINE",
"32 1083 LINE"
);
}
);
width = 1479;
},
{
components = (
{
alignment = -1;
name = H;
}
);
layerId = "F6BDCC95-B00C-46EE-8A70-124DE74BF6E5";
paths = (
{
closed = 1;
nodes = (
"1236 1083 LINE",
"1236 1213 LINE",
"46 1213 LINE",
"46 1083 LINE"
);
}
);
width = 1283;
}
);
leftKerningGroup = H;
rightKerningGroup = H;
unicode = 0126;
},
{
glyphname = I;
lastChange = "2020-06-22 01:19:52 +0000";
layers = (
{
anchors = (
{
name = bottom;
position = "{219, 0}";
},
{
name = ogonek;
position = "{235, 0}";
},
{
name = top;
position = "{220, 1475}";
},
{
name = topleft;
position = "{58, 1475}";
}
);
layerId = "A1A0948C-E637-4A65-8CCC-05505AD98C44";
paths = (
{
closed = 1;
nodes = (
"235 0 LINE",
"235 1475 LINE",
"205 1475 LINE",
"205 0 LINE"
);
}
);
width = 440;
},
{
anchors = (
{
name = bottom;
position = "{305, 0}";
},
{
name = ogonek;
position = "{503, 0}";
},
{
name = top;
position = "{305, 1475}";
},
{
name = topleft;
position = "{-7, 1475}";
}
);
layerId = "584F9D0D-8480-40C6-ABEA-8DD6EE64252D";
paths = (
{
closed = 1;
nodes = (
"503 0 LINE",
"503 1475 LINE",
"105 1475 LINE",
"105 0 LINE"
);
}
);
width = 608;
},
{
anchors = (
{
name = bottom;
position = "{232, 0}";
},
{
name = ogonek;
position = "{316, 0}";
},
{
name = top;
position = "{233, 1475}";
},
{
name = topleft;
position = "{14, 1475}";
}
);
layerId = "F6BDCC95-B00C-46EE-8A70-124DE74BF6E5";
paths = (
{
closed = 1;
nodes = (
"316 0 LINE",
"316 1475 LINE",
"148 1475 LINE",
"148 0 LINE"
);
}
);
width = 464;
}
);
leftKerningGroup = H;
note = I;
rightKerningGroup = H;
unicode = 0049;
},
{
color = 3;
glyphname = I.ss01;
lastChange = "2020-06-22 01:19:52 +0000";
layers = (
{
anchors = (
{
name = bottom;
position = "{502, 0}";
},
{
name = ogonek;
position = "{848, 0}";
},
{
name = top;
position = "{502, 1475}";
},
{
name = topleft;
position = "{155, 1475}";
}
);
layerId = "A1A0948C-E637-4A65-8CCC-05505AD98C44";
paths = (
{
closed = 1;
nodes = (
"848 0 LINE",
"848 28 LINE",
"503 28 LINE",
"517 14 LINE",
"517 1461 LINE",
"503 1447 LINE",
"848 1447 LINE",
"848 1475 LINE",
"155 1475 LINE",
"155 1447 LINE",
"500 1447 LINE",
"486 1461 LINE",
"486 14 LINE",
"500 28 LINE",
"155 28 LINE",
"155 0 LINE"
);
}
);
width = 1003;
},
{
anchors = (
{
name = bottom;
position = "{577, 0}";
},
{
name = ogonek;
position = "{1074, 0}";
},
{
name = top;
position = "{577, 1475}";
},
{
name = topleft;
position = "{80, 1475}";
}
);
layerId = "584F9D0D-8480-40C6-ABEA-8DD6EE64252D";
paths = (
{
closed = 1;
nodes = (
"1074 0 LINE",
"1074 300 LINE",
"596 300 LINE",
"778 118 LINE",
"778 1357 LINE",
"596 1175 LINE",
"1074 1175 LINE",
"1074 1475 LINE",
"80 1475 LINE",
"80 1175 LINE",
"557 1175 LINE",
"375 1357 LINE",
"375 118 LINE",
"557 300 LINE",
"80 300 LINE",
"80 0 LINE"
);
}
);
width = 1154;
},
{
anchors = (
{
name = bottom;
position = "{521, 0}";
},
{
name = ogonek;
position = "{923, 0}";
},
{
name = top;
position = "{521, 1475}";
},
{
name = topleft;
position = "{118, 1475}";
}
);
layerId = "F6BDCC95-B00C-46EE-8A70-124DE74BF6E5";
paths = (
{
closed = 1;
nodes = (
"923 0 LINE",
"923 150 LINE",
"529 150 LINE",
"606 73 LINE",
"606 1402 LINE",
"529 1325 LINE",
"923 1325 LINE",
"923 1475 LINE",
"118 1475 LINE",
"118 1325 LINE",
"512 1325 LINE",
"435 1402 LINE",
"435 73 LINE",
"512 150 LINE",
"118 150 LINE",
"118 0 LINE"
);
}
);
width = 1041;
}
);
leftKerningGroup = H;
rightKerningGroup = H;
},
{
glyphname = J;
lastChange = "2020-06-22 01:19:52 +0000";
layers = (
{
anchors = (
{
name = bottom;
position = "{490, -16}";
},
{
name = top;
position = "{840, 1475}";
}
);
layerId = "A1A0948C-E637-4A65-8CCC-05505AD98C44";
paths = (
{
closed = 1;
nodes = (
"736 -17 OFFCURVE",
"855 171 OFFCURVE",
"855 463 CURVE SMOOTH",
"855 1475 LINE",
"825 1475 LINE",
"825 463 LINE SMOOTH",
"825 186 OFFCURVE",
"713 11 OFFCURVE",
"487 11 CURVE SMOOTH",
"257 11 OFFCURVE",
"151 189 OFFCURVE",
"151 452 CURVE SMOOTH",
"151 466 OFFCURVE",
"151 480 OFFCURVE",
"151 494 CURVE",
"122 494 LINE",
"122 478 OFFCURVE",
"122 462 OFFCURVE",
"122 446 CURVE SMOOTH",
"122 166 OFFCURVE",
"241 -17 OFFCURVE",
"487 -17 CURVE SMOOTH"
);
}
);
width = 1030;
},
{
anchors = (
{
name = bottom;
position = "{579, -26}";
},
{
name = top;
position = "{907, 1475}";
}
);
layerId = "584F9D0D-8480-40C6-ABEA-8DD6EE64252D";
paths = (
{
closed = 1;
nodes = (
"1006 -26 OFFCURVE",
"1112 219 OFFCURVE",
"1112 493 CURVE SMOOTH",
"1112 1475 LINE",
"709 1475 LINE",
"709 551 LINE SMOOTH",
"709 418 OFFCURVE",
"704 285 OFFCURVE",
"579 285 CURVE SMOOTH",
"456 285 OFFCURVE",
"441 418 OFFCURVE",
"441 527 CURVE SMOOTH",
"441 540 OFFCURVE",
"441 557 OFFCURVE",
"441 567 CURVE",
"40 567 LINE",
"40 542 OFFCURVE",
"40 517 OFFCURVE",
"40 492 CURVE SMOOTH",
"40 185 OFFCURVE",
"179 -26 OFFCURVE",
"579 -26 CURVE SMOOTH"
);
}
);
width = 1222;
},
{
anchors = (
{
name = bottom;
position = "{514, -20}";
},
{
name = top;
position = "{856, 1475}";
}
);
layerId = "F6BDCC95-B00C-46EE-8A70-124DE74BF6E5";
paths = (
{
closed = 1;
nodes = (
"828 -20 OFFCURVE",
"942 189 OFFCURVE",
"942 474 CURVE SMOOTH",
"942 1475 LINE",
"772 1475 LINE",
"772 496 LINE SMOOTH",
"772 273 OFFCURVE",
"700 134 OFFCURVE",
"512 134 CURVE SMOOTH",
"322 134 OFFCURVE",
"250 275 OFFCURVE",
"250 480 CURVE SMOOTH",
"250 494 OFFCURVE",
"250 509 OFFCURVE",
"250 521 CURVE",
"82 521 LINE",
"82 502 OFFCURVE",
"82 483 OFFCURVE",
"82 463 CURVE SMOOTH",
"82 173 OFFCURVE",
"208 -20 OFFCURVE",
"512 -20 CURVE SMOOTH"
);
}
);
width = 1083;
}
);
leftKerningGroup = J;
note = J;
rightKerningGroup = H;
rightMetricsKey = H;
unicode = 004A;
},
{
glyphname = K;
lastChange = "2020-06-22 01:19:52 +0000";
layers = (
{
anchors = (
{
name = bottom;
position = "{556, 0}";
},
{
name = top;
position = "{510, 1475}";
}
);
layerId = "A1A0948C-E637-4A65-8CCC-05505AD98C44";
paths = (
{
closed = 1;
nodes = (
"899 1475 LINE",
"862 1475 LINE",
"198 621 LINE",
"206 619 LINE",
"206 1475 LINE",
"175 1475 LINE",
"175 0 LINE",
"206 0 LINE",
"206 601 LINE",
"196 575 LINE",
"356 774 LINE",
"339 776 LINE",
"912 0 LINE",
"949 0 LINE",
"359 804 LINE",
"360 778 LINE"
);
}
);
width = 1054;
},
{
anchors = (
{
name = bottom;
position = "{707, 0}";
},
{
name = top;
position = "{707, 1475}";
}
);
layerId = "584F9D0D-8480-40C6-ABEA-8DD6EE64252D";
paths = (
{
closed = 1;
nodes = (
"1359 1475 LINE",
"936 1475 LINE",
"439 769 LINE",
"513 739 LINE",
"513 1475 LINE",
"110 1475 LINE",
"110 0 LINE",
"513 0 LINE",
"513 555 LINE",
"481 304 LINE",
"750 671 LINE",
"577 695 LINE",
"947 0 LINE",
"1385 0 LINE",
"795 1003 LINE",
"783 695 LINE"
);
}
);
width = 1420;
},
{
anchors = (
{
name = bottom;
position = "{603, 0}";
},
{
name = top;
position = "{616, 1475}";
}
);
layerId = "F6BDCC95-B00C-46EE-8A70-124DE74BF6E5";
paths = (
{
closed = 1;
nodes = (
"1067 1475 LINE",
"880 1475 LINE",
"278 700 LINE",
"312 664 LINE",
"312 1475 LINE",
"141 1475 LINE",
"141 0 LINE",
"312 0 LINE",
"312 584 LINE",
"294 473 LINE",
"494 735 LINE",
"406 746 LINE",
"910 0 LINE",
"1103 0 LINE",
"513 879 LINE",
"509 747 LINE"
);
}
);
width = 1173;
}
);
leftKerningGroup = H;
leftMetricsKey = H;
note = K;
rightKerningGroup = K;
unicode = 004B;
},
{
glyphname = L;
lastChange = "2020-06-22 01:19:52 +0000";
layers = (
{
anchors = (
{
name = bottom;
position = "{526, 0}";
},
{
name = center;
position = "{192, 738}";
},
{
name = top;
position = "{190, 1475}";
},
{
name = topright;
position = "{631, 974}";
}
);
layerId = "A1A0948C-E637-4A65-8CCC-05505AD98C44";
paths = (
{
closed = 1;
nodes = (
"821 0 LINE",
"821 28 LINE",
"191 28 LINE",
"205 14 LINE",
"205 1475 LINE",
"175 1475 LINE",
"175 0 LINE"
);
}
);
width = 936;
},
{
anchors = (
{
name = bottom;
position = "{588, 0}";
},
{
name = center;
position = "{332, 738}";
},
{
name = top;
position = "{309, 1475}";
},
{
name = topright;
position = "{715, 974}";
}
);
layerId = "584F9D0D-8480-40C6-ABEA-8DD6EE64252D";
paths = (
{
closed = 1;
nodes = (
"1040 0 LINE",
"1040 321 LINE",
"332 321 LINE",
"514 119 LINE",
"514 1475 LINE",
"110 1475 LINE",
"110 0 LINE"
);
}
);
width = 1105;
},
{
anchors = (
{
name = bottom;
position = "{540, 0}";
},
{
name = center;
position = "{235, 738}";
},
{
name = top;
position = "{225, 1475}";
},
{
name = topright;
position = "{656, 974}";
}
);
layerId = "F6BDCC95-B00C-46EE-8A70-124DE74BF6E5";
paths = (
{
closed = 1;
nodes = (
"894 0 LINE",
"894 150 LINE",
"235 150 LINE",
"312 53 LINE",
"312 1475 LINE",
"141 1475 LINE",
"141 0 LINE"
);
}
);
width = 981;
}
);
leftKerningGroup = H;
leftMetricsKey = H;
note = L;
rightKerningGroup = L;
unicode = 004C;
},
{
glyphname = Lslash;
lastChange = "2020-06-22 01:19:52 +0000";
layers = (
{
components = (
{
name = L;
}
);
layerId = "A1A0948C-E637-4A65-8CCC-05505AD98C44";
paths = (
{
closed = 1;
nodes = (
"441 911 LINE",
"15 437 LINE",
"38 417 LINE",
"464 892 LINE"
);
}
);
width = 936;
},
{
components = (
{
name = L;
transform = "{1, 0, 0, 1, 147, 0}";
}
);
layerId = "584F9D0D-8480-40C6-ABEA-8DD6EE64252D";
paths = (
{
closed = 1;
nodes = (
"874 1045 LINE",
"-22 643 LINE",
"108 365 LINE",
"1004 767 LINE"
);
}
);
width = 1252;
},
{
components = (
{
alignment = -1;
name = L;
transform = "{1, 0, 0, 1, 55, 0}";
}
);
layerId = "F6BDCC95-B00C-46EE-8A70-124DE74BF6E5";
paths = (
{
closed = 1;
nodes = (
"594 961 LINE",
"-8 514 LINE",
"55 398 LINE",
"657 845 LINE"
);
}
);
width = 1036;
}
);
leftKerningGroup = H;
rightKerningGroup = L;
rightMetricsKey = L;
unicode = 0141;
},
{
glyphname = M;
lastChange = "2020-06-22 01:19:52 +0000";
layers = (
{
anchors = (
{
name = bottom;
position = "{717, 0}";
},
{
name = top;
position = "{718, 1475}";
}
);
layerId = "A1A0948C-E637-4A65-8CCC-05505AD98C44";
paths = (
{
closed = 1;
nodes = (
"721 12 LINE",
"729 12 LINE",
"243 1475 LINE",
"195 1475 LINE",
"195 0 LINE",
"225 0 LINE",
"225 1450 LINE",
"221 1449 LINE",
"698 0 LINE",
"751 0 LINE",
"1230 1449 LINE",
"1226 1450 LINE",
"1226 0 LINE",
"1256 0 LINE",
"1256 1475 LINE",
"1208 1475 LINE"
);
}
);
width = 1451;
},
{
anchors = (
{
name = bottom;
position = "{991, 0}";
},
{
name = top;
position = "{991, 1475}";
}
);
layerId = "584F9D0D-8480-40C6-ABEA-8DD6EE64252D";
paths = (
{
closed = 1;
nodes = (
"964 154 LINE",
"1005 154 LINE",
"799 1475 LINE",
"120 1475 LINE",
"120 0 LINE",
"504 0 LINE",
"504 1263 LINE",
"497 1259 LINE",
"733 0 LINE",
"1247 0 LINE",
"1476 1256 LINE",
"1469 1260 LINE",
"1469 0 LINE",
"1852 0 LINE",
"1852 1475 LINE",
"1173 1475 LINE"
);
}
);
width = 1972;
},
{
anchors = (
{
name = bottom;
position = "{810, 0}";
},
{
name = top;
position = "{810, 1475}";
}
);
layerId = "F6BDCC95-B00C-46EE-8A70-124DE74BF6E5";
paths = (
{
closed = 1;
nodes = (
"812 137 LINE",
"814 137 LINE",
"452 1475 LINE",
"158 1475 LINE",
"158 0 LINE",
"320 0 LINE",
"320 1340 LINE",
"315 1338 LINE",
"693 0 LINE",
"937 0 LINE",
"1313 1337 LINE",
"1308 1339 LINE",
"1308 0 LINE",
"1470 0 LINE",
"1470 1475 LINE",
"1176 1475 LINE"
);
}
);
width = 1628;
}
);
leftKerningGroup = H;
note = M;
rightKerningGroup = H;
unicode = 004D;
},
{
glyphname = N;
lastChange = "2020-06-22 01:19:52 +0000";
layers = (
{
anchors = (
{
name = bottom;
position = "{620, 0}";
},
{
name = top;
position = "{620, 1475}";
}
);
layerId = "A1A0948C-E637-4A65-8CCC-05505AD98C44";
paths = (
{
closed = 1;
nodes = (
"205 1456 LINE",
"200 1454 LINE",
"1014 0 LINE",
"1064 0 LINE",
"1064 1475 LINE",
"1034 1475 LINE",
"1034 17 LINE",
"1040 20 LINE",
"223 1475 LINE",
"175 1475 LINE",
"175 0 LINE",
"205 0 LINE"
);
}
);
width = 1239;
},
{
anchors = (
{
name = bottom;
position = "{802, 0}";
},
{
name = top;
position = "{802, 1475}";
}
);
layerId = "584F9D0D-8480-40C6-ABEA-8DD6EE64252D";
paths = (
{
closed = 1;
nodes = (
"503 1365 LINE",
"420 1349 LINE",
"827 0 LINE",
"1448 0 LINE",
"1448 1475 LINE",
"1055 1475 LINE",
"1055 105 LINE",
"1133 121 LINE",
"726 1475 LINE",
"110 1475 LINE",
"110 0 LINE",
"503 0 LINE"
);
}
);
width = 1558;
},
{
anchors = (
{
name = bottom;
position = "{679, 0}";
},
{
name = top;
position = "{679, 1475}";
}
);
layerId = "F6BDCC95-B00C-46EE-8A70-124DE74BF6E5";
paths = (
{
closed = 1;
nodes = (
"307 1382 LINE",
"292 1375 LINE",
"916 0 LINE",
"1199 0 LINE",
"1199 1475 LINE",
"1033 1475 LINE",
"1033 90 LINE",
"1046 98 LINE",
"420 1475 LINE",
"141 1475 LINE",
"141 0 LINE",
"307 0 LINE"
);
}
);
width = 1340;
}
);
leftKerningGroup = H;
leftMetricsKey = H;
note = N;
rightKerningGroup = H;
rightMetricsKey = H;
unicode = 004E;
},
{
glyphname = Eng;
lastChange = "2020-06-22 01:19:52 +0000";
layers = (
{
layerId = "A1A0948C-E637-4A65-8CCC-05505AD98C44";
paths = (
{
closed = 1;
nodes = (
"1028 -457 OFFCURVE",
"1064 -255 OFFCURVE",
"1064 -96 CURVE SMOOTH",
"1064 1475 LINE",
"1034 1475 LINE",
"1034 17 LINE",
"1041 19 LINE",
"223 1475 LINE",
"175 1475 LINE",
"175 0 LINE",
"205 0 LINE",
"205 1459 LINE",
"198 1457 LINE",
"1014 0 LINE",
"1033 0 LINE",
"1033 -96 LINE SMOOTH",
"1033 -224 OFFCURVE",
"1010 -429 OFFCURVE",
"778 -429 CURVE SMOOTH",
"737 -429 OFFCURVE",
"698 -422 OFFCURVE",
"680 -416 CURVE",
"680 -444 LINE",
"696 -450 OFFCURVE",
"733 -457 OFFCURVE",
"778 -457 CURVE SMOOTH"
);
}
);
width = 1239;
},
{
layerId = "584F9D0D-8480-40C6-ABEA-8DD6EE64252D";
paths = (
{
closed = 1;
nodes = (
"1244 -456 OFFCURVE",
"1448 -363 OFFCURVE",
"1448 -19 CURVE SMOOTH",
"1448 1475 LINE",
"1055 1475 LINE",
"1055 183 LINE",
"1104 190 LINE",
"746 1475 LINE",
"110 1475 LINE",
"110 0 LINE",
"503 0 LINE",
"503 1270 LINE",
"454 1263 LINE",
"807 0 LINE",
"1050 0 LINE",
"1050 -28 LINE SMOOTH",
"1050 -146 OFFCURVE",
"931 -169 OFFCURVE",
"814 -169 CURVE SMOOTH",
"775 -169 OFFCURVE",
"714 -162 OFFCURVE",
"696 -156 CURVE",
"696 -446 LINE",
"711 -449 OFFCURVE",
"767 -456 OFFCURVE",
"811 -456 CURVE SMOOTH"
);
}
);
width = 1558;
},
{
layerId = "F6BDCC95-B00C-46EE-8A70-124DE74BF6E5";
paths = (
{
closed = 1;
nodes = (
"1100 -457 OFFCURVE",
"1199 -296 OFFCURVE",
"1199 -67 CURVE SMOOTH",
"1199 1475 LINE",
"1033 1475 LINE",
"1033 109 LINE",
"1055 113 LINE",
"410 1475 LINE",
"141 1475 LINE",
"141 0 LINE",
"307 0 LINE",
"307 1358 LINE",
"295 1354 LINE",
"937 0 LINE",
"1030 0 LINE",
"1030 -71 LINE SMOOTH",
"1030 -195 OFFCURVE",
"971 -332 OFFCURVE",
"782 -332 CURVE SMOOTH",
"742 -332 OFFCURVE",
"695 -325 OFFCURVE",
"677 -319 CURVE",
"677 -445 LINE",
"692 -450 OFFCURVE",
"736 -457 OFFCURVE",
"781 -457 CURVE SMOOTH"
);
}
);
width = 1340;
}
);
leftKerningGroup = H;
leftMetricsKey = H;
rightKerningGroup = H;
rightMetricsKey = H;
unicode = 014A;
},
{
glyphname = Nhookleft;
lastChange = "2020-06-22 01:19:52 +0000";
layers = (
{
anchors = (
{
name = bottom;
position = "{620, 0}";
},
{
name = top;
position = "{620, 1475}";
}
);
layerId = "A1A0948C-E637-4A65-8CCC-05505AD98C44";
paths = (
{
closed = 1;
nodes = (
"170 -465 OFFCURVE",
"205 -255 OFFCURVE",
"205 -96 CURVE SMOOTH",
"205 1459 LINE",
"198 1457 LINE",
"1014 0 LINE",
"1064 0 LINE",
"1064 1475 LINE",
"1034 1475 LINE",
"1034 17 LINE",
"1041 19 LINE",
"223 1475 LINE",
"175 1475 LINE",
"175 -96 LINE SMOOTH",
"175 -224 OFFCURVE",
"152 -437 OFFCURVE",
"-80 -437 CURVE",
"-80 -465 LINE"
);
}
);
width = 1239;
},
{
anchors = (
{
name = bottom;
position = "{802, 0}";
},
{
name = top;
position = "{802, 1475}";
}
);
layerId = "584F9D0D-8480-40C6-ABEA-8DD6EE64252D";
paths = (
{
closed = 1;
nodes = (
"459 -453 OFFCURVE",
"503 -234 OFFCURVE",
"503 -15 CURVE SMOOTH",
"503 1270 LINE",
"454 1263 LINE",
"807 0 LINE",
"1448 0 LINE",
"1448 1475 LINE",
"1055 1475 LINE",
"1055 183 LINE",
"1104 190 LINE",
"746 1475 LINE",
"110 1475 LINE",
"110 -15 LINE SMOOTH",
"110 -142 OFFCURVE",
"35 -173 OFFCURVE",
"-60 -179 CURVE",
"-60 -465 LINE"
);
}
);
width = 1558;
},
{
anchors = (
{
name = bottom;
position = "{679, 0}";
},
{
name = top;
position = "{679, 1475}";
}
);
layerId = "F6BDCC95-B00C-46EE-8A70-124DE74BF6E5";
paths = (
{
closed = 1;
nodes = (
"269 -461 OFFCURVE",
"307 -247 OFFCURVE",
"307 -66 CURVE SMOOTH",
"307 1368 LINE",
"295 1364 LINE",
"917 0 LINE",
"1199 0 LINE",
"1199 1475 LINE",
"1033 1475 LINE",
"1033 99 LINE",
"1045 103 LINE",
"420 1475 LINE",
"141 1475 LINE",
"141 -66 LINE SMOOTH",
"141 -193 OFFCURVE",
"99 -338 OFFCURVE",
"-82 -340 CURVE",
"-82 -465 LINE"
);
}
);
width = 1340;
}
);
leftKerningGroup = H;
rightKerningGroup = H;
rightMetricsKey = N;
unicode = 019D;
},
{
glyphname = O;
lastChange = "2020-06-22 01:19:52 +0000";
layers = (
{
anchors = (
{
name = bottom;
position = "{664, 0}";
},
{
name = center;
position = "{664, 738}";
},
{
name = ogonek;
position = "{851, 37}";
},
{
name = top;
position = "{664, 1475}";
},
{
name = topleft;
position = "{88, 1475}";
},
{
name = topright;
position = "{1001, 1338}";
}
);
layerId = "A1A0948C-E637-4A65-8CCC-05505AD98C44";
paths = (
{
closed = 1;
nodes = (
"984 -17 OFFCURVE",
"1213 271 OFFCURVE",
"1213 739 CURVE SMOOTH",
"1213 1208 OFFCURVE",
"982 1488 OFFCURVE",
"664 1488 CURVE SMOOTH",
"347 1488 OFFCURVE",
"115 1208 OFFCURVE",
"115 739 CURVE SMOOTH",
"115 271 OFFCURVE",
"343 -17 OFFCURVE",
"664 -17 CURVE SMOOTH"
);
},
{
closed = 1;
nodes = (
"363 11 OFFCURVE",
"146 299 OFFCURVE",
"146 739 CURVE SMOOTH",
"146 1179 OFFCURVE",
"363 1460 OFFCURVE",
"664 1460 CURVE SMOOTH",
"965 1460 OFFCURVE",
"1182 1179 OFFCURVE",
"1182 739 CURVE SMOOTH",
"1182 300 OFFCURVE",
"968 11 OFFCURVE",
"664 11 CURVE SMOOTH"
);
}
);
width = 1328;
},
{
anchors = (
{
name = bottom;
position = "{782, 0}";
},
{
name = center;
position = "{782, 738}";
},
{
name = ogonek;
position = "{1024, 47}";
},
{
name = top;
position = "{782, 1475}";
},
{
name = topleft;
position = "{80, 1475}";
},
{
name = topright;
position = "{1160, 1392}";
}
);
layerId = "584F9D0D-8480-40C6-ABEA-8DD6EE64252D";
paths = (
{
closed = 1;
nodes = (
"1161 -26 OFFCURVE",
"1494 239 OFFCURVE",
"1494 739 CURVE SMOOTH",
"1494 1239 OFFCURVE",
"1169 1500 OFFCURVE",
"782 1500 CURVE SMOOTH",
"396 1500 OFFCURVE",
"70 1239 OFFCURVE",
"70 739 CURVE SMOOTH",
"70 239 OFFCURVE",
"401 -26 OFFCURVE",
"782 -26 CURVE SMOOTH"
);
},
{
closed = 1;
nodes = (
"635 286 OFFCURVE",
"480 389 OFFCURVE",
"480 739 CURVE SMOOTH",
"480 1089 OFFCURVE",
"635 1188 OFFCURVE",
"782 1188 CURVE SMOOTH",
"929 1188 OFFCURVE",
"1084 1089 OFFCURVE",
"1084 739 CURVE SMOOTH",
"1084 390 OFFCURVE",
"930 286 OFFCURVE",
"782 286 CURVE SMOOTH"
);
}
);
width = 1564;
},
{
anchors = (
{
name = bottom;
position = "{691, 0}";
},
{
name = center;
position = "{691, 738}";
},
{
name = ogonek;
position = "{899, 41}";
},
{
name = top;
position = "{691, 1475}";
},
{
name = topleft;
position = "{68, 1475}";
},
{
name = topright;
position = "{1044, 1358}";
}
);
layerId = "F6BDCC95-B00C-46EE-8A70-124DE74BF6E5";
paths = (
{
closed = 1;
nodes = (
"1034 -20 OFFCURVE",
"1282 259 OFFCURVE",
"1282 739 CURVE SMOOTH",
"1282 1220 OFFCURVE",
"1035 1493 OFFCURVE",
"691 1493 CURVE SMOOTH",
"349 1493 OFFCURVE",
"101 1220 OFFCURVE",
"101 739 CURVE SMOOTH",
"101 259 OFFCURVE",
"348 -20 OFFCURVE",
"691 -20 CURVE SMOOTH"
);
},
{
closed = 1;
nodes = (
"448 134 OFFCURVE",
"274 333 OFFCURVE",
"274 739 CURVE SMOOTH",
"274 1145 OFFCURVE",
"448 1338 OFFCURVE",
"691 1338 CURVE SMOOTH",
"935 1338 OFFCURVE",
"1108 1145 OFFCURVE",
"1108 739 CURVE SMOOTH",
"1108 334 OFFCURVE",
"937 134 OFFCURVE",
"691 134 CURVE SMOOTH"
);
}
);
width = 1383;
}
);
leftKerningGroup = O;
note = O;
rightKerningGroup = O;
unicode = 004F;
},
{
glyphname = Ohorn;
lastChange = "2020-06-22 01:19:52 +0000";
layers = (
{
anchors = (
{
name = bottom;
position = "{664, 0}";
},
{
name = center;
position = "{664, 738}";
},
{
name = ogonek;
position = "{851, 37}";
},
{
name = top;
position = "{664, 1475}";
},
{
name = topleft;
position = "{88, 1475}";
},
{
name = topright;
position = "{1001, 1338}";
}
);
layerId = "A1A0948C-E637-4A65-8CCC-05505AD98C44";
paths = (
{
closed = 1;
nodes = (
"1001 1310 LINE",
"1144 1310 OFFCURVE",
"1239 1406 OFFCURVE",
"1239 1591 CURVE",
"1207 1591 LINE",
"1207 1420 OFFCURVE",
"1125 1338 OFFCURVE",
"1001 1338 CURVE"
);
},
{
closed = 1;
nodes = (
"984 -17 OFFCURVE",
"1213 271 OFFCURVE",
"1213 739 CURVE SMOOTH",
"1213 1208 OFFCURVE",
"982 1488 OFFCURVE",
"664 1488 CURVE SMOOTH",
"347 1488 OFFCURVE",
"115 1208 OFFCURVE",
"115 739 CURVE SMOOTH",
"115 271 OFFCURVE",
"343 -17 OFFCURVE",
"664 -17 CURVE SMOOTH"
);
},
{
closed = 1;
nodes = (
"363 11 OFFCURVE",
"146 299 OFFCURVE",
"146 739 CURVE SMOOTH",
"146 1179 OFFCURVE",
"363 1460 OFFCURVE",
"664 1460 CURVE SMOOTH",
"965 1460 OFFCURVE",
"1182 1179 OFFCURVE",
"1182 739 CURVE SMOOTH",
"1182 300 OFFCURVE",
"968 11 OFFCURVE",
"664 11 CURVE SMOOTH"
);
}
);
width = 1328;
},
{
anchors = (
{
name = bottom;
position = "{782, 0}";
},
{
name = center;
position = "{782, 738}";
},
{
name = ogonek;
position = "{1024, 47}";
},
{
name = top;
position = "{782, 1475}";
},
{
name = topleft;
position = "{80, 1475}";
},
{
name = topright;
position = "{1160, 1392}";
}
);
layerId = "584F9D0D-8480-40C6-ABEA-8DD6EE64252D";
paths = (
{
closed = 1;
nodes = (
"1160 1202 LINE",
"1397 1202 OFFCURVE",
"1541 1339 OFFCURVE",
"1541 1653 CURVE",
"1297 1653 LINE",
"1297 1482 OFFCURVE",
"1262 1392 OFFCURVE",
"1160 1392 CURVE"
);
},
{
closed = 1;
nodes = (
"1161 -26 OFFCURVE",
"1494 239 OFFCURVE",
"1494 739 CURVE SMOOTH",
"1494 1239 OFFCURVE",
"1169 1500 OFFCURVE",
"782 1500 CURVE SMOOTH",
"396 1500 OFFCURVE",
"70 1239 OFFCURVE",
"70 739 CURVE SMOOTH",
"70 239 OFFCURVE",
"401 -26 OFFCURVE",
"782 -26 CURVE SMOOTH"
);
},
{
closed = 1;
nodes = (
"635 286 OFFCURVE",
"480 389 OFFCURVE",
"480 739 CURVE SMOOTH",
"480 1089 OFFCURVE",
"635 1188 OFFCURVE",
"782 1188 CURVE SMOOTH",
"929 1188 OFFCURVE",
"1084 1089 OFFCURVE",
"1084 739 CURVE SMOOTH",
"1084 390 OFFCURVE",
"930 286 OFFCURVE",
"782 286 CURVE SMOOTH"
);
}
);
width = 1584;
},
{
anchors = (
{
name = bottom;
position = "{692, 0}";
},
{
name = center;
position = "{691, 738}";
},
{
name = ogonek;
position = "{899, 41}";
},
{
name = top;
position = "{692, 1475}";
},
{
name = topleft;
position = "{68, 1475}";
},
{
name = topright;
position = "{1044, 1358}";
}
);
layerId = "F6BDCC95-B00C-46EE-8A70-124DE74BF6E5";
paths = (
{
closed = 1;
nodes = (
"1044 1269 LINE",
"1223 1269 OFFCURVE",
"1336 1381 OFFCURVE",
"1336 1614 CURVE",
"1224 1614 LINE",
"1224 1443 OFFCURVE",
"1160 1358 OFFCURVE",
"1044 1358 CURVE"
);
},
{
closed = 1;
nodes = (
"1034 -20 OFFCURVE",
"1282 259 OFFCURVE",
"1282 739 CURVE SMOOTH",
"1282 1220 OFFCURVE",
"1035 1493 OFFCURVE",
"691 1493 CURVE SMOOTH",
"349 1493 OFFCURVE",
"101 1220 OFFCURVE",
"101 739 CURVE SMOOTH",
"101 259 OFFCURVE",
"348 -20 OFFCURVE",
"691 -20 CURVE SMOOTH"
);
},
{
closed = 1;
nodes = (
"448 134 OFFCURVE",
"274 333 OFFCURVE",
"274 739 CURVE SMOOTH",
"274 1145 OFFCURVE",
"448 1338 OFFCURVE",
"691 1338 CURVE SMOOTH",
"935 1338 OFFCURVE",
"1108 1145 OFFCURVE",
"1108 739 CURVE SMOOTH",
"1108 334 OFFCURVE",
"937 134 OFFCURVE",
"691 134 CURVE SMOOTH"
);
}
);
width = 1383;
}
);
leftKerningGroup = O;
rightKerningGroup = Ohorn;
unicode = 01A0;
},
{
glyphname = Oogonek;
lastChange = "2020-06-22 01:19:52 +0000";
layers = (
{
components = (
{
name = O;
}
);
layerId = "A1A0948C-E637-4A65-8CCC-05505AD98C44";
paths = (
{
closed = 1;
nodes = (
"848 -324 OFFCURVE",
"811 -328 OFFCURVE",
"783 -328 CURVE SMOOTH",
"715 -328 OFFCURVE",
"676 -293 OFFCURVE",
"676 -226 CURVE SMOOTH",
"676 -142 OFFCURVE",
"786 -38 OFFCURVE",
"871 37 CURVE",
"843 37 LINE",
"746 -36 OFFCURVE",
"640 -135 OFFCURVE",
"640 -228 CURVE SMOOTH",
"640 -320 OFFCURVE",
"701 -359 OFFCURVE",
"779 -359 CURVE SMOOTH",
"810 -359 OFFCURVE",
"847 -355 OFFCURVE",
"871 -350 CURVE",
"871 -319 LINE"
);
}
);
width = 1328;
},
{
components = (
{
name = O;
}
);
layerId = "584F9D0D-8480-40C6-ABEA-8DD6EE64252D";
paths = (
{
closed = 1;
nodes = (
"1032 -226 OFFCURVE",
"1006 -229 OFFCURVE",
"982 -229 CURVE SMOOTH",
"934 -229 OFFCURVE",
"889 -220 OFFCURVE",
"889 -175 CURVE SMOOTH",
"889 -114 OFFCURVE",
"1004 7 OFFCURVE",
"1054 47 CURVE",
"866 47 LINE",
"807 8 OFFCURVE",
"658 -107 OFFCURVE",
"658 -241 CURVE SMOOTH",
"658 -372 OFFCURVE",
"808 -415 OFFCURVE",
"960 -415 CURVE SMOOTH",
"994 -415 OFFCURVE",
"1026 -413 OFFCURVE",
"1054 -410 CURVE",
"1054 -223 LINE"
);
}
);
width = 1564;
},
{
components = (
{
name = O;
}
);
layerId = "F6BDCC95-B00C-46EE-8A70-124DE74BF6E5";
paths = (
{
closed = 1;
nodes = (
"906 -298 OFFCURVE",
"873 -302 OFFCURVE",
"847 -302 CURVE SMOOTH",
"786 -302 OFFCURVE",
"745 -277 OFFCURVE",
"745 -218 CURVE SMOOTH",
"745 -143 OFFCURVE",
"857 -23 OFFCURVE",
"929 41 CURVE",
"831 41 LINE",
"748 -22 OFFCURVE",
"643 -139 OFFCURVE",
"643 -240 CURVE SMOOTH",
"643 -347 OFFCURVE",
"730 -391 OFFCURVE",
"836 -391 CURVE SMOOTH",
"868 -391 OFFCURVE",
"903 -388 OFFCURVE",
"929 -384 CURVE",
"929 -294 LINE"
);
}
);
width = 1383;
}
);
leftKerningGroup = O;
rightKerningGroup = O;
unicode = 01EA;
},
{
glyphname = Oslash;
lastChange = "2020-06-22 01:19:52 +0000";
layers = (
{
anchors = (
{
name = bottom;
position = "{664, 0}";
},
{
name = top;
position = "{664, 1475}";
}
);
components = (
{
name = O;
}
);
layerId = "A1A0948C-E637-4A65-8CCC-05505AD98C44";
paths = (
{
closed = 1;
nodes = (
"1108 1527 LINE",
"191 -38 LINE",
"218 -52 LINE",
"1137 1514 LINE"
);
}
);
width = 1328;
},
{
anchors = (
{
name = bottom;
position = "{762, 0}";
},
{
name = top;
position = "{762, 1475}";
}
);
components = (
{
name = O;
}
);
layerId = "584F9D0D-8480-40C6-ABEA-8DD6EE64252D";
paths = (
{
closed = 1;
nodes = (
"1170 1601 LINE",
"189 -8 LINE",
"392 -125 LINE",
"1375 1484 LINE"
);
}
);
width = 1564;
},
{
anchors = (
{
name = bottom;
position = "{691, 0}";
},
{
name = top;
position = "{691, 1475}";
}
);
components = (
{
name = O;
}
);
layerId = "F6BDCC95-B00C-46EE-8A70-124DE74BF6E5";
paths = (
{
closed = 1;
nodes = (
"1114 1555 LINE",
"173 -27 LINE",
"266 -79 LINE",
"1209 1503 LINE"
);
}
);
width = 1383;
}
);
leftKerningGroup = O;
rightKerningGroup = O;
unicode = 00D8;
},
{
glyphname = OE;
lastChange = "2020-06-22 01:19:52 +0000";
layers = (
{
anchors = (
{
name = bottom;
position = "{1006, 0}";
},
{
name = top;
position = "{1006, 1475}";
}
);
layerId = "A1A0948C-E637-4A65-8CCC-05505AD98C44";
paths = (
{
closed = 1;
nodes = (
"894 -17 OFFCURVE",
"1076 159 OFFCURVE",
"1144 459 CURVE",
"1144 0 LINE",
"1859 0 LINE",
"1859 28 LINE",
"1160 28 LINE",
"1174 14 LINE",
"1174 740 LINE",
"1160 726 LINE",
"1748 726 LINE",
"1748 754 LINE",
"1160 754 LINE",
"1174 740 LINE",
"1174 1461 LINE",
"1160 1447 LINE",
"1859 1447 LINE",
"1859 1475 LINE",
"1144 1475 LINE",
"1144 1018 LINE",
"1076 1317 OFFCURVE",
"893 1488 OFFCURVE",
"644 1488 CURVE SMOOTH",
"327 1488 OFFCURVE",
"115 1208 OFFCURVE",
"115 739 CURVE SMOOTH",
"115 271 OFFCURVE",
"323 -17 OFFCURVE",
"644 -17 CURVE SMOOTH"
);
},
{
closed = 1;
nodes = (
"343 11 OFFCURVE",
"146 299 OFFCURVE",
"146 739 CURVE SMOOTH",
"146 1179 OFFCURVE",
"343 1460 OFFCURVE",
"644 1460 CURVE SMOOTH",
"945 1460 OFFCURVE",
"1142 1179 OFFCURVE",
"1142 739 CURVE SMOOTH",
"1142 300 OFFCURVE",
"948 11 OFFCURVE",
"644 11 CURVE SMOOTH"
);
}
);
width = 2034;
},
{
anchors = (
{
name = bottom;
position = "{1077, 0}";
},
{
name = top;
position = "{1077, 1475}";
}
);
layerId = "584F9D0D-8480-40C6-ABEA-8DD6EE64252D";
paths = (
{
closed = 1;
nodes = (
"863 -26 OFFCURVE",
"979 3 OFFCURVE",
"1046 40 CURVE",
"1046 0 LINE",
"2003 0 LINE",
"2003 300 LINE",
"1250 300 LINE",
"1432 118 LINE",
"1432 687 LINE",
"1335 590 LINE",
"1892 590 LINE",
"1892 890 LINE",
"1338 890 LINE",
"1432 796 LINE",
"1432 1357 LINE",
"1250 1175 LINE",
"2003 1175 LINE",
"2003 1475 LINE",
"1046 1475 LINE",
"1046 1436 LINE",
"980 1472 OFFCURVE",
"864 1500 OFFCURVE",
"762 1500 CURVE SMOOTH",
"376 1500 OFFCURVE",
"70 1239 OFFCURVE",
"70 739 CURVE SMOOTH",
"70 239 OFFCURVE",
"381 -26 OFFCURVE",
"762 -26 CURVE SMOOTH"
);
},
{
closed = 1;
nodes = (
"615 286 OFFCURVE",
"480 389 OFFCURVE",
"480 739 CURVE SMOOTH",
"480 1089 OFFCURVE",
"615 1188 OFFCURVE",
"762 1188 CURVE SMOOTH",
"909 1188 OFFCURVE",
"1044 1089 OFFCURVE",
"1044 739 CURVE SMOOTH",
"1044 390 OFFCURVE",
"910 286 OFFCURVE",
"762 286 CURVE SMOOTH"
);
}
);
width = 2113;
},
{
anchors = (
{
name = bottom;
position = "{1036, 0}";
},
{
name = top;
position = "{1036, 1475}";
}
);
layerId = "F6BDCC95-B00C-46EE-8A70-124DE74BF6E5";
paths = (
{
closed = 1;
nodes = (
"896 -20 OFFCURVE",
"1043 83 OFFCURVE",
"1110 213 CURVE",
"1110 0 LINE",
"1916 0 LINE",
"1916 150 LINE",
"1197 150 LINE",
"1274 53 LINE",
"1274 720 LINE",
"1229 665 LINE",
"1845 665 LINE",
"1845 815 LINE",
"1230 815 LINE",
"1274 761 LINE",
"1274 1422 LINE",
"1197 1325 LINE",
"1916 1325 LINE",
"1916 1475 LINE",
"1110 1475 LINE",
"1110 1279 LINE",
"1043 1400 OFFCURVE",
"895 1493 OFFCURVE",
"681 1493 CURVE SMOOTH",
"339 1493 OFFCURVE",
"101 1220 OFFCURVE",
"101 739 CURVE SMOOTH",
"101 259 OFFCURVE",
"338 -20 OFFCURVE",
"681 -20 CURVE SMOOTH"
);
},
{
closed = 1;
nodes = (
"438 134 OFFCURVE",
"274 333 OFFCURVE",
"274 739 CURVE SMOOTH",
"274 1145 OFFCURVE",
"438 1338 OFFCURVE",
"681 1338 CURVE SMOOTH",
"925 1338 OFFCURVE",
"1108 1145 OFFCURVE",
"1108 739 CURVE SMOOTH",
"1108 334 OFFCURVE",
"927 134 OFFCURVE",
"681 134 CURVE SMOOTH"
);
}
);
width = 2057;
}
);
leftKerningGroup = O;
leftMetricsKey = O;
rightKerningGroup = E;
rightMetricsKey = E;
unicode = 0152;
},
{
glyphname = P;
lastChange = "2020-06-22 01:19:52 +0000";
layers = (
{
anchors = (
{
name = bottom;
position = "{575, 0}";
},
{
name = top;
position = "{575, 1475}";
}
);
layerId = "A1A0948C-E637-4A65-8CCC-05505AD98C44";
paths = (
{
closed = 1;
nodes = (
"205 574 LINE",
"498 574 LINE SMOOTH",
"831 574 OFFCURVE",
"978 780 OFFCURVE",
"978 1025 CURVE SMOOTH",
"978 1270 OFFCURVE",
"842 1475 OFFCURVE",
"498 1475 CURVE SMOOTH",
"175 1475 LINE",
"175 0 LINE",
"205 0 LINE"
);
},
{
closed = 1;
nodes = (
"205 1461 LINE",
"191 1447 LINE",
"489 1447 LINE SMOOTH",
"824 1447 OFFCURVE",
"947 1259 OFFCURVE",
"947 1025 CURVE SMOOTH",
"947 791 OFFCURVE",
"813 602 OFFCURVE",
"489 602 CURVE SMOOTH",
"191 602 LINE",
"205 588 LINE"
);
}
);
width = 1073;
},
{
anchors = (
{
name = bottom;
position = "{651, 0}";
},
{
name = top;
position = "{651, 1475}";
}
);
layerId = "584F9D0D-8480-40C6-ABEA-8DD6EE64252D";
paths = (
{
closed = 1;
nodes = (
"514 444 LINE",
"675 444 LINE SMOOTH",
"1010 444 OFFCURVE",
"1231 677 OFFCURVE",
"1231 967 CURVE SMOOTH",
"1231 1257 OFFCURVE",
"1010 1475 OFFCURVE",
"675 1475 CURVE SMOOTH",
"110 1475 LINE",
"110 0 LINE",
"514 0 LINE"
);
},
{
closed = 1;
nodes = (
"514 1357 LINE",
"332 1175 LINE",
"634 1175 LINE SMOOTH",
"733 1175 OFFCURVE",
"825 1117 OFFCURVE",
"825 967 CURVE SMOOTH",
"825 817 OFFCURVE",
"733 743 OFFCURVE",
"634 743 CURVE SMOOTH",
"332 743 LINE",
"514 561 LINE"
);
}
);
width = 1295;
},
{
anchors = (
{
name = bottom;
position = "{594, 0}";
},
{
name = top;
position = "{555, 1475}";
}
);
layerId = "F6BDCC95-B00C-46EE-8A70-124DE74BF6E5";
paths = (
{
closed = 1;
nodes = (
"312 515 LINE",
"555 515 LINE SMOOTH",
"889 515 OFFCURVE",
"1064 741 OFFCURVE",
"1064 1003 CURVE SMOOTH",
"1064 1265 OFFCURVE",
"896 1475 OFFCURVE",
"555 1475 CURVE SMOOTH",
"141 1475 LINE",
"141 0 LINE",
"312 0 LINE"
);
},
{
closed = 1;
nodes = (
"312 1422 LINE",
"235 1325 LINE",
"534 1325 LINE SMOOTH",
"781 1325 OFFCURVE",
"892 1206 OFFCURVE",
"892 1003 CURVE SMOOTH",
"892 801 OFFCURVE",
"774 665 OFFCURVE",
"534 665 CURVE SMOOTH",
"235 665 LINE",
"312 578 LINE"
);
}
);
width = 1150;
}
);
leftKerningGroup = H;
leftMetricsKey = H;
note = P;
rightKerningGroup = P;
unicode = 0050;
},
{
glyphname = Thorn;
lastChange = "2020-06-22 01:19:52 +0000";
layers = (
{
layerId = "A1A0948C-E637-4A65-8CCC-05505AD98C44";
paths = (
{
closed = 1;
nodes = (
"205 0 LINE",
"205 329 LINE",
"191 315 LINE",
"476 315 LINE SMOOTH",
"724 315 OFFCURVE",
"915 461 OFFCURVE",
"915 729 CURVE SMOOTH",
"915 992 OFFCURVE",
"729 1143 OFFCURVE",
"476 1143 CURVE SMOOTH",
"191 1143 LINE",
"205 1129 LINE",
"205 1473 LINE",
"175 1473 LINE",
"175 0 LINE"
);
},
{
closed = 1;
nodes = (
"205 1129 LINE",
"191 1115 LINE",
"476 1115 LINE SMOOTH",
"706 1115 OFFCURVE",
"885 975 OFFCURVE",
"885 729 CURVE SMOOTH",
"885 485 OFFCURVE",
"707 343 OFFCURVE",
"476 343 CURVE SMOOTH",
"191 343 LINE",
"205 329 LINE"
);
}
);
width = 1030;
},
{
layerId = "584F9D0D-8480-40C6-ABEA-8DD6EE64252D";
paths = (
{
closed = 1;
nodes = (
"513 0 LINE",
"513 426 LINE",
"392 305 LINE",
"680 305 LINE SMOOTH",
"977 305 OFFCURVE",
"1180 444 OFFCURVE",
"1180 728 CURVE SMOOTH",
"1180 1012 OFFCURVE",
"980 1153 OFFCURVE",
"680 1153 CURVE SMOOTH",
"392 1153 LINE",
"513 1032 LINE",
"513 1473 LINE",
"110 1473 LINE",
"110 0 LINE"
);
},
{
closed = 1;
nodes = (
"513 954 LINE",
"411 852 LINE",
"638 852 LINE SMOOTH",
"722 852 OFFCURVE",
"779 810 OFFCURVE",
"779 729 CURVE SMOOTH",
"779 651 OFFCURVE",
"724 605 OFFCURVE",
"638 605 CURVE SMOOTH",
"419 605 LINE",
"513 511 LINE"
);
}
);
width = 1250;
},
{
layerId = "F6BDCC95-B00C-46EE-8A70-124DE74BF6E5";
paths = (
{
closed = 1;
nodes = (
"311 0 LINE",
"311 365 LINE",
"257 311 LINE",
"543 311 LINE SMOOTH",
"810 311 OFFCURVE",
"1005 455 OFFCURVE",
"1005 729 CURVE SMOOTH",
"1005 1000 OFFCURVE",
"814 1147 OFFCURVE",
"543 1147 CURVE SMOOTH",
"257 1147 LINE",
"311 1093 LINE",
"311 1473 LINE",
"141 1473 LINE",
"141 0 LINE"
);
},
{
closed = 1;
nodes = (
"311 1063 LINE",
"264 996 LINE",
"527 996 LINE SMOOTH",
"703 996 OFFCURVE",
"836 913 OFFCURVE",
"836 729 CURVE SMOOTH",
"836 547 OFFCURVE",
"704 461 OFFCURVE",
"527 461 CURVE SMOOTH",
"267 461 LINE",
"311 397 LINE"
);
}
);
width = 1106;
}
);
leftKerningGroup = H;
leftMetricsKey = H;
note = Thorn;
rightKerningGroup = D;
rightMetricsKey = D;
unicode = 00DE;
},
{
glyphname = Q;
lastChange = "2020-06-22 01:19:52 +0000";
layers = (
{
anchors = (
{
name = bottom;
position = "{664, -17}";
},
{
name = top;
position = "{662, 1487}";
}
);
components = (
{
name = O;
}
);
layerId = "A1A0948C-E637-4A65-8CCC-05505AD98C44";
paths = (
{
closed = 1;
nodes = (
"645 -232 OFFCURVE",
"898 -307 OFFCURVE",
"965 -323 CURVE",
"981 -296 LINE",
"922 -283 OFFCURVE",
"679 -207 OFFCURVE",
"679 -10 CURVE",
"645 -10 LINE"
);
}
);
width = 1328;
},
{
anchors = (
{
name = bottom;
position = "{762, -26}";
},
{
name = top;
position = "{762, 1500}";
}
);
components = (
{
name = O;
}
);
layerId = "584F9D0D-8480-40C6-ABEA-8DD6EE64252D";
paths = (
{
closed = 1;
nodes = (
"598 -343 OFFCURVE",
"1030 -378 OFFCURVE",
"1076 -378 CURVE",
"1188 -111 LINE",
"1148 -107 OFFCURVE",
"938 -85 OFFCURVE",
"938 22 CURVE",
"598 22 LINE"
);
}
);
width = 1564;
},
{
anchors = (
{
name = bottom;
position = "{691, -20}";
},
{
name = top;
position = "{690, 1492}";
}
);
components = (
{
alignment = -1;
name = O;
}
);
layerId = "F6BDCC95-B00C-46EE-8A70-124DE74BF6E5";
paths = (
{
closed = 1;
nodes = (
"618 -274 OFFCURVE",
"938 -334 OFFCURVE",
"997 -344 CURVE",
"1049 -227 LINE",
"997 -217 OFFCURVE",
"767 -161 OFFCURVE",
"767 2 CURVE",
"618 2 LINE"
);
}
);
width = 1383;
}
);
leftKerningGroup = O;
leftMetricsKey = O;
note = Q;
rightKerningGroup = O;
rightMetricsKey = O;
unicode = 0051;
},
{
glyphname = R;
lastChange = "2020-06-22 01:19:52 +0000";
layers = (
{
anchors = (
{
name = bottom;
position = "{567, 0}";
},
{
name = top;
position = "{567, 1475}";
}
);
layerId = "A1A0948C-E637-4A65-8CCC-05505AD98C44";
paths = (
{
closed = 1;
nodes = (
"205 0 LINE",
"205 714 LINE",
"191 700 LINE",
"612 700 LINE SMOOTH",
"781 700 OFFCURVE",
"896 636 OFFCURVE",
"896 476 CURVE SMOOTH",
"896 354 OFFCURVE",
"896 213 OFFCURVE",
"896 91 CURVE SMOOTH",
"896 40 OFFCURVE",
"907 7 OFFCURVE",
"911 0 CURVE",
"943 0 LINE",
"939 7 OFFCURVE",
"927 41 OFFCURVE",
"927 91 CURVE SMOOTH",
"927 216 OFFCURVE",
"927 358 OFFCURVE",
"927 483 CURVE SMOOTH",
"927 646 OFFCURVE",
"802 707 OFFCURVE",
"708 716 CURVE",
"802 729 OFFCURVE",
"970 862 OFFCURVE",
"970 1106 CURVE SMOOTH",
"970 1367 OFFCURVE",
"834 1475 OFFCURVE",
"602 1475 CURVE SMOOTH",
"175 1475 LINE",
"175 0 LINE"
);
},
{
closed = 1;
nodes = (
"205 1461 LINE",
"191 1447 LINE",
"595 1447 LINE SMOOTH",
"820 1447 OFFCURVE",
"939 1347 OFFCURVE",
"939 1106 CURVE SMOOTH",
"939 872 OFFCURVE",
"786 728 OFFCURVE",
"612 728 CURVE SMOOTH",
"191 728 LINE",
"205 714 LINE"
);
}
);
width = 1135;
},
{
anchors = (
{
name = bottom;
position = "{689, 0}";
},
{
name = top;
position = "{649, 1475}";
}
);
layerId = "584F9D0D-8480-40C6-ABEA-8DD6EE64252D";
paths = (
{
closed = 1;
nodes = (
"504 0 LINE",
"504 664 LINE",
"399 541 LINE",
"667 541 LINE SMOOTH",
"785 541 OFFCURVE",
"824 475 OFFCURVE",
"824 368 CURVE SMOOTH",
"824 295 OFFCURVE",
"824 243 OFFCURVE",
"824 170 CURVE SMOOTH",
"824 99 OFFCURVE",
"835 33 OFFCURVE",
"857 0 CURVE",
"1261 0 LINE",
"1237 29 OFFCURVE",
"1226 99 OFFCURVE",
"1226 170 CURVE SMOOTH",
"1226 255 OFFCURVE",
"1226 329 OFFCURVE",
"1226 414 CURVE SMOOTH",
"1226 616 OFFCURVE",
"1109 684 OFFCURVE",
"980 692 CURVE",
"1106 702 OFFCURVE",
"1257 829 OFFCURVE",
"1257 1053 CURVE SMOOTH",
"1257 1318 OFFCURVE",
"1100 1475 OFFCURVE",
"764 1475 CURVE SMOOTH",
"110 1475 LINE",
"110 0 LINE"
);
},
{
closed = 1;
nodes = (
"504 1296 LINE",
"389 1176 LINE",
"669 1176 LINE SMOOTH",
"776 1176 OFFCURVE",
"842 1101 OFFCURVE",
"842 1015 CURVE SMOOTH",
"842 908 OFFCURVE",
"773 841 OFFCURVE",
"671 841 CURVE SMOOTH",
"399 841 LINE",
"504 700 LINE"
);
}
);
width = 1331;
},
{
anchors = (
{
name = bottom;
position = "{603, 0}";
},
{
name = top;
position = "{538, 1475}";
}
);
layerId = "F6BDCC95-B00C-46EE-8A70-124DE74BF6E5";
paths = (
{
closed = 1;
nodes = (
"308 0 LINE",
"308 695 LINE",
"260 630 LINE",
"623 630 LINE SMOOTH",
"773 630 OFFCURVE",
"860 566 OFFCURVE",
"860 436 CURVE SMOOTH",
"860 332 OFFCURVE",
"860 224 OFFCURVE",
"860 121 CURVE SMOOTH",
"860 62 OFFCURVE",
"871 17 OFFCURVE",
"881 0 CURVE",
"1053 0 LINE",
"1041 15 OFFCURVE",
"1030 63 OFFCURVE",
"1030 121 CURVE SMOOTH",
"1030 231 OFFCURVE",
"1030 347 OFFCURVE",
"1030 457 CURVE SMOOTH",
"1030 635 OFFCURVE",
"908 698 OFFCURVE",
"801 707 CURVE",
"907 719 OFFCURVE",
"1068 850 OFFCURVE",
"1068 1086 CURVE SMOOTH",
"1068 1349 OFFCURVE",
"924 1475 OFFCURVE",
"653 1475 CURVE SMOOTH",
"141 1475 LINE",
"141 0 LINE"
);
},
{
closed = 1;
nodes = (
"308 1399 LINE",
"256 1325 LINE",
"613 1325 LINE SMOOTH",
"794 1325 OFFCURVE",
"893 1255 OFFCURVE",
"893 1072 CURVE SMOOTH",
"893 896 OFFCURVE",
"772 780 OFFCURVE",
"625 780 CURVE SMOOTH",
"260 780 LINE",
"308 709 LINE"
);
}
);
width = 1190;
}
);
leftKerningGroup = H;
leftMetricsKey = H;
note = R;
rightKerningGroup = R;
unicode = 0052;
},
{
color = 3;
glyphname = R.ss01;
lastChange = "2020-06-22 01:19:52 +0000";
layers = (
{
anchors = (
{
name = bottom;
position = "{543, 0}";
},
{
name = top;
position = "{532, 1475}";
}
);
layerId = "A1A0948C-E637-4A65-8CCC-05505AD98C44";
paths = (
{
closed = 1;
nodes = (
"175 1475 LINE",
"175 0 LINE",
"205 0 LINE",
"205 693 LINE",
"191 679 LINE",
"667 679 LINE SMOOTH",
"835 679 OFFCURVE",
"1001 821 OFFCURVE",
"1001 1082 CURVE SMOOTH",
"1001 1343 OFFCURVE",
"844 1475 OFFCURVE",
"612 1475 CURVE SMOOTH"
);
},
{
closed = 1;
nodes = (
"191 708 LINE",
"205 694 LINE",
"205 1461 LINE",
"191 1447 LINE",
"595 1447 LINE SMOOTH",
"820 1447 OFFCURVE",
"970 1327 OFFCURVE",
"970 1082 CURVE SMOOTH",
"970 837 OFFCURVE",
"809 708 OFFCURVE",
"667 708 CURVE SMOOTH"
);
},
{
closed = 1;
nodes = (
"930 0 LINE",
"964 0 LINE",
"694 696 LINE",
"662 696 LINE"
);
}
);
width = 1166;
},
{
anchors = (
{
name = bottom;
position = "{644, 0}";
},
{
name = top;
position = "{644, 1475}";
}
);
layerId = "584F9D0D-8480-40C6-ABEA-8DD6EE64252D";
paths = (
{
closed = 1;
nodes = (
"110 1475 LINE",
"110 0 LINE",
"504 0 LINE",
"504 685 LINE",
"391 562 LINE",
"672 562 LINE SMOOTH",
"989 562 OFFCURVE",
"1241 663 OFFCURVE",
"1241 1043 CURVE SMOOTH",
"1241 1308 OFFCURVE",
"1100 1475 OFFCURVE",
"764 1475 CURVE SMOOTH"
);
},
{
closed = 1;
nodes = (
"406 852 LINE",
"504 744 LINE",
"504 1299 LINE",
"400 1185 LINE",
"669 1185 LINE SMOOTH",
"776 1185 OFFCURVE",
"825 1113 OFFCURVE",
"825 1027 CURVE SMOOTH",
"825 920 OFFCURVE",
"775 852 OFFCURVE",
"676 852 CURVE SMOOTH"
);
},
{
closed = 1;
nodes = (
"830 0 LINE",
"1242 0 LINE",
"971 693 LINE",
"602 693 LINE"
);
}
);
width = 1312;
},
{
anchors = (
{
name = bottom;
position = "{575, 0}";
},
{
name = top;
position = "{575, 1475}";
}
);
layerId = "F6BDCC95-B00C-46EE-8A70-124DE74BF6E5";
paths = (
{
closed = 1;
nodes = (
"141 1475 LINE",
"141 0 LINE",
"308 0 LINE",
"308 690 LINE",
"257 635 LINE",
"660 635 LINE SMOOTH",
"883 635 OFFCURVE",
"1082 762 OFFCURVE",
"1082 1067 CURVE SMOOTH",
"1082 1330 OFFCURVE",
"931 1475 OFFCURVE",
"660 1475 CURVE SMOOTH"
);
},
{
closed = 1;
nodes = (
"262 782 LINE",
"308 713 LINE",
"308 1400 LINE",
"260 1329 LINE",
"613 1329 LINE SMOOTH",
"794 1329 OFFCURVE",
"906 1247 OFFCURVE",
"906 1061 CURVE SMOOTH",
"906 868 OFFCURVE",
"787 782 OFFCURVE",
"661 782 CURVE SMOOTH"
);
},
{
closed = 1;
nodes = (
"883 0 LINE",
"1059 0 LINE",
"789 695 LINE",
"620 695 LINE"
);
}
);
width = 1204;
}
);
leftKerningGroup = H;
leftMetricsKey = H;
note = R;
rightKerningGroup = R;
rightMetricsKey = R;
},
{
glyphname = S;
lastChange = "2020-06-22 01:19:52 +0000";
layers = (
{
anchors = (
{
name = bottom;
position = "{547, 0}";
},
{
name = top;
position = "{542, 1475}";
}
);
layerId = "A1A0948C-E637-4A65-8CCC-05505AD98C44";
paths = (
{
closed = 1;
nodes = (
"829 -17 OFFCURVE",
"974 120 OFFCURVE",
"974 347 CURVE SMOOTH",
"974 579 OFFCURVE",
"829 674 OFFCURVE",
"570 761 CURVE SMOOTH",
"334 840 OFFCURVE",
"159 934 OFFCURVE",
"159 1155 CURVE SMOOTH",
"159 1353 OFFCURVE",
"296 1460 OFFCURVE",
"534 1460 CURVE SMOOTH",
"785 1460 OFFCURVE",
"932 1350 OFFCURVE",
"932 1091 CURVE SMOOTH",
"932 1054 OFFCURVE",
"932 1037 OFFCURVE",
"932 1000 CURVE",
"963 1000 LINE",
"963 1037 OFFCURVE",
"963 1054 OFFCURVE",
"963 1091 CURVE SMOOTH",
"963 1364 OFFCURVE",
"808 1488 OFFCURVE",
"533 1488 CURVE SMOOTH",
"277 1488 OFFCURVE",
"127 1375 OFFCURVE",
"127 1155 CURVE SMOOTH",
"127 923 OFFCURVE",
"297 823 OFFCURVE",
"565 731 CURVE SMOOTH",
"797 651 OFFCURVE",
"942 565 OFFCURVE",
"942 345 CURVE SMOOTH",
"942 133 OFFCURVE",
"810 11 OFFCURVE",
"542 11 CURVE SMOOTH",
"287 11 OFFCURVE",
"146 135 OFFCURVE",
"146 405 CURVE SMOOTH",
"146 438 OFFCURVE",
"146 451 OFFCURVE",
"146 484 CURVE",
"115 484 LINE",
"115 451 OFFCURVE",
"115 438 OFFCURVE",
"115 405 CURVE SMOOTH",
"115 122 OFFCURVE",
"255 -17 OFFCURVE",
"547 -17 CURVE SMOOTH"
);
}
);
width = 1089;
},
{
anchors = (
{
name = bottom;
position = "{647, 0}";
},
{
name = top;
position = "{649, 1475}";
}
);
layerId = "584F9D0D-8480-40C6-ABEA-8DD6EE64252D";
paths = (
{
closed = 1;
nodes = (
"981 -26 OFFCURVE",
"1226 127 OFFCURVE",
"1226 406 CURVE SMOOTH",
"1226 672 OFFCURVE",
"1044 775 OFFCURVE",
"777 869 CURVE SMOOTH",
"598 932 OFFCURVE",
"467 979 OFFCURVE",
"467 1065 CURVE SMOOTH",
"467 1146 OFFCURVE",
"533 1190 OFFCURVE",
"650 1190 CURVE SMOOTH",
"768 1190 OFFCURVE",
"812 1121 OFFCURVE",
"812 1035 CURVE SMOOTH",
"812 1028 OFFCURVE",
"812 1011 OFFCURVE",
"812 1004 CURVE",
"1215 1004 LINE",
"1215 1021 OFFCURVE",
"1215 1037 OFFCURVE",
"1215 1054 CURVE SMOOTH",
"1215 1345 OFFCURVE",
"970 1500 OFFCURVE",
"645 1500 CURVE SMOOTH",
"330 1500 OFFCURVE",
"79 1337 OFFCURVE",
"79 1064 CURVE SMOOTH",
"79 798 OFFCURVE",
"280 672 OFFCURVE",
"488 607 CURVE SMOOTH",
"680 547 OFFCURVE",
"834 480 OFFCURVE",
"834 394 CURVE SMOOTH",
"834 317 OFFCURVE",
"764 285 OFFCURVE",
"649 285 CURVE SMOOTH",
"530 285 OFFCURVE",
"473 355 OFFCURVE",
"473 449 CURVE SMOOTH",
"473 464 OFFCURVE",
"473 478 OFFCURVE",
"473 493 CURVE",
"70 493 LINE",
"70 476 OFFCURVE",
"70 458 OFFCURVE",
"70 441 CURVE SMOOTH",
"70 132 OFFCURVE",
"317 -26 OFFCURVE",
"645 -26 CURVE"
);
}
);
width = 1296;
},
{
anchors = (
{
name = bottom;
position = "{588, 0}";
},
{
name = top;
position = "{585, 1475}";
}
);
layerId = "F6BDCC95-B00C-46EE-8A70-124DE74BF6E5";
paths = (
{
closed = 1;
nodes = (
"889 -20 OFFCURVE",
"1072 123 OFFCURVE",
"1072 369 CURVE SMOOTH",
"1072 614 OFFCURVE",
"913 720 OFFCURVE",
"651 806 CURVE SMOOTH",
"435 877 OFFCURVE",
"278 947 OFFCURVE",
"278 1121 CURVE SMOOTH",
"278 1275 OFFCURVE",
"388 1339 OFFCURVE",
"581 1339 CURVE SMOOTH",
"782 1339 OFFCURVE",
"890 1264 OFFCURVE",
"890 1070 CURVE SMOOTH",
"890 1044 OFFCURVE",
"890 1027 OFFCURVE",
"890 1002 CURVE",
"1061 1002 LINE",
"1061 1031 OFFCURVE",
"1061 1048 OFFCURVE",
"1061 1077 CURVE SMOOTH",
"1061 1357 OFFCURVE",
"872 1493 OFFCURVE",
"578 1493 CURVE SMOOTH",
"300 1493 OFFCURVE",
"112 1361 OFFCURVE",
"112 1121 CURVE SMOOTH",
"112 876 OFFCURVE",
"292 749 OFFCURVE",
"539 673 CURVE SMOOTH",
"756 606 OFFCURVE",
"905 533 OFFCURVE",
"905 363 CURVE SMOOTH",
"905 202 OFFCURVE",
"796 134 OFFCURVE",
"585 134 CURVE SMOOTH",
"381 134 OFFCURVE",
"272 218 OFFCURVE",
"272 422 CURVE SMOOTH",
"272 448 OFFCURVE",
"272 461 OFFCURVE",
"272 487 CURVE",
"101 487 LINE",
"101 460 OFFCURVE",
"101 446 OFFCURVE",
"101 419 CURVE SMOOTH",
"101 126 OFFCURVE",
"281 -20 OFFCURVE",
"587 -20 CURVE"
);
}
);
width = 1173;
}
);
leftKerningGroup = S;
leftMetricsKey = O;
note = S;
rightKerningGroup = S;
rightMetricsKey = O;
unicode = 0053;
},
{
glyphname = Scedilla;
lastChange = "2020-06-22 01:19:52 +0000";
layers = (
{
components = (
{
name = S;
}
);
layerId = "A1A0948C-E637-4A65-8CCC-05505AD98C44";
paths = (
{
closed = 1;
nodes = (
"555 -143 OFFCURVE",
"507 -160 OFFCURVE",
"496 -185 CURVE",
"497 -195 LINE",
"561 0 LINE",
"531 0 LINE",
"465 -199 LINE",
"494 -212 LINE",
"515 -188 OFFCURVE",
"560 -171 OFFCURVE",
"596 -171 CURVE SMOOTH",
"653 -171 OFFCURVE",
"690 -201 OFFCURVE",
"690 -273 CURVE SMOOTH",
"690 -357 OFFCURVE",
"620 -406 OFFCURVE",
"535 -406 CURVE SMOOTH",
"470 -406 OFFCURVE",
"434 -387 OFFCURVE",
"423 -379 CURVE",
"409 -407 LINE",
"419 -415 OFFCURVE",
"465 -434 OFFCURVE",
"531 -434 CURVE SMOOTH",
"633 -434 OFFCURVE",
"720 -378 OFFCURVE",
"720 -273 CURVE SMOOTH",
"720 -178 OFFCURVE",
"666 -143 OFFCURVE",
"601 -143 CURVE SMOOTH"
);
}
);
width = 1089;
},
{
components = (
{
name = S;
}
);
layerId = "584F9D0D-8480-40C6-ABEA-8DD6EE64252D";
paths = (
{
closed = 1;
nodes = (
"707 -56 OFFCURVE",
"669 -75 OFFCURVE",
"656 -107 CURVE",
"666 -107 LINE",
"724 0 LINE",
"558 0 LINE",
"484 -143 LINE",
"630 -182 LINE",
"644 -160 OFFCURVE",
"678 -150 OFFCURVE",
"709 -150 CURVE SMOOTH",
"740 -150 OFFCURVE",
"766 -165 OFFCURVE",
"766 -199 CURVE SMOOTH",
"766 -243 OFFCURVE",
"714 -265 OFFCURVE",
"643 -265 CURVE SMOOTH",
"572 -265 OFFCURVE",
"489 -230 OFFCURVE",
"459 -212 CURVE",
"383 -353 LINE",
"426 -382 OFFCURVE",
"541 -410 OFFCURVE",
"630 -410 CURVE SMOOTH",
"782 -410 OFFCURVE",
"937 -350 OFFCURVE",
"937 -207 CURVE SMOOTH",
"937 -95 OFFCURVE",
"844 -56 OFFCURVE",
"772 -56 CURVE SMOOTH"
);
}
);
width = 1296;
},
{
components = (
{
name = S;
}
);
layerId = "F6BDCC95-B00C-46EE-8A70-124DE74BF6E5";
paths = (
{
closed = 1;
nodes = (
"616 -100 OFFCURVE",
"562 -128 OFFCURVE",
"550 -156 CURVE",
"564 -162 LINE",
"626 0 LINE",
"545 0 LINE",
"476 -178 LINE",
"549 -201 LINE",
"567 -178 OFFCURVE",
"608 -163 OFFCURVE",
"642 -163 CURVE SMOOTH",
"689 -163 OFFCURVE",
"722 -188 OFFCURVE",
"722 -245 CURVE SMOOTH",
"722 -314 OFFCURVE",
"659 -353 OFFCURVE",
"579 -353 CURVE SMOOTH",
"512 -353 OFFCURVE",
"458 -328 OFFCURVE",
"440 -316 CURVE",
"403 -387 LINE",
"425 -403 OFFCURVE",
"497 -425 OFFCURVE",
"572 -425 CURVE SMOOTH",
"693 -425 OFFCURVE",
"805 -368 OFFCURVE",
"805 -248 CURVE SMOOTH",
"805 -147 OFFCURVE",
"737 -100 OFFCURVE",
"669 -100 CURVE SMOOTH"
);
}
);
width = 1173;
}
);
leftKerningGroup = S;
rightKerningGroup = S;
unicode = 015E;
},
{
glyphname = Germandbls;
lastChange = "2020-06-22 01:19:52 +0000";
layers = (
{
layerId = "A1A0948C-E637-4A65-8CCC-05505AD98C44";
paths = (
{
closed = 1;
nodes = (
"205 0 LINE",
"205 1133 LINE SMOOTH",
"205 1340 OFFCURVE",
"306 1447 OFFCURVE",
"502 1447 CURVE SMOOTH",
"885 1447 LINE",
"462 894 LINE",
"495 863 LINE",
"523 869 OFFCURVE",
"552 872 OFFCURVE",
"581 872 CURVE SMOOTH",
"781 872 OFFCURVE",
"969 720 OFFCURVE",
"969 449 CURVE SMOOTH",
"969 139 OFFCURVE",
"786 15 OFFCURVE",
"555 15 CURVE SMOOTH",
"488 15 OFFCURVE",
"413 36 OFFCURVE",
"389 47 CURVE",
"375 17 LINE",
"404 5 OFFCURVE",
"477 -13 OFFCURVE",
"557 -13 CURVE SMOOTH",
"816 -13 OFFCURVE",
"1001 129 OFFCURVE",
"1001 449 CURVE SMOOTH",
"1001 732 OFFCURVE",
"809 900 OFFCURVE",
"585 900 CURVE SMOOTH",
"556 900 OFFCURVE",
"527 897 OFFCURVE",
"497 891 CURVE",
"920 1445 LINE",
"920 1475 LINE",
"501 1475 LINE SMOOTH",
"284 1475 OFFCURVE",
"175 1353 OFFCURVE",
"175 1128 CURVE SMOOTH",
"175 0 LINE"
);
}
);
width = 1116;
},
{
layerId = "584F9D0D-8480-40C6-ABEA-8DD6EE64252D";
paths = (
{
closed = 1;
nodes = (
"514 0 LINE",
"514 1061 LINE SMOOTH",
"514 1129 OFFCURVE",
"538 1175 OFFCURVE",
"608 1175 CURVE SMOOTH",
"853 1175 LINE",
"543 869 LINE",
"732 623 LINE",
"743 631 OFFCURVE",
"776 653 OFFCURVE",
"826 653 CURVE SMOOTH",
"910 653 OFFCURVE",
"965 600 OFFCURVE",
"965 476 CURVE SMOOTH",
"965 352 OFFCURVE",
"897 287 OFFCURVE",
"814 287 CURVE SMOOTH",
"727 287 OFFCURVE",
"628 310 OFFCURVE",
"604 321 CURVE",
"604 17 LINE",
"633 5 OFFCURVE",
"706 -13 OFFCURVE",
"806 -13 CURVE SMOOTH",
"1120 -13 OFFCURVE",
"1371 109 OFFCURVE",
"1371 459 CURVE SMOOTH",
"1371 793 OFFCURVE",
"1195 891 OFFCURVE",
"1024 891 CURVE SMOOTH",
"1004 891 OFFCURVE",
"974 889 OFFCURVE",
"955 885 CURVE",
"1259 1157 LINE",
"1259 1475 LINE",
"555 1475 LINE SMOOTH",
"313 1475 OFFCURVE",
"110 1365 OFFCURVE",
"110 1097 CURVE SMOOTH",
"110 0 LINE"
);
}
);
width = 1441;
},
{
layerId = "F6BDCC95-B00C-46EE-8A70-124DE74BF6E5";
paths = (
{
closed = 1;
nodes = (
"312 0 LINE",
"312 1086 LINE SMOOTH",
"312 1241 OFFCURVE",
"384 1325 OFFCURVE",
"532 1325 CURVE SMOOTH",
"834 1325 LINE",
"453 885 LINE",
"575 763 LINE",
"596 770 OFFCURVE",
"627 780 OFFCURVE",
"664 780 CURVE SMOOTH",
"820 780 OFFCURVE",
"958 695 OFFCURVE",
"958 459 CURVE SMOOTH",
"958 229 OFFCURVE",
"818 137 OFFCURVE",
"643 137 CURVE SMOOTH",
"558 137 OFFCURVE",
"474 161 OFFCURVE",
"450 172 CURVE",
"442 19 LINE",
"471 6 OFFCURVE",
"544 -13 OFFCURVE",
"641 -13 CURVE SMOOTH",
"921 -13 OFFCURVE",
"1130 132 OFFCURVE",
"1130 453 CURVE SMOOTH",
"1130 755 OFFCURVE",
"954 912 OFFCURVE",
"750 912 CURVE SMOOTH",
"715 912 OFFCURVE",
"685 906 OFFCURVE",
"669 899 CURVE",
"1038 1317 LINE",
"1038 1475 LINE",
"512 1475 LINE SMOOTH",
"286 1475 OFFCURVE",
"141 1358 OFFCURVE",
"141 1116 CURVE SMOOTH",
"141 0 LINE"
);
}
);
width = 1231;
}
);
leftKerningGroup = H;
leftMetricsKey = H;
rightKerningGroup = S;
rightMetricsKey = S;
unicode = 1E9E;
},
{
glyphname = Schwa;
lastChange = "2020-06-22 01:19:52 +0000";
layers = (
{
anchors = (
{
name = bottom;
position = "{572, 0}";
},
{
name = top;
position = "{572, 1475}";
}
);
layerId = "A1A0948C-E637-4A65-8CCC-05505AD98C44";
paths = (
{
closed = 1;
nodes = (
"913 -11 OFFCURVE",
"1048 368 OFFCURVE",
"1048 739 CURVE SMOOTH",
"1048 1161 OFFCURVE",
"902 1484 OFFCURVE",
"572 1484 CURVE SMOOTH",
"253 1484 OFFCURVE",
"120 1169 OFFCURVE",
"120 1021 CURVE",
"151 1021 LINE",
"151 1145 OFFCURVE",
"265 1456 OFFCURVE",
"572 1456 CURVE SMOOTH",
"883 1456 OFFCURVE",
"1015 1134 OFFCURVE",
"1015 739 CURVE SMOOTH",
"1015 394 OFFCURVE",
"899 17 OFFCURVE",
"570 17 CURVE SMOOTH",
"266 17 OFFCURVE",
"147 369 OFFCURVE",
"147 661 CURVE SMOOTH",
"147 669 OFFCURVE",
"147 686 OFFCURVE",
"147 697 CURVE",
"135 690 LINE",
"1022 690 LINE",
"1022 718 LINE",
"115 718 LINE",
"115 706 OFFCURVE",
"115 687 OFFCURVE",
"115 675 CURVE SMOOTH",
"115 339 OFFCURVE",
"246 -11 OFFCURVE",
"570 -11 CURVE SMOOTH"
);
}
);
width = 1163;
},
{
anchors = (
{
name = bottom;
position = "{684, 0}";
},
{
name = top;
position = "{684, 1475}";
}
);
layerId = "584F9D0D-8480-40C6-ABEA-8DD6EE64252D";
paths = (
{
closed = 1;
nodes = (
"1018 -11 OFFCURVE",
"1307 208 OFFCURVE",
"1307 739 CURVE SMOOTH",
"1307 1311 OFFCURVE",
"1007 1484 OFFCURVE",
"687 1484 CURVE SMOOTH",
"358 1484 OFFCURVE",
"95 1299 OFFCURVE",
"85 1001 CURVE",
"472 1001 LINE",
"482 1115 OFFCURVE",
"566 1192 OFFCURVE",
"687 1192 CURVE SMOOTH",
"800 1192 OFFCURVE",
"901 1124 OFFCURVE",
"901 739 CURVE SMOOTH",
"901 381 OFFCURVE",
"806 280 OFFCURVE",
"675 280 CURVE SMOOTH",
"557 280 OFFCURVE",
"468 359 OFFCURVE",
"468 641 CURVE SMOOTH",
"468 649 OFFCURVE",
"468 666 OFFCURVE",
"468 677 CURVE",
"456 589 LINE",
"908 589 LINE",
"908 868 LINE",
"73 868 LINE",
"71 856 OFFCURVE",
"70 815 OFFCURVE",
"70 735 CURVE SMOOTH",
"70 189 OFFCURVE",
"332 -11 OFFCURVE",
"675 -11 CURVE SMOOTH"
);
}
);
width = 1377;
},
{
anchors = (
{
name = bottom;
position = "{617, 0}";
},
{
name = top;
position = "{617, 1475}";
}
);
layerId = "F6BDCC95-B00C-46EE-8A70-124DE74BF6E5";
paths = (
{
closed = 1;
nodes = (
"956 -11 OFFCURVE",
"1148 308 OFFCURVE",
"1148 739 CURVE SMOOTH",
"1148 1217 OFFCURVE",
"945 1484 OFFCURVE",
"618 1484 CURVE SMOOTH",
"296 1484 OFFCURVE",
"114 1218 OFFCURVE",
"110 1014 CURVE",
"275 1014 LINE",
"277 1134 OFFCURVE",
"381 1329 OFFCURVE",
"618 1329 CURVE SMOOTH",
"855 1329 OFFCURVE",
"975 1130 OFFCURVE",
"975 739 CURVE SMOOTH",
"975 389 OFFCURVE",
"867 144 OFFCURVE",
"613 144 CURVE SMOOTH",
"378 144 OFFCURVE",
"271 365 OFFCURVE",
"271 654 CURVE SMOOTH",
"271 662 OFFCURVE",
"271 679 OFFCURVE",
"271 690 CURVE",
"259 632 LINE",
"1012 632 LINE",
"1012 784 LINE",
"102 784 LINE",
"101 770 OFFCURVE",
"101 735 OFFCURVE",
"101 698 CURVE SMOOTH",
"101 283 OFFCURVE",
"281 -11 OFFCURVE",
"613 -11 CURVE SMOOTH"
);
}
);
width = 1249;
}
);
leftKerningGroup = O;
leftMetricsKey = O;
rightKerningGroup = O;
rightMetricsKey = O;
unicode = 018F;
},
{
glyphname = T;
lastChange = "2020-06-22 01:19:52 +0000";
layers = (
{
anchors = (
{
name = bottom;
position = "{543, 0}";
},
{
name = center;
position = "{541, 738}";
},
{
name = top;
position = "{541, 1475}";
}
);
layerId = "A1A0948C-E637-4A65-8CCC-05505AD98C44";
paths = (
{
closed = 1;
nodes = (
"968 1475 LINE",
"115 1475 LINE",
"115 1447 LINE",
"540 1447 LINE",
"526 1461 LINE",
"526 0 LINE",
"557 0 LINE",
"557 1461 LINE",
"543 1447 LINE",
"968 1447 LINE"
);
}
);
width = 1083;
},
{
anchors = (
{
name = bottom;
position = "{608, 0}";
},
{
name = center;
position = "{608, 738}";
},
{
name = top;
position = "{608, 1475}";
}
);
layerId = "584F9D0D-8480-40C6-ABEA-8DD6EE64252D";
paths = (
{
closed = 1;
nodes = (
"1154 1475 LINE",
"60 1475 LINE",
"60 1175 LINE",
"587 1175 LINE",
"405 1357 LINE",
"405 0 LINE",
"808 0 LINE",
"808 1357 LINE",
"626 1175 LINE",
"1154 1175 LINE"
);
}
);
width = 1214;
},
{
anchors = (
{
name = bottom;
position = "{551, 0}";
},
{
name = center;
position = "{549, 738}";
},
{
name = top;
position = "{549, 1475}";
}
);
layerId = "F6BDCC95-B00C-46EE-8A70-124DE74BF6E5";
paths = (
{
closed = 1;
nodes = (
"1021 1475 LINE",
"78 1475 LINE",
"78 1325 LINE",
"512 1325 LINE",
"464 1422 LINE",
"464 0 LINE",
"634 0 LINE",
"634 1422 LINE",
"595 1325 LINE",
"1021 1325 LINE"
);
}
);
width = 1099;
}
);
leftKerningGroup = T;
note = T;
rightKerningGroup = T;
unicode = 0054;
},
{
glyphname = Tbar;
lastChange = "2020-06-22 01:19:52 +0000";
layers = (
{
components = (
{
name = T;
}
);
layerId = "A1A0948C-E637-4A65-8CCC-05505AD98C44";
paths = (
{
closed = 1;
nodes = (
"873 725 LINE",
"873 751 LINE",
"209 751 LINE",
"209 725 LINE"
);
}
);
width = 1083;
},
{
components = (
{
name = T;
}
);
layerId = "584F9D0D-8480-40C6-ABEA-8DD6EE64252D";
paths = (
{
closed = 1;
nodes = (
"983 648 LINE",
"983 827 LINE",
"233 827 LINE",
"233 648 LINE"
);
}
);
width = 1214;
},
{
components = (
{
name = T;
}
);
layerId = "F6BDCC95-B00C-46EE-8A70-124DE74BF6E5";
paths = (
{
closed = 1;
nodes = (
"897 697 LINE",
"897 780 LINE",
"201 780 LINE",
"201 697 LINE"
);
}
);
width = 1099;
}
);
leftKerningGroup = T;
rightKerningGroup = T;
unicode = 0166;
},
{
glyphname = U;
lastChange = "2020-06-22 01:19:52 +0000";
layers = (
{
anchors = (
{
name = bottom;
position = "{635, 0}";
},
{
name = ogonek;
position = "{826, 17}";
},
{
name = top;
position = "{634, 1475}";
},
{
name = topright;
position = "{1085, 1475}";
}
);
layerId = "A1A0948C-E637-4A65-8CCC-05505AD98C44";
paths = (
{
closed = 1;
nodes = (
"1095 1475 LINE",
"1065 1475 LINE",
"1065 566 LINE SMOOTH",
"1065 182 OFFCURVE",
"906 11 OFFCURVE",
"635 11 CURVE SMOOTH",
"364 11 OFFCURVE",
"205 182 OFFCURVE",
"205 566 CURVE SMOOTH",
"205 631 OFFCURVE",
"205 707 OFFCURVE",
"205 794 CURVE SMOOTH",
"205 1475 LINE",
"175 1475 LINE",
"175 781 LINE SMOOTH",
"175 695 OFFCURVE",
"175 620 OFFCURVE",
"175 555 CURVE SMOOTH",
"175 162 OFFCURVE",
"343 -17 OFFCURVE",
"635 -17 CURVE SMOOTH",
"927 -17 OFFCURVE",
"1095 162 OFFCURVE",
"1095 555 CURVE SMOOTH"
);
}
);
width = 1270;
},
{
anchors = (
{
name = bottom;
position = "{693, 0}";
},
{
name = ogonek;
position = "{989, 30}";
},
{
name = top;
position = "{694, 1475}";
},
{
name = topright;
position = "{1111, 1475}";
}
);
layerId = "584F9D0D-8480-40C6-ABEA-8DD6EE64252D";
paths = (
{
closed = 1;
nodes = (
"1278 1475 LINE",
"874 1475 LINE",
"874 515 LINE SMOOTH",
"874 366 OFFCURVE",
"829 285 OFFCURVE",
"693 285 CURVE SMOOTH",
"557 285 OFFCURVE",
"514 366 OFFCURVE",
"514 515 CURVE SMOOTH",
"514 544 OFFCURVE",
"514 577 OFFCURVE",
"514 615 CURVE SMOOTH",
"514 1475 LINE",
"110 1475 LINE",
"110 678 LINE SMOOTH",
"110 623 OFFCURVE",
"110 572 OFFCURVE",
"110 525 CURVE SMOOTH",
"110 158 OFFCURVE",
"333 -26 OFFCURVE",
"693 -26 CURVE SMOOTH",
"1053 -26 OFFCURVE",
"1278 158 OFFCURVE",
"1278 525 CURVE SMOOTH"
);
}
);
width = 1388;
},
{
anchors = (
{
name = bottom;
position = "{647, 0}";
},
{
name = ogonek;
position = "{869, 20}";
},
{
name = top;
position = "{647, 1475}";
},
{
name = topright;
position = "{1085, 1475}";
}
);
layerId = "F6BDCC95-B00C-46EE-8A70-124DE74BF6E5";
paths = (
{
closed = 1;
nodes = (
"1154 1475 LINE",
"984 1475 LINE",
"984 547 LINE SMOOTH",
"984 251 OFFCURVE",
"868 134 OFFCURVE",
"647 134 CURVE SMOOTH",
"427 134 OFFCURVE",
"312 251 OFFCURVE",
"312 547 CURVE SMOOTH",
"312 598 OFFCURVE",
"312 658 OFFCURVE",
"312 727 CURVE SMOOTH",
"312 1475 LINE",
"141 1475 LINE",
"141 742 LINE SMOOTH",
"141 668 OFFCURVE",
"141 602 OFFCURVE",
"141 544 CURVE SMOOTH",
"141 161 OFFCURVE",
"330 -20 OFFCURVE",
"647 -20 CURVE SMOOTH",
"965 -20 OFFCURVE",
"1154 161 OFFCURVE",
"1154 544 CURVE SMOOTH"
);
}
);
width = 1295;
}
);
leftKerningGroup = U;
leftMetricsKey = H;
note = U;
rightKerningGroup = U;
rightMetricsKey = H;
unicode = 0055;
},
{
glyphname = Uhorn;
lastChange = "2020-06-22 01:19:52 +0000";
layers = (
{
anchors = (
{
name = bottom;
position = "{635, -17}";
},
{
name = ogonek;
position = "{826, 17}";
},
{
name = top;
position = "{634, 1475}";
},
{
name = topright;
position = "{1085, 1475}";
}
);
layerId = "A1A0948C-E637-4A65-8CCC-05505AD98C44";
paths = (
{
closed = 1;
nodes = (
"1085 1447 LINE",
"1228 1447 OFFCURVE",
"1323 1543 OFFCURVE",
"1323 1728 CURVE",
"1291 1728 LINE",
"1291 1557 OFFCURVE",
"1209 1475 OFFCURVE",
"1085 1475 CURVE"
);
},
{
closed = 1;
nodes = (
"1095 1475 LINE",
"1065 1475 LINE",
"1065 566 LINE SMOOTH",
"1065 182 OFFCURVE",
"906 11 OFFCURVE",
"635 11 CURVE SMOOTH",
"364 11 OFFCURVE",
"205 182 OFFCURVE",
"205 566 CURVE SMOOTH",
"205 631 OFFCURVE",
"205 707 OFFCURVE",
"205 794 CURVE SMOOTH",
"205 1475 LINE",
"175 1475 LINE",
"175 781 LINE SMOOTH",
"175 695 OFFCURVE",
"175 620 OFFCURVE",
"175 555 CURVE SMOOTH",
"175 162 OFFCURVE",
"343 -17 OFFCURVE",
"635 -17 CURVE SMOOTH",
"927 -17 OFFCURVE",
"1095 162 OFFCURVE",
"1095 555 CURVE SMOOTH"
);
}
);
width = 1338;
},
{
anchors = (
{
name = bottom;
position = "{693, -26}";
},
{
name = ogonek;
position = "{989, 30}";
},
{
name = top;
position = "{694, 1475}";
},
{
name = topright;
position = "{1111, 1475}";
}
);
layerId = "584F9D0D-8480-40C6-ABEA-8DD6EE64252D";
paths = (
{
closed = 1;
nodes = (
"1111 1285 LINE",
"1348 1285 OFFCURVE",
"1492 1422 OFFCURVE",
"1492 1736 CURVE",
"1248 1736 LINE",
"1248 1565 OFFCURVE",
"1213 1475 OFFCURVE",
"1111 1475 CURVE"
);
},
{
closed = 1;
nodes = (
"1278 1475 LINE",
"874 1475 LINE",
"874 515 LINE SMOOTH",
"874 366 OFFCURVE",
"829 285 OFFCURVE",
"693 285 CURVE SMOOTH",
"557 285 OFFCURVE",
"514 366 OFFCURVE",
"514 515 CURVE SMOOTH",
"514 544 OFFCURVE",
"514 577 OFFCURVE",
"514 615 CURVE SMOOTH",
"514 1475 LINE",
"110 1475 LINE",
"110 678 LINE SMOOTH",
"110 623 OFFCURVE",
"110 572 OFFCURVE",
"110 525 CURVE SMOOTH",
"110 158 OFFCURVE",
"333 -26 OFFCURVE",
"693 -26 CURVE SMOOTH",
"1053 -26 OFFCURVE",
"1278 158 OFFCURVE",
"1278 525 CURVE SMOOTH"
);
}
);
width = 1472;
},
{
anchors = (
{
name = bottom;
position = "{647, -20}";
},
{
name = ogonek;
position = "{869, 20}";
},
{
name = top;
position = "{647, 1475}";
},
{
name = topright;
position = "{1085, 1475}";
}
);
layerId = "F6BDCC95-B00C-46EE-8A70-124DE74BF6E5";
paths = (
{
closed = 1;
nodes = (
"1085 1386 LINE",
"1264 1386 OFFCURVE",
"1377 1498 OFFCURVE",
"1377 1731 CURVE",
"1265 1731 LINE",
"1265 1560 OFFCURVE",
"1201 1475 OFFCURVE",
"1085 1475 CURVE"
);
},
{
closed = 1;
nodes = (
"1154 1475 LINE",
"984 1475 LINE",
"984 547 LINE SMOOTH",
"984 251 OFFCURVE",
"868 134 OFFCURVE",
"647 134 CURVE SMOOTH",
"427 134 OFFCURVE",
"312 251 OFFCURVE",
"312 547 CURVE SMOOTH",
"312 598 OFFCURVE",
"312 658 OFFCURVE",
"312 727 CURVE SMOOTH",
"312 1475 LINE",
"141 1475 LINE",
"141 742 LINE SMOOTH",
"141 668 OFFCURVE",
"141 602 OFFCURVE",
"141 544 CURVE SMOOTH",
"141 161 OFFCURVE",
"330 -20 OFFCURVE",
"647 -20 CURVE SMOOTH",
"965 -20 OFFCURVE",
"1154 161 OFFCURVE",
"1154 544 CURVE SMOOTH"
);
}
);
width = 1377;
}
);
leftKerningGroup = U;
rightKerningGroup = Uhorn;
unicode = 01AF;
},
{
glyphname = Uogonek;
lastChange = "2020-06-22 01:19:52 +0000";
layers = (
{
components = (
{
name = U;
}
);
layerId = "A1A0948C-E637-4A65-8CCC-05505AD98C44";
paths = (
{
closed = 1;
nodes = (
"803 -344 OFFCURVE",
"766 -348 OFFCURVE",
"738 -348 CURVE SMOOTH",
"670 -348 OFFCURVE",
"631 -313 OFFCURVE",
"631 -246 CURVE SMOOTH",
"631 -162 OFFCURVE",
"741 -58 OFFCURVE",
"826 17 CURVE",
"798 17 LINE",
"701 -56 OFFCURVE",
"595 -155 OFFCURVE",
"595 -248 CURVE SMOOTH",
"595 -340 OFFCURVE",
"656 -379 OFFCURVE",
"734 -379 CURVE SMOOTH",
"765 -379 OFFCURVE",
"802 -375 OFFCURVE",
"826 -370 CURVE",
"826 -339 LINE"
);
}
);
width = 1270;
},
{
components = (
{
name = U;
}
);
layerId = "584F9D0D-8480-40C6-ABEA-8DD6EE64252D";
paths = (
{
closed = 1;
nodes = (
"967 -243 OFFCURVE",
"941 -246 OFFCURVE",
"917 -246 CURVE SMOOTH",
"869 -246 OFFCURVE",
"824 -237 OFFCURVE",
"824 -192 CURVE SMOOTH",
"824 -131 OFFCURVE",
"939 -10 OFFCURVE",
"989 30 CURVE",
"801 30 LINE",
"742 -9 OFFCURVE",
"593 -124 OFFCURVE",
"593 -258 CURVE SMOOTH",
"593 -389 OFFCURVE",
"743 -432 OFFCURVE",
"895 -432 CURVE SMOOTH",
"929 -432 OFFCURVE",
"961 -430 OFFCURVE",
"989 -427 CURVE",
"989 -240 LINE"
);
}
);
width = 1388;
},
{
components = (
{
name = U;
}
);
layerId = "F6BDCC95-B00C-46EE-8A70-124DE74BF6E5";
paths = (
{
closed = 1;
nodes = (
"846 -319 OFFCURVE",
"813 -323 OFFCURVE",
"787 -323 CURVE SMOOTH",
"726 -323 OFFCURVE",
"685 -298 OFFCURVE",
"685 -239 CURVE SMOOTH",
"685 -164 OFFCURVE",
"797 -44 OFFCURVE",
"869 20 CURVE",
"771 20 LINE",
"688 -43 OFFCURVE",
"583 -160 OFFCURVE",
"583 -261 CURVE SMOOTH",
"583 -368 OFFCURVE",
"670 -412 OFFCURVE",
"776 -412 CURVE SMOOTH",
"808 -412 OFFCURVE",
"843 -409 OFFCURVE",
"869 -405 CURVE",
"869 -315 LINE"
);
}
);
width = 1295;
}
);
leftKerningGroup = U;
rightKerningGroup = U;
unicode = 0172;
},
{
glyphname = V;
lastChange = "2020-06-22 01:19:52 +0000";
layers = (
{
anchors = (
{
name = bottom;
position = "{566, 0}";
},
{
name = top;
position = "{566, 1475}";
}
);
layerId = "A1A0948C-E637-4A65-8CCC-05505AD98C44";
paths = (
{
closed = 1;
nodes = (
"587 -13 LINE",
"1019 1475 LINE",
"987 1475 LINE",
"565 15 LINE",
"574 15 LINE",
"147 1475 LINE",
"115 1475 LINE",
"553 -13 LINE"
);
}
);
width = 1134;
},
{
anchors = (
{
name = bottom;
position = "{686, 0}";
},
{
name = top;
position = "{686, 1475}";
}
);
layerId = "584F9D0D-8480-40C6-ABEA-8DD6EE64252D";
paths = (
{
closed = 1;
nodes = (
"988 0 LINE",
"1326 1475 LINE",
"879 1475 LINE",
"676 231 LINE",
"691 231 LINE",
"487 1475 LINE",
"40 1475 LINE",
"380 0 LINE"
);
}
);
width = 1366;
},
{
anchors = (
{
name = bottom;
position = "{602, 0}";
},
{
name = top;
position = "{602, 1475}";
}
);
layerId = "F6BDCC95-B00C-46EE-8A70-124DE74BF6E5";
paths = (
{
closed = 1;
nodes = (
"728 -8 LINE",
"1125 1475 LINE",
"937 1475 LINE",
"597 126 LINE",
"609 126 LINE",
"265 1475 LINE",
"78 1475 LINE",
"479 -8 LINE"
);
}
);
width = 1203;
}
);
leftKerningGroup = V;
leftMetricsKey = A;
note = V;
rightKerningGroup = V;
rightMetricsKey = A;
unicode = 0056;
},
{
glyphname = W;
lastChange = "2020-06-22 01:19:52 +0000";
layers = (
{
anchors = (
{
name = bottom;
position = "{798, 0}";
},
{
name = top;
position = "{800, 1475}";
}
);
layerId = "A1A0948C-E637-4A65-8CCC-05505AD98C44";
paths = (
{
closed = 1;
nodes = (
"440 0 LINE",
"798 1434 LINE",
"790 1434 LINE",
"1147 0 LINE",
"1182 0 LINE",
"1474 1475 LINE",
"1441 1475 LINE",
"1161 31 LINE",
"1168 31 LINE",
"811 1475 LINE",
"777 1475 LINE",
"419 31 LINE",
"427 31 LINE",
"148 1475 LINE",
"115 1475 LINE",
"405 0 LINE"
);
}
);
width = 1589;
},
{
anchors = (
{
name = bottom;
position = "{1002, 0}";
},
{
name = top;
position = "{1002, 1475}";
}
);
layerId = "584F9D0D-8480-40C6-ABEA-8DD6EE64252D";
paths = (
{
closed = 1;
nodes = (
"882 0 LINE",
"1020 1213 LINE",
"980 1213 LINE",
"1117 0 LINE",
"1734 0 LINE",
"1938 1475 LINE",
"1523 1475 LINE",
"1395 63 LINE",
"1452 66 LINE",
"1246 1475 LINE",
"753 1475 LINE",
"546 66 LINE",
"603 63 LINE",
"475 1475 LINE",
"60 1475 LINE",
"264 0 LINE"
);
}
);
width = 1998;
},
{
anchors = (
{
name = bottom;
position = "{865, 0}";
},
{
name = top;
position = "{866, 1475}";
}
);
layerId = "F6BDCC95-B00C-46EE-8A70-124DE74BF6E5";
paths = (
{
closed = 1;
nodes = (
"583 0 LINE",
"872 1331 LINE",
"852 1331 LINE",
"1140 0 LINE",
"1403 0 LINE",
"1639 1475 LINE",
"1462 1475 LINE",
"1263 73 LINE",
"1289 74 LINE",
"975 1475 LINE",
"749 1475 LINE",
"434 74 LINE",
"460 73 LINE",
"261 1475 LINE",
"85 1475 LINE",
"319 0 LINE"
);
}
);
width = 1724;
}
);
leftKerningGroup = V;
note = W;
rightKerningGroup = V;
unicode = 0057;
},
{
glyphname = X;
lastChange = "2020-06-22 01:19:52 +0000";
layers = (
{
anchors = (
{
name = bottom;
position = "{541, 0}";
},
{
name = top;
position = "{541, 1475}";
}
);
layerId = "A1A0948C-E637-4A65-8CCC-05505AD98C44";
paths = (
{
closed = 1;
nodes = (
"85 0 LINE",
"119 0 LINE",
"546 717 LINE",
"533 717 LINE",
"960 0 LINE",
"994 0 LINE",
"552 743 LINE",
"552 717 LINE",
"979 1475 LINE",
"945 1475 LINE",
"533 743 LINE",
"546 743 LINE",
"131 1475 LINE",
"97 1475 LINE",
"527 717 LINE",
"527 743 LINE"
);
}
);
width = 1079;
},
{
anchors = (
{
name = bottom;
position = "{708, 0}";
},
{
name = top;
position = "{708, 1475}";
}
);
layerId = "584F9D0D-8480-40C6-ABEA-8DD6EE64252D";
paths = (
{
closed = 1;
nodes = (
"36 0 LINE",
"489 0 LINE",
"778 625 LINE",
"638 625 LINE",
"927 0 LINE",
"1381 0 LINE",
"886 892 LINE",
"889 566 LINE",
"1367 1475 LINE",
"913 1475 LINE",
"645 833 LINE",
"772 833 LINE",
"501 1475 LINE",
"48 1475 LINE",
"530 566 LINE",
"534 892 LINE"
);
}
);
width = 1418;
},
{
anchors = (
{
name = bottom;
position = "{594, 0}";
},
{
name = top;
position = "{594, 1475}";
}
);
layerId = "F6BDCC95-B00C-46EE-8A70-124DE74BF6E5";
paths = (
{
closed = 1;
nodes = (
"57 0 LINE",
"248 0 LINE",
"654 683 LINE",
"533 683 LINE",
"938 0 LINE",
"1130 0 LINE",
"648 799 LINE",
"649 660 LINE",
"1115 1475 LINE",
"924 1475 LINE",
"536 777 LINE",
"651 777 LINE",
"260 1475 LINE",
"69 1475 LINE",
"539 660 LINE",
"540 799 LINE"
);
}
);
width = 1187;
}
);
leftKerningGroup = X;
note = X;
rightKerningGroup = X;
unicode = 0058;
},
{
glyphname = Y;
lastChange = "2020-06-22 01:19:52 +0000";
layers = (
{
anchors = (
{
name = bottom;
position = "{516, 0}";
},
{
name = top;
position = "{516, 1475}";
},
{
name = topleft;
position = "{70, 1475}";
}
);
layerId = "A1A0948C-E637-4A65-8CCC-05505AD98C44";
paths = (
{
closed = 1;
nodes = (
"885 1475 LINE",
"510 544 LINE",
"523 544 LINE",
"148 1475 LINE",
"115 1475 LINE",
"501 517 LINE",
"501 0 LINE",
"532 0 LINE",
"532 517 LINE",
"918 1475 LINE"
);
}
);
width = 1033;
},
{
anchors = (
{
name = bottom;
position = "{679, 0}";
},
{
name = top;
position = "{679, 1475}";
},
{
name = topleft;
position = "{16, 1475}";
}
);
layerId = "584F9D0D-8480-40C6-ABEA-8DD6EE64252D";
paths = (
{
closed = 1;
nodes = (
"887 1475 LINE",
"598 692 LINE",
"756 692 LINE",
"467 1475 LINE",
"40 1475 LINE",
"475 505 LINE",
"475 0 LINE",
"877 0 LINE",
"877 505 LINE",
"1315 1475 LINE"
);
}
);
width = 1355;
},
{
anchors = (
{
name = bottom;
position = "{575, 0}";
},
{
name = top;
position = "{575, 1475}";
},
{
name = topleft;
position = "{48, 1475}";
}
);
layerId = "F6BDCC95-B00C-46EE-8A70-124DE74BF6E5";
paths = (
{
closed = 1;
nodes = (
"891 1475 LINE",
"539 620 LINE",
"611 620 LINE",
"258 1475 LINE",
"78 1475 LINE",
"489 513 LINE",
"489 0 LINE",
"660 0 LINE",
"660 513 LINE",
"1073 1475 LINE"
);
}
);
width = 1151;
}
);
leftKerningGroup = Y;
leftMetricsKey = V;
note = Y;
rightKerningGroup = Y;
rightMetricsKey = V;
unicode = 0059;
},
{
glyphname = Z;
lastChange = "2020-06-22 01:19:52 +0000";
layers = (
{
anchors = (
{
name = bottom;
position = "{531, 11}";
},
{
name = center;
position = "{531, 738}";
},
{
name = top;
position = "{531, 1475}";
}
);
layerId = "A1A0948C-E637-4A65-8CCC-05505AD98C44";
paths = (
{
closed = 1;
nodes = (
"172 31 LINE",
"932 1449 LINE",
"932 1475 LINE",
"181 1475 LINE",
"181 1447 LINE",
"899 1447 LINE",
"898 1448 LINE",
"135 28 LINE",
"135 0 LINE",
"922 0 LINE",
"922 28 LINE",
"172 28 LINE"
);
}
);
width = 1067;
},
{
anchors = (
{
name = bottom;
position = "{613, 0}";
},
{
name = center;
position = "{613, 738}";
},
{
name = top;
position = "{613, 1475}";
}
);
layerId = "584F9D0D-8480-40C6-ABEA-8DD6EE64252D";
paths = (
{
closed = 1;
nodes = (
"528 303 LINE",
"1135 1221 LINE",
"1135 1475 LINE",
"122 1475 LINE",
"122 1175 LINE",
"688 1175 LINE",
"686 1177 LINE",
"77 257 LINE",
"77 0 LINE",
"1126 0 LINE",
"1126 301 LINE",
"528 301 LINE"
);
}
);
width = 1212;
},
{
anchors = (
{
name = bottom;
position = "{552, 7}";
},
{
name = center;
position = "{552, 738}";
},
{
name = top;
position = "{552, 1475}";
}
);
layerId = "F6BDCC95-B00C-46EE-8A70-124DE74BF6E5";
paths = (
{
closed = 1;
nodes = (
"296 153 LINE",
"999 1344 LINE",
"999 1475 LINE",
"150 1475 LINE",
"150 1325 LINE",
"811 1325 LINE",
"809 1326 LINE",
"104 134 LINE",
"104 0 LINE",
"989 0 LINE",
"989 150 LINE",
"296 150 LINE"
);
}
);
width = 1103;
}
);
leftKerningGroup = Z;
note = Z;
rightKerningGroup = Z;
unicode = 005A;
},
{
glyphname = a;
lastChange = "2020-06-23 18:55:16 +0000";
layers = (
{
anchors = (
{
name = bottom;
position = "{597, 0}";
},
{
name = ogonek;
position = "{1058, 0}";
},
{
name = top;
position = "{602, 1062}";
}
);
layerId = "A1A0948C-E637-4A65-8CCC-05505AD98C44";
paths = (
{
closed = 1;
nodes = (
"756 -17 OFFCURVE",
"928 74 OFFCURVE",
"992 213 CURVE",
"988 220 LINE",
"988 133 OFFCURVE",
"989 100 OFFCURVE",
"1002 55 CURVE SMOOTH",
"1011 24 OFFCURVE",
"1022 4 OFFCURVE",
"1027 0 CURVE",
"1058 0 LINE",
"1052 7 OFFCURVE",
"1042 24 OFFCURVE",
"1031 58 CURVE SMOOTH",
"1023 84 OFFCURVE",
"1019 123 OFFCURVE",
"1019 164 CURVE SMOOTH",
"1019 681 LINE SMOOTH",
"1019 708 OFFCURVE",
"1019 736 OFFCURVE",
"1019 763 CURVE SMOOTH",
"1019 958 OFFCURVE",
"841 1075 OFFCURVE",
"602 1075 CURVE SMOOTH",
"333 1075 OFFCURVE",
"167 939 OFFCURVE",
"167 721 CURVE",
"198 721 LINE",
"198 921 OFFCURVE",
"350 1047 OFFCURVE",
"602 1047 CURVE SMOOTH",
"845 1047 OFFCURVE",
"988 929 OFFCURVE",
"988 763 CURVE SMOOTH",
"988 751 OFFCURVE",
"988 738 OFFCURVE",
"988 726 CURVE SMOOTH",
"988 653 OFFCURVE",
"861 626 OFFCURVE",
"572 597 CURVE SMOOTH",
"300 570 OFFCURVE",
"153 481 OFFCURVE",
"153 290 CURVE SMOOTH",
"153 89 OFFCURVE",
"305 -17 OFFCURVE",
"558 -17 CURVE SMOOTH"
);
},
{
closed = 1;
nodes = (
"322 11 OFFCURVE",
"184 113 OFFCURVE",
"184 288 CURVE SMOOTH",
"184 467 OFFCURVE",
"326 543 OFFCURVE",
"584 568 CURVE SMOOTH",
"774 586 OFFCURVE",
"932 611 OFFCURVE",
"992 661 CURVE",
"988 672 LINE",
"988 348 LINE SMOOTH",
"988 149 OFFCURVE",
"796 11 OFFCURVE",
"561 11 CURVE SMOOTH"
);
}
);
width = 1193;
},
{
anchors = (
{
name = bottom;
position = "{608, 0}";
},
{
name = ogonek;
position = "{1263, 0}";
},
{
name = top;
position = "{647, 1062}";
}
);
background = {
paths = (
{
closed = 1;
nodes = (
"1248 13 OFFCURVE",
"1220 50 OFFCURVE",
"1205 100 CURVE SMOOTH",
"1191 146 OFFCURVE",
"1191 202 OFFCURVE",
"1191 261 CURVE SMOOTH",
"1191 590 LINE SMOOTH",
"1191 620 OFFCURVE",
"1191 648 OFFCURVE",
"1191 674 CURVE SMOOTH",
"1191 956 OFFCURVE",
"920 1084 OFFCURVE",
"627 1084 CURVE SMOOTH",
"317 1084 OFFCURVE",
"69 943 OFFCURVE",
"69 675 CURVE",
"466 675 LINE",
"466 749 OFFCURVE",
"517 790 OFFCURVE",
"624 790 CURVE SMOOTH",
"723 790 OFFCURVE",
"787 749 OFFCURVE",
"787 700 CURVE SMOOTH",
"787 695 OFFCURVE",
"787 689 OFFCURVE",
"787 684 CURVE SMOOTH",
"787 249 LINE SMOOTH",
"787 210 OFFCURVE",
"799 131 OFFCURVE",
"815 88 CURVE SMOOTH",
"830 47 OFFCURVE",
"857 12 OFFCURVE",
"869 0 CURVE",
"1263 0 LINE"
);
},
{
closed = 1;
nodes = (
"690 -24 OFFCURVE",
"903 83 OFFCURVE",
"903 325 CURVE",
"794 508 LINE",
"794 323 OFFCURVE",
"676 262 OFFCURVE",
"573 262 CURVE SMOOTH",
"501 262 OFFCURVE",
"459 283 OFFCURVE",
"459 328 CURVE SMOOTH",
"459 373 OFFCURVE",
"503 389 OFFCURVE",
"595 400 CURVE SMOOTH",
"752 418 OFFCURVE",
"955 454 OFFCURVE",
"1000 545 CURVE",
"787 699 LINE",
"787 662 OFFCURVE",
"728 654 OFFCURVE",
"514 634 CURVE SMOOTH",
"288 613 OFFCURVE",
"55 523 OFFCURVE",
"55 288 CURVE SMOOTH",
"55 88 OFFCURVE",
"225 -24 OFFCURVE",
"453 -24 CURVE SMOOTH"
);
}
);
};
layerId = "584F9D0D-8480-40C6-ABEA-8DD6EE64252D";
paths = (
{
closed = 1;
nodes = (
"639 -24 OFFCURVE",
"820 61 OFFCURVE",
"875 208 CURVE",
"787 269 LINE",
"787 193 OFFCURVE",
"795 148 OFFCURVE",
"815 88 CURVE SMOOTH",
"829 47 OFFCURVE",
"857 12 OFFCURVE",
"869 0 CURVE",
"1263 0 LINE",
"1248 13 OFFCURVE",
"1220 50 OFFCURVE",
"1205 100 CURVE SMOOTH",
"1191 146 OFFCURVE",
"1191 202 OFFCURVE",
"1191 261 CURVE SMOOTH",
"1191 590 LINE SMOOTH",
"1191 618 OFFCURVE",
"1191 646 OFFCURVE",
"1191 674 CURVE SMOOTH",
"1191 956 OFFCURVE",
"920 1084 OFFCURVE",
"627 1084 CURVE SMOOTH",
"317 1084 OFFCURVE",
"69 943 OFFCURVE",
"69 675 CURVE",
"466 675 LINE",
"466 749 OFFCURVE",
"517 790 OFFCURVE",
"624 790 CURVE SMOOTH",
"723 790 OFFCURVE",
"787 749 OFFCURVE",
"787 700 CURVE SMOOTH",
"787 700 OFFCURVE",
"787 699 OFFCURVE",
"787 699 CURVE SMOOTH",
"787 662 OFFCURVE",
"728 654 OFFCURVE",
"514 634 CURVE SMOOTH",
"288 613 OFFCURVE",
"55 523 OFFCURVE",
"55 288 CURVE SMOOTH",
"55 88 OFFCURVE",
"225 -24 OFFCURVE",
"453 -24 CURVE SMOOTH"
);
},
{
closed = 1;
nodes = (
"501 262 OFFCURVE",
"459 283 OFFCURVE",
"459 328 CURVE SMOOTH",
"459 373 OFFCURVE",
"503 390 OFFCURVE",
"595 400 CURVE SMOOTH",
"694 411 OFFCURVE",
"809 431 OFFCURVE",
"897 462 CURVE",
"794 545 LINE",
"794 507 LINE SMOOTH",
"794 323 OFFCURVE",
"676 262 OFFCURVE",
"573 262 CURVE SMOOTH"
);
}
);
width = 1281;
},
{
anchors = (
{
name = bottom;
position = "{607, 0}";
},
{
name = ogonek;
position = "{1140, 0}";
},
{
name = top;
position = "{637, 1062}";
}
);
layerId = "F6BDCC95-B00C-46EE-8A70-124DE74BF6E5";
paths = (
{
closed = 1;
nodes = (
"735 -20 OFFCURVE",
"886 54 OFFCURVE",
"948 162 CURVE",
"920 181 LINE",
"920 137 OFFCURVE",
"925 94 OFFCURVE",
"935 67 CURVE SMOOTH",
"947 34 OFFCURVE",
"962 7 OFFCURVE",
"969 0 CURVE",
"1140 0 LINE",
"1131 9 OFFCURVE",
"1114 34 OFFCURVE",
"1102 74 CURVE SMOOTH",
"1092 107 OFFCURVE",
"1089 153 OFFCURVE",
"1089 200 CURVE SMOOTH",
"1089 647 LINE SMOOTH",
"1089 675 OFFCURVE",
"1089 702 OFFCURVE",
"1089 730 CURVE SMOOTH",
"1089 957 OFFCURVE",
"886 1078 OFFCURVE",
"627 1078 CURVE SMOOTH",
"343 1078 OFFCURVE",
"146 941 OFFCURVE",
"146 704 CURVE",
"314 704 LINE",
"314 857 OFFCURVE",
"428 922 OFFCURVE",
"626 922 CURVE SMOOTH",
"815 922 OFFCURVE",
"918 862 OFFCURVE",
"918 739 CURVE SMOOTH",
"918 738 OFFCURVE",
"918 737 OFFCURVE",
"918 736 CURVE SMOOTH",
"918 677 OFFCURVE",
"817 659 OFFCURVE",
"556 633 CURVE SMOOTH",
"295 607 OFFCURVE",
"122 507 OFFCURVE",
"122 299 CURVE SMOOTH",
"122 99 OFFCURVE",
"281 -20 OFFCURVE",
"524 -20 CURVE SMOOTH"
);
},
{
closed = 1;
nodes = (
"375 133 OFFCURVE",
"293 193 OFFCURVE",
"293 309 CURVE SMOOTH",
"293 432 OFFCURVE",
"395 474 OFFCURVE",
"597 493 CURVE SMOOTH",
"735 506 OFFCURVE",
"870 525 OFFCURVE",
"956 559 CURVE",
"918 623 LINE",
"918 412 LINE SMOOTH",
"918 228 OFFCURVE",
"757 133 OFFCURVE",
"551 133 CURVE SMOOTH"
);
}
);
width = 1218;
}
);
leftKerningGroup = o;
leftMetricsKey = "=o+10";
note = a;
rightKerningGroup = n;
unicode = 0061;
},
{
color = 3;
glyphname = a.ss01;
lastChange = "2020-06-22 23:49:44 +0000";
layers = (
{
anchors = (
{
name = bottom;
position = "{651, 0}";
},
{
name = ogonek;
position = "{1077, 0}";
},
{
name = top;
position = "{657, 1062}";
}
);
layerId = "A1A0948C-E637-4A65-8CCC-05505AD98C44";
paths = (
{
closed = 1;
nodes = (
"897 -17 OFFCURVE",
"1075 166 OFFCURVE",
"1075 383 CURVE",
"1046 383 LINE",
"1046 186 OFFCURVE",
"880 11 OFFCURVE",
"641 11 CURVE SMOOTH",
"399 11 OFFCURVE",
"174 204 OFFCURVE",
"174 534 CURVE SMOOTH",
"174 862 OFFCURVE",
"399 1047 OFFCURVE",
"641 1047 CURVE SMOOTH",
"880 1047 OFFCURVE",
"1046 872 OFFCURVE",
"1046 675 CURVE SMOOTH",
"1046 669 OFFCURVE",
"1046 661 OFFCURVE",
"1046 655 CURVE",
"1075 655 LINE",
"1075 661 OFFCURVE",
"1075 669 OFFCURVE",
"1075 675 CURVE SMOOTH",
"1075 892 OFFCURVE",
"897 1075 OFFCURVE",
"641 1075 CURVE SMOOTH",
"381 1075 OFFCURVE",
"143 881 OFFCURVE",
"143 534 CURVE SMOOTH",
"143 177 OFFCURVE",
"382 -17 OFFCURVE",
"641 -17 CURVE SMOOTH"
);
},
{
closed = 1;
nodes = (
"1077 1062 LINE",
"1046 1062 LINE",
"1046 0 LINE",
"1077 0 LINE"
);
}
);
width = 1272;
},
{
anchors = (
{
name = bottom;
position = "{676, 0}";
},
{
name = ogonek;
position = "{1274, 0}";
},
{
name = top;
position = "{673, 1062}";
}
);
layerId = "584F9D0D-8480-40C6-ABEA-8DD6EE64252D";
paths = (
{
closed = 1;
nodes = (
"792 -26 OFFCURVE",
"1013 164 OFFCURVE",
"1013 479 CURVE",
"871 499 LINE",
"871 366 OFFCURVE",
"772 308 OFFCURVE",
"676 308 CURVE SMOOTH",
"575 308 OFFCURVE",
"471 377 OFFCURVE",
"471 534 CURVE SMOOTH",
"471 691 OFFCURVE",
"575 751 OFFCURVE",
"676 751 CURVE SMOOTH",
"770 751 OFFCURVE",
"871 698 OFFCURVE",
"871 565 CURVE SMOOTH",
"871 561 OFFCURVE",
"871 558 OFFCURVE",
"871 554 CURVE",
"1013 552 LINE",
"1013 560 OFFCURVE",
"1013 567 OFFCURVE",
"1013 575 CURVE SMOOTH",
"1013 877 OFFCURVE",
"792 1084 OFFCURVE",
"547 1084 CURVE SMOOTH",
"290 1084 OFFCURVE",
"45 891 OFFCURVE",
"45 539 CURVE SMOOTH",
"45 167 OFFCURVE",
"280 -26 OFFCURVE",
"547 -26 CURVE SMOOTH"
);
},
{
closed = 1;
nodes = (
"1274 1062 LINE",
"871 1062 LINE",
"871 0 LINE",
"1274 0 LINE"
);
}
);
width = 1364;
},
{
anchors = (
{
name = bottom;
position = "{654, 0}";
},
{
name = ogonek;
position = "{1149, 0}";
},
{
name = top;
position = "{651, 1062}";
}
);
layerId = "F6BDCC95-B00C-46EE-8A70-124DE74BF6E5";
paths = (
{
closed = 1;
nodes = (
"882 -20 OFFCURVE",
"1088 137 OFFCURVE",
"1088 461 CURVE",
"978 468 LINE",
"978 255 OFFCURVE",
"825 134 OFFCURVE",
"652 134 CURVE SMOOTH",
"463 134 OFFCURVE",
"291 251 OFFCURVE",
"291 536 CURVE SMOOTH",
"291 820 OFFCURVE",
"463 924 OFFCURVE",
"652 924 CURVE SMOOTH",
"824 924 OFFCURVE",
"978 809 OFFCURVE",
"978 596 CURVE SMOOTH",
"978 592 OFFCURVE",
"978 589 OFFCURVE",
"978 585 CURVE",
"1088 585 LINE",
"1088 589 OFFCURVE",
"1088 595 OFFCURVE",
"1088 599 CURVE SMOOTH",
"1088 918 OFFCURVE",
"882 1078 OFFCURVE",
"633 1078 CURVE SMOOTH",
"374 1078 OFFCURVE",
"112 905 OFFCURVE",
"112 536 CURVE SMOOTH",
"112 153 OFFCURVE",
"371 -20 OFFCURVE",
"633 -20 CURVE SMOOTH"
);
},
{
closed = 1;
nodes = (
"1149 1062 LINE",
"978 1062 LINE",
"978 0 LINE",
"1149 0 LINE"
);
}
);
width = 1292;
}
);
leftKerningGroup = o;
leftMetricsKey = o;
rightKerningGroup = i;
rightMetricsKey = u;
},
{
glyphname = ae;
lastChange = "2020-06-22 23:49:44 +0000";
layers = (
{
anchors = (
{
name = bottom;
position = "{1095, 0}";
},
{
name = top;
position = "{1095, 1062}";
}
);
layerId = "A1A0948C-E637-4A65-8CCC-05505AD98C44";
paths = (
{
closed = 1;
nodes = (
"805 -16 OFFCURVE",
"1024 85 OFFCURVE",
"1070 391 CURVE",
"1066 389 LINE",
"1120 143 OFFCURVE",
"1313 -17 OFFCURVE",
"1555 -17 CURVE SMOOTH",
"1854 -17 OFFCURVE",
"2003 202 OFFCURVE",
"2014 332 CURVE",
"1983 332 LINE",
"1971 220 OFFCURVE",
"1839 11 OFFCURVE",
"1555 11 CURVE SMOOTH",
"1290 11 OFFCURVE",
"1088 227 OFFCURVE",
"1082 514 CURVE SMOOTH",
"1082 517 OFFCURVE",
"1082 519 OFFCURVE",
"1082 522 CURVE",
"1068 512 LINE",
"2030 512 LINE",
"2030 523 OFFCURVE",
"2030 533 OFFCURVE",
"2030 544 CURVE SMOOTH",
"2030 828 OFFCURVE",
"1845 1075 OFFCURVE",
"1556 1075 CURVE SMOOTH",
"1327 1075 OFFCURVE",
"1143 931 OFFCURVE",
"1077 711 CURVE",
"1080 709 LINE",
"1080 712 OFFCURVE",
"1080 715 OFFCURVE",
"1080 717 CURVE SMOOTH",
"1073 964 OFFCURVE",
"900 1075 OFFCURVE",
"662 1075 CURVE SMOOTH",
"393 1075 OFFCURVE",
"197 942 OFFCURVE",
"197 721 CURVE",
"230 721 LINE",
"230 921 OFFCURVE",
"412 1047 OFFCURVE",
"662 1047 CURVE SMOOTH",
"905 1047 OFFCURVE",
"1048 923 OFFCURVE",
"1048 703 CURVE SMOOTH",
"1048 693 OFFCURVE",
"1048 682 OFFCURVE",
"1048 672 CURVE SMOOTH",
"1048 599 OFFCURVE",
"973 597 OFFCURVE",
"612 597 CURVE SMOOTH",
"328 597 OFFCURVE",
"153 521 OFFCURVE",
"153 310 CURVE SMOOTH",
"153 109 OFFCURVE",
"322 -16 OFFCURVE",
"568 -16 CURVE SMOOTH"
);
},
{
closed = 1;
nodes = (
"339 12 OFFCURVE",
"186 131 OFFCURVE",
"186 308 CURVE SMOOTH",
"186 507 OFFCURVE",
"355 569 OFFCURVE",
"624 569 CURVE SMOOTH",
"858 569 OFFCURVE",
"996 570 OFFCURVE",
"1052 605 CURVE",
"1048 617 LINE",
"1048 592 OFFCURVE",
"1048 567 OFFCURVE",
"1048 542 CURVE SMOOTH",
"1048 114 OFFCURVE",
"813 12 OFFCURVE",
"571 12 CURVE SMOOTH"
);
},
{
closed = 1;
nodes = (
"1088 819 OFFCURVE",
"1285 1047 OFFCURVE",
"1556 1047 CURVE SMOOTH",
"1827 1047 OFFCURVE",
"1999 806 OFFCURVE",
"1999 554 CURVE SMOOTH",
"1999 549 OFFCURVE",
"1999 545 OFFCURVE",
"1999 540 CURVE",
"1082 540 LINE"
);
}
);
width = 2173;
},
{
anchors = (
{
name = bottom;
position = "{1028, 0}";
},
{
name = top;
position = "{1075, 1062}";
}
);
layerId = "584F9D0D-8480-40C6-ABEA-8DD6EE64252D";
paths = (
{
closed = 1;
nodes = (
"778 -26 OFFCURVE",
"1015 41 OFFCURVE",
"1079 234 CURVE",
"953 215 LINE",
"1053 66 OFFCURVE",
"1234 -26 OFFCURVE",
"1471 -26 CURVE SMOOTH",
"1832 -26 OFFCURVE",
"2046 148 OFFCURVE",
"2066 336 CURVE",
"1668 336 LINE",
"1663 303 OFFCURVE",
"1611 262 OFFCURVE",
"1482 262 CURVE SMOOTH",
"1323 262 OFFCURVE",
"1267 345 OFFCURVE",
"1253 477 CURVE SMOOTH",
"1250 503 OFFCURVE",
"1249 531 OFFCURVE",
"1249 560 CURVE",
"1080 421 LINE",
"2076 421 LINE",
"2078 438 OFFCURVE",
"2080 466 OFFCURVE",
"2080 506 CURVE SMOOTH",
"2080 861 OFFCURVE",
"1847 1084 OFFCURVE",
"1471 1084 CURVE SMOOTH",
"1266 1084 OFFCURVE",
"1100 1014 OFFCURVE",
"993 894 CURVE",
"1151 890 LINE",
"1132 915 OFFCURVE",
"1110 937 OFFCURVE",
"1085 958 CURVE SMOOTH",
"982 1042 OFFCURVE",
"835 1084 OFFCURVE",
"677 1084 CURVE SMOOTH",
"367 1084 OFFCURVE",
"79 953 OFFCURVE",
"79 685 CURVE",
"476 685 LINE",
"476 759 OFFCURVE",
"567 790 OFFCURVE",
"674 790 CURVE SMOOTH",
"773 790 OFFCURVE",
"847 749 OFFCURVE",
"847 700 CURVE SMOOTH",
"847 697 OFFCURVE",
"847 693 OFFCURVE",
"847 690 CURVE SMOOTH",
"847 643 OFFCURVE",
"802 639 OFFCURVE",
"564 639 CURVE SMOOTH",
"308 639 OFFCURVE",
"55 573 OFFCURVE",
"55 338 CURVE SMOOTH",
"55 127 OFFCURVE",
"239 -26 OFFCURVE",
"576 -26 CURVE SMOOTH"
);
},
{
closed = 1;
nodes = (
"501 272 OFFCURVE",
"459 298 OFFCURVE",
"459 343 CURVE SMOOTH",
"459 388 OFFCURVE",
"502 420 OFFCURVE",
"611 420 CURVE SMOOTH",
"707 420 OFFCURVE",
"850 425 OFFCURVE",
"969 445 CURVE",
"855 555 LINE",
"855 543 OFFCURVE",
"855 532 OFFCURVE",
"855 520 CURVE SMOOTH",
"855 334 OFFCURVE",
"696 272 OFFCURVE",
"593 272 CURVE SMOOTH"
);
},
{
closed = 1;
nodes = (
"1296 748 OFFCURVE",
"1369 800 OFFCURVE",
"1476 800 CURVE SMOOTH",
"1602 800 OFFCURVE",
"1659 733 OFFCURVE",
"1672 671 CURVE SMOOTH",
"1674 664 OFFCURVE",
"1675 657 OFFCURVE",
"1675 651 CURVE",
"1266 651 LINE"
);
}
);
width = 2125;
},
{
anchors = (
{
name = bottom;
position = "{1086, 0}";
},
{
name = top;
position = "{1086, 1062}";
}
);
layerId = "F6BDCC95-B00C-46EE-8A70-124DE74BF6E5";
paths = (
{
closed = 1;
nodes = (
"774 -20 OFFCURVE",
"995 51 OFFCURVE",
"1076 264 CURVE",
"1028 257 LINE",
"1116 86 OFFCURVE",
"1291 -21 OFFCURVE",
"1510 -21 CURVE SMOOTH",
"1833 -21 OFFCURVE",
"2006 182 OFFCURVE",
"2020 334 CURVE",
"1852 334 LINE",
"1842 251 OFFCURVE",
"1740 125 OFFCURVE",
"1515 125 CURVE SMOOTH",
"1294 125 OFFCURVE",
"1152 264 OFFCURVE",
"1134 483 CURVE SMOOTH",
"1133 495 OFFCURVE",
"1132 509 OFFCURVE",
"1132 522 CURVE",
"1059 463 LINE",
"2034 463 LINE",
"2035 475 OFFCURVE",
"2036 509 OFFCURVE",
"2036 530 CURVE SMOOTH",
"2036 840 OFFCURVE",
"1833 1078 OFFCURVE",
"1511 1078 CURVE SMOOTH",
"1307 1078 OFFCURVE",
"1141 984 OFFCURVE",
"1047 832 CURVE",
"1095 828 LINE",
"1090 840 OFFCURVE",
"1085 852 OFFCURVE",
"1080 863 CURVE SMOOTH",
"1007 1008 OFFCURVE",
"842 1078 OFFCURVE",
"651 1078 CURVE SMOOTH",
"366 1078 OFFCURVE",
"146 942 OFFCURVE",
"146 704 CURVE",
"315 704 LINE",
"315 857 OFFCURVE",
"453 931 OFFCURVE",
"650 931 CURVE SMOOTH",
"839 931 OFFCURVE",
"966 858 OFFCURVE",
"966 702 CURVE SMOOTH",
"966 691 OFFCURVE",
"966 680 OFFCURVE",
"966 669 CURVE SMOOTH",
"966 606 OFFCURVE",
"879 605 OFFCURVE",
"587 605 CURVE SMOOTH",
"314 605 OFFCURVE",
"122 517 OFFCURVE",
"122 307 CURVE SMOOTH",
"122 102 OFFCURVE",
"300 -20 OFFCURVE",
"570 -20 CURVE SMOOTH"
);
},
{
closed = 1;
nodes = (
"420 130 OFFCURVE",
"294 188 OFFCURVE",
"294 315 CURVE SMOOTH",
"294 446 OFFCURVE",
"412 466 OFFCURVE",
"621 466 CURVE SMOOTH",
"778 466 OFFCURVE",
"917 471 OFFCURVE",
"1003 495 CURVE",
"969 569 LINE",
"969 558 OFFCURVE",
"969 546 OFFCURVE",
"969 535 CURVE SMOOTH",
"969 197 OFFCURVE",
"762 130 OFFCURVE",
"582 130 CURVE SMOOTH"
);
},
{
closed = 1;
nodes = (
"1169 808 OFFCURVE",
"1314 934 OFFCURVE",
"1513 934 CURVE SMOOTH",
"1713 934 OFFCURVE",
"1836 803 OFFCURVE",
"1860 647 CURVE SMOOTH",
"1862 634 OFFCURVE",
"1863 621 OFFCURVE",
"1863 615 CURVE",
"1139 615 LINE"
);
}
);
width = 2148;
}
);
leftKerningGroup = a;
leftMetricsKey = a;
rightKerningGroup = e;
rightMetricsKey = e;
unicode = 00E6;
},
{
glyphname = b;
lastChange = "2020-06-22 23:49:44 +0000";
layers = (
{
anchors = (
{
name = bottom;
position = "{639, 0}";
},
{
name = top;
position = "{630, 1563}";
}
);
layerId = "A1A0948C-E637-4A65-8CCC-05505AD98C44";
paths = (
{
closed = 1;
nodes = (
"895 -17 OFFCURVE",
"1070 181 OFFCURVE",
"1070 529 CURVE SMOOTH",
"1070 877 OFFCURVE",
"895 1075 OFFCURVE",
"636 1075 CURVE SMOOTH",
"396 1075 OFFCURVE",
"206 886 OFFCURVE",
"206 675 CURVE",
"236 675 LINE",
"236 872 OFFCURVE",
"420 1047 OFFCURVE",
"636 1047 CURVE SMOOTH",
"876 1047 OFFCURVE",
"1039 858 OFFCURVE",
"1039 529 CURVE SMOOTH",
"1039 200 OFFCURVE",
"876 11 OFFCURVE",
"636 11 CURVE SMOOTH",
"420 11 OFFCURVE",
"236 186 OFFCURVE",
"236 383 CURVE SMOOTH",
"236 385 OFFCURVE",
"236 388 OFFCURVE",
"236 390 CURVE",
"206 390 LINE",
"206 388 OFFCURVE",
"206 385 OFFCURVE",
"206 383 CURVE SMOOTH",
"206 172 OFFCURVE",
"396 -17 OFFCURVE",
"636 -17 CURVE SMOOTH"
);
},
{
closed = 1;
nodes = (
"236 0 LINE",
"236 1563 LINE",
"205 1563 LINE",
"205 0 LINE"
);
}
);
width = 1213;
},
{
anchors = (
{
name = bottom;
position = "{689, 0}";
},
{
name = top;
position = "{689, 1563}";
}
);
layerId = "584F9D0D-8480-40C6-ABEA-8DD6EE64252D";
paths = (
{
closed = 1;
nodes = (
"1085 -25 OFFCURVE",
"1320 166 OFFCURVE",
"1320 538 CURVE SMOOTH",
"1320 890 OFFCURVE",
"1075 1083 OFFCURVE",
"818 1083 CURVE SMOOTH",
"563 1083 OFFCURVE",
"362 866 OFFCURVE",
"362 571 CURVE",
"504 561 LINE",
"504 694 OFFCURVE",
"608 757 OFFCURVE",
"702 757 CURVE SMOOTH",
"804 757 OFFCURVE",
"904 695 OFFCURVE",
"904 538 CURVE SMOOTH",
"904 381 OFFCURVE",
"803 314 OFFCURVE",
"702 314 CURVE SMOOTH",
"606 314 OFFCURVE",
"504 382 OFFCURVE",
"504 515 CURVE SMOOTH",
"504 519 OFFCURVE",
"504 524 OFFCURVE",
"504 528 CURVE",
"362 525 LINE",
"362 518 OFFCURVE",
"362 512 OFFCURVE",
"362 505 CURVE SMOOTH",
"362 210 OFFCURVE",
"563 -25 OFFCURVE",
"818 -25 CURVE SMOOTH"
);
},
{
closed = 1;
nodes = (
"504 0 LINE",
"504 1563 LINE",
"100 1563 LINE",
"100 0 LINE"
);
}
);
width = 1365;
},
{
anchors = (
{
name = bottom;
position = "{645, 0}";
},
{
name = top;
position = "{640, 1563}";
}
);
layerId = "F6BDCC95-B00C-46EE-8A70-124DE74BF6E5";
paths = (
{
closed = 1;
nodes = (
"934 -20 OFFCURVE",
"1151 175 OFFCURVE",
"1151 532 CURVE SMOOTH",
"1151 882 OFFCURVE",
"930 1078 OFFCURVE",
"672 1078 CURVE SMOOTH",
"426 1078 OFFCURVE",
"202 889 OFFCURVE",
"202 616 CURVE",
"324 612 LINE",
"324 785 OFFCURVE",
"478 922 OFFCURVE",
"648 922 CURVE SMOOTH",
"837 922 OFFCURVE",
"976 797 OFFCURVE",
"976 532 CURVE SMOOTH",
"976 268 OFFCURVE",
"836 141 OFFCURVE",
"648 141 CURVE SMOOTH",
"477 141 OFFCURVE",
"324 280 OFFCURVE",
"324 453 CURVE SMOOTH",
"324 455 OFFCURVE",
"324 459 OFFCURVE",
"324 462 CURVE",
"202 459 LINE",
"202 455 OFFCURVE",
"202 453 OFFCURVE",
"202 449 CURVE SMOOTH",
"202 176 OFFCURVE",
"426 -20 OFFCURVE",
"672 -20 CURVE SMOOTH"
);
},
{
closed = 1;
nodes = (
"324 0 LINE",
"324 1563 LINE",
"153 1563 LINE",
"153 0 LINE"
);
}
);
width = 1263;
}
);
leftKerningGroup = h;
leftMetricsKey = h;
note = b;
rightKerningGroup = o;
rightMetricsKey = o;
unicode = 0062;
},
{
glyphname = c;
lastChange = "2020-06-22 23:49:44 +0000";
layers = (
{
anchors = (
{
name = bottom;
position = "{648, 0}";
},
{
name = top;
position = "{633, 1062}";
}
);
layerId = "A1A0948C-E637-4A65-8CCC-05505AD98C44";
paths = (
{
closed = 1;
nodes = (
"945 -17 OFFCURVE",
"1092 170 OFFCURVE",
"1092 325 CURVE",
"1061 325 LINE",
"1061 183 OFFCURVE",
"928 11 OFFCURVE",
"650 11 CURVE SMOOTH",
"403 11 OFFCURVE",
"174 193 OFFCURVE",
"174 529 CURVE SMOOTH",
"174 865 OFFCURVE",
"404 1047 OFFCURVE",
"650 1047 CURVE SMOOTH",
"865 1047 OFFCURVE",
"1035 915 OFFCURVE",
"1060 750 CURVE SMOOTH",
"1061 743 OFFCURVE",
"1061 734 OFFCURVE",
"1061 727 CURVE",
"1092 727 LINE",
"1092 729 OFFCURVE",
"1092 731 OFFCURVE",
"1092 733 CURVE SMOOTH",
"1092 878 OFFCURVE",
"927 1075 OFFCURVE",
"650 1075 CURVE SMOOTH",
"385 1075 OFFCURVE",
"143 882 OFFCURVE",
"143 529 CURVE SMOOTH",
"143 176 OFFCURVE",
"385 -17 OFFCURVE",
"650 -17 CURVE SMOOTH"
);
}
);
width = 1235;
},
{
anchors = (
{
name = bottom;
position = "{652, 0}";
},
{
name = top;
position = "{637, 1062}";
}
);
layerId = "584F9D0D-8480-40C6-ABEA-8DD6EE64252D";
paths = (
{
closed = 1;
nodes = (
"1032 -26 OFFCURVE",
"1227 220 OFFCURVE",
"1227 424 CURVE",
"827 424 LINE",
"816 344 OFFCURVE",
"771 285 OFFCURVE",
"652 285 CURVE SMOOTH",
"530 285 OFFCURVE",
"454 389 OFFCURVE",
"454 536 CURVE SMOOTH",
"454 685 OFFCURVE",
"530 773 OFFCURVE",
"652 773 CURVE SMOOTH",
"775 773 OFFCURVE",
"809 704 OFFCURVE",
"825 652 CURVE SMOOTH",
"827 645 OFFCURVE",
"828 639 OFFCURVE",
"828 631 CURVE",
"1227 631 LINE",
"1227 634 OFFCURVE",
"1227 637 OFFCURVE",
"1227 640 CURVE SMOOTH",
"1227 844 OFFCURVE",
"1032 1084 OFFCURVE",
"656 1084 CURVE SMOOTH",
"273 1084 OFFCURVE",
"45 861 OFFCURVE",
"45 536 CURVE SMOOTH",
"45 211 OFFCURVE",
"273 -26 OFFCURVE",
"656 -26 CURVE SMOOTH"
);
}
);
width = 1272;
},
{
anchors = (
{
name = bottom;
position = "{655, 0}";
},
{
name = top;
position = "{640, 1062}";
}
);
layerId = "F6BDCC95-B00C-46EE-8A70-124DE74BF6E5";
paths = (
{
closed = 1;
nodes = (
"976 -20 OFFCURVE",
"1148 189 OFFCURVE",
"1148 382 CURVE",
"979 382 LINE",
"971 251 OFFCURVE",
"872 136 OFFCURVE",
"656 136 CURVE SMOOTH",
"456 136 OFFCURVE",
"285 270 OFFCURVE",
"285 532 CURVE SMOOTH",
"285 795 OFFCURVE",
"457 922 OFFCURVE",
"656 922 CURVE SMOOTH",
"832 922 OFFCURVE",
"959 829 OFFCURVE",
"976 696 CURVE SMOOTH",
"977 687 OFFCURVE",
"979 678 OFFCURVE",
"979 671 CURVE",
"1148 671 LINE",
"1148 673 OFFCURVE",
"1148 676 OFFCURVE",
"1148 678 CURVE SMOOTH",
"1148 865 OFFCURVE",
"965 1078 OFFCURVE",
"657 1078 CURVE SMOOTH",
"352 1078 OFFCURVE",
"112 874 OFFCURVE",
"112 532 CURVE SMOOTH",
"112 189 OFFCURVE",
"352 -20 OFFCURVE",
"657 -20 CURVE SMOOTH"
);
}
);
width = 1260;
}
);
leftKerningGroup = o;
leftMetricsKey = o;
note = c;
rightKerningGroup = o;
rightMetricsKey = o;
unicode = 0063;
},
{
glyphname = ccedilla;
lastChange = "2020-06-22 23:49:44 +0000";
layers = (
{
components = (
{
name = c;
}
);
layerId = "A1A0948C-E637-4A65-8CCC-05505AD98C44";
paths = (
{
closed = 1;
nodes = (
"658 -143 OFFCURVE",
"610 -160 OFFCURVE",
"599 -185 CURVE",
"600 -195 LINE",
"664 0 LINE",
"634 0 LINE",
"568 -199 LINE",
"597 -212 LINE",
"618 -188 OFFCURVE",
"663 -171 OFFCURVE",
"699 -171 CURVE SMOOTH",
"756 -171 OFFCURVE",
"793 -201 OFFCURVE",
"793 -273 CURVE SMOOTH",
"793 -357 OFFCURVE",
"723 -406 OFFCURVE",
"638 -406 CURVE SMOOTH",
"573 -406 OFFCURVE",
"537 -387 OFFCURVE",
"526 -379 CURVE",
"512 -407 LINE",
"522 -415 OFFCURVE",
"568 -434 OFFCURVE",
"634 -434 CURVE SMOOTH",
"736 -434 OFFCURVE",
"823 -378 OFFCURVE",
"823 -273 CURVE SMOOTH",
"823 -178 OFFCURVE",
"769 -143 OFFCURVE",
"704 -143 CURVE SMOOTH"
);
}
);
width = 1235;
},
{
components = (
{
name = c;
}
);
layerId = "584F9D0D-8480-40C6-ABEA-8DD6EE64252D";
paths = (
{
closed = 1;
nodes = (
"722 -56 OFFCURVE",
"684 -75 OFFCURVE",
"671 -107 CURVE",
"681 -107 LINE",
"739 0 LINE",
"573 0 LINE",
"499 -143 LINE",
"645 -182 LINE",
"659 -160 OFFCURVE",
"693 -150 OFFCURVE",
"724 -150 CURVE SMOOTH",
"755 -150 OFFCURVE",
"781 -165 OFFCURVE",
"781 -199 CURVE SMOOTH",
"781 -243 OFFCURVE",
"729 -265 OFFCURVE",
"658 -265 CURVE SMOOTH",
"587 -265 OFFCURVE",
"504 -230 OFFCURVE",
"474 -212 CURVE",
"398 -353 LINE",
"441 -382 OFFCURVE",
"556 -410 OFFCURVE",
"645 -410 CURVE SMOOTH",
"797 -410 OFFCURVE",
"952 -350 OFFCURVE",
"952 -207 CURVE SMOOTH",
"952 -95 OFFCURVE",
"859 -56 OFFCURVE",
"787 -56 CURVE SMOOTH"
);
}
);
width = 1272;
},
{
components = (
{
name = c;
}
);
layerId = "F6BDCC95-B00C-46EE-8A70-124DE74BF6E5";
paths = (
{
closed = 1;
nodes = (
"678 -100 OFFCURVE",
"614 -128 OFFCURVE",
"602 -156 CURVE",
"630 -162 LINE",
"692 0 LINE",
"603 0 LINE",
"534 -178 LINE",
"611 -201 LINE",
"629 -178 OFFCURVE",
"670 -163 OFFCURVE",
"704 -163 CURVE SMOOTH",
"751 -163 OFFCURVE",
"784 -188 OFFCURVE",
"784 -245 CURVE SMOOTH",
"784 -314 OFFCURVE",
"721 -353 OFFCURVE",
"641 -353 CURVE SMOOTH",
"574 -353 OFFCURVE",
"520 -328 OFFCURVE",
"502 -316 CURVE",
"465 -387 LINE",
"487 -403 OFFCURVE",
"559 -425 OFFCURVE",
"634 -425 CURVE SMOOTH",
"755 -425 OFFCURVE",
"867 -368 OFFCURVE",
"867 -248 CURVE SMOOTH",
"867 -147 OFFCURVE",
"799 -100 OFFCURVE",
"731 -100 CURVE SMOOTH"
);
}
);
width = 1260;
}
);
leftKerningGroup = o;
leftMetricsKey = c;
rightKerningGroup = c;
rightMetricsKey = c;
unicode = 00E7;
},
{
glyphname = d;
lastChange = "2020-06-22 23:49:44 +0000";
layers = (
{
anchors = (
{
name = bottom;
position = "{695, 0}";
},
{
name = center;
position = "{991, 1295}";
},
{
name = top;
position = "{597, 1563}";
},
{
name = topright;
position = "{1094, 1053}";
}
);
layerId = "A1A0948C-E637-4A65-8CCC-05505AD98C44";
paths = (
{
closed = 1;
nodes = (
"806 -17 OFFCURVE",
"1007 159 OFFCURVE",
"1007 390 CURVE",
"977 390 LINE",
"977 179 OFFCURVE",
"789 11 OFFCURVE",
"577 11 CURVE SMOOTH",
"337 11 OFFCURVE",
"174 200 OFFCURVE",
"174 529 CURVE SMOOTH",
"174 858 OFFCURVE",
"337 1047 OFFCURVE",
"577 1047 CURVE SMOOTH",
"793 1047 OFFCURVE",
"977 872 OFFCURVE",
"977 675 CURVE SMOOTH",
"977 670 OFFCURVE",
"977 666 OFFCURVE",
"977 661 CURVE",
"1007 657 LINE",
"1007 663 OFFCURVE",
"1007 669 OFFCURVE",
"1007 675 CURVE SMOOTH",
"1007 886 OFFCURVE",
"817 1075 OFFCURVE",
"577 1075 CURVE SMOOTH",
"318 1075 OFFCURVE",
"143 877 OFFCURVE",
"143 529 CURVE SMOOTH",
"143 181 OFFCURVE",
"318 -17 OFFCURVE",
"577 -17 CURVE SMOOTH"
);
},
{
closed = 1;
nodes = (
"1008 0 LINE",
"1008 1563 LINE",
"977 1563 LINE",
"977 0 LINE"
);
}
);
width = 1198;
},
{
anchors = (
{
name = bottom;
position = "{741, -19}";
},
{
name = center;
position = "{1059, 1298}";
},
{
name = top;
position = "{624, 1563}";
},
{
name = topright;
position = "{1340, 1062}";
}
);
layerId = "584F9D0D-8480-40C6-ABEA-8DD6EE64252D";
paths = (
{
closed = 1;
nodes = (
"802 -26 OFFCURVE",
"1003 210 OFFCURVE",
"1003 505 CURVE",
"861 515 LINE",
"861 382 OFFCURVE",
"759 314 OFFCURVE",
"663 314 CURVE SMOOTH",
"562 314 OFFCURVE",
"461 381 OFFCURVE",
"461 538 CURVE SMOOTH",
"461 695 OFFCURVE",
"562 757 OFFCURVE",
"663 757 CURVE SMOOTH",
"757 757 OFFCURVE",
"861 694 OFFCURVE",
"861 561 CURVE SMOOTH",
"861 557 OFFCURVE",
"861 552 OFFCURVE",
"861 548 CURVE",
"1003 548 LINE",
"1003 556 OFFCURVE",
"1003 563 OFFCURVE",
"1003 571 CURVE SMOOTH",
"1003 866 OFFCURVE",
"802 1084 OFFCURVE",
"547 1084 CURVE SMOOTH",
"290 1084 OFFCURVE",
"45 890 OFFCURVE",
"45 538 CURVE SMOOTH",
"45 166 OFFCURVE",
"280 -26 OFFCURVE",
"547 -26 CURVE SMOOTH"
);
},
{
closed = 1;
nodes = (
"1265 0 LINE",
"1265 1563 LINE",
"861 1563 LINE",
"861 0 LINE"
);
}
);
width = 1361;
},
{
anchors = (
{
name = bottom;
position = "{718, -7}";
},
{
name = center;
position = "{1022, 1296}";
},
{
name = top;
position = "{613, 1563}";
},
{
name = topright;
position = "{1192, 1056}";
}
);
layerId = "F6BDCC95-B00C-46EE-8A70-124DE74BF6E5";
paths = (
{
closed = 1;
nodes = (
"853 -20 OFFCURVE",
"1061 187 OFFCURVE",
"1061 459 CURVE",
"939 462 LINE",
"939 282 OFFCURVE",
"792 141 OFFCURVE",
"615 141 CURVE SMOOTH",
"427 141 OFFCURVE",
"287 268 OFFCURVE",
"287 532 CURVE SMOOTH",
"287 797 OFFCURVE",
"426 922 OFFCURVE",
"615 922 CURVE SMOOTH",
"785 922 OFFCURVE",
"939 785 OFFCURVE",
"939 612 CURVE SMOOTH",
"939 608 OFFCURVE",
"939 603 OFFCURVE",
"939 599 CURVE",
"1061 604 LINE",
"1061 608 OFFCURVE",
"1061 612 OFFCURVE",
"1061 616 CURVE SMOOTH",
"1061 889 OFFCURVE",
"837 1078 OFFCURVE",
"591 1078 CURVE SMOOTH",
"333 1078 OFFCURVE",
"112 882 OFFCURVE",
"112 532 CURVE SMOOTH",
"112 175 OFFCURVE",
"329 -20 OFFCURVE",
"591 -20 CURVE SMOOTH"
);
},
{
closed = 1;
nodes = (
"1110 0 LINE",
"1110 1563 LINE",
"939 1563 LINE",
"939 0 LINE"
);
}
);
width = 1256;
}
);
leftKerningGroup = o;
leftMetricsKey = o;
note = d;
rightKerningGroup = l;
unicode = 0064;
},
{
glyphname = eth;
lastChange = "2020-06-22 23:49:44 +0000";
layers = (
{
layerId = "A1A0948C-E637-4A65-8CCC-05505AD98C44";
paths = (
{
closed = 1;
nodes = (
"719 1339 LINE",
"940 1509 LINE",
"913 1530 LINE",
"692 1360 LINE"
);
},
{
closed = 1;
nodes = (
"1157 533 LINE",
"1157 1182 OFFCURVE",
"910 1446 OFFCURVE",
"584 1554 CURVE",
"556 1530 LINE",
"874 1437 OFFCURVE",
"1126 1173 OFFCURVE",
"1126 533 CURVE"
);
},
{
closed = 1;
nodes = (
"946 -15 OFFCURVE",
"1157 222 OFFCURVE",
"1157 533 CURVE SMOOTH",
"1157 844 OFFCURVE",
"946 1073 OFFCURVE",
"650 1073 CURVE SMOOTH",
"354 1073 OFFCURVE",
"143 844 OFFCURVE",
"143 533 CURVE SMOOTH",
"143 222 OFFCURVE",
"354 -15 OFFCURVE",
"650 -15 CURVE SMOOTH"
);
},
{
closed = 1;
nodes = (
"373 13 OFFCURVE",
"174 243 OFFCURVE",
"174 533 CURVE SMOOTH",
"174 823 OFFCURVE",
"373 1045 OFFCURVE",
"650 1045 CURVE SMOOTH",
"927 1045 OFFCURVE",
"1126 823 OFFCURVE",
"1126 533 CURVE SMOOTH",
"1126 243 OFFCURVE",
"927 13 OFFCURVE",
"650 13 CURVE SMOOTH"
);
}
);
width = 1347;
},
{
layerId = "584F9D0D-8480-40C6-ABEA-8DD6EE64252D";
paths = (
{
closed = 1;
nodes = (
"596 1103 LINE",
"984 1468 LINE",
"769 1591 LINE",
"379 1222 LINE"
);
},
{
closed = 1;
nodes = (
"1257 530 LINE",
"1257 1179 OFFCURVE",
"905 1475 OFFCURVE",
"468 1576 CURVE",
"299 1394 LINE",
"639 1306 OFFCURVE",
"879 1173 OFFCURVE",
"879 530 CURVE"
);
},
{
closed = 1;
nodes = (
"1011 -26 OFFCURVE",
"1257 200 OFFCURVE",
"1257 530 CURVE SMOOTH",
"1257 860 OFFCURVE",
"1011 1084 OFFCURVE",
"651 1084 CURVE SMOOTH",
"291 1084 OFFCURVE",
"45 860 OFFCURVE",
"45 530 CURVE SMOOTH",
"45 200 OFFCURVE",
"291 -26 OFFCURVE",
"651 -26 CURVE SMOOTH"
);
},
{
closed = 1;
nodes = (
"528 280 OFFCURVE",
"450 378 OFFCURVE",
"450 530 CURVE SMOOTH",
"450 682 OFFCURVE",
"528 778 OFFCURVE",
"651 778 CURVE SMOOTH",
"774 778 OFFCURVE",
"852 682 OFFCURVE",
"852 530 CURVE SMOOTH",
"852 378 OFFCURVE",
"774 280 OFFCURVE",
"651 280 CURVE SMOOTH"
);
}
);
width = 1353;
},
{
layerId = "F6BDCC95-B00C-46EE-8A70-124DE74BF6E5";
paths = (
{
closed = 1;
nodes = (
"688 1221 LINE",
"992 1484 LINE",
"865 1553 LINE",
"560 1288 LINE"
);
},
{
closed = 1;
nodes = (
"1200 532 LINE",
"1200 1181 OFFCURVE",
"914 1457 OFFCURVE",
"546 1562 CURVE",
"445 1459 LINE",
"771 1368 OFFCURVE",
"1039 1173 OFFCURVE",
"1039 532 CURVE"
);
},
{
closed = 1;
nodes = (
"976 -19 OFFCURVE",
"1200 214 OFFCURVE",
"1200 532 CURVE SMOOTH",
"1200 850 OFFCURVE",
"976 1077 OFFCURVE",
"656 1077 CURVE SMOOTH",
"336 1077 OFFCURVE",
"112 850 OFFCURVE",
"112 532 CURVE SMOOTH",
"112 214 OFFCURVE",
"336 -19 OFFCURVE",
"656 -19 CURVE SMOOTH"
);
},
{
closed = 1;
nodes = (
"437 133 OFFCURVE",
"283 294 OFFCURVE",
"283 532 CURVE SMOOTH",
"283 770 OFFCURVE",
"437 925 OFFCURVE",
"656 925 CURVE SMOOTH",
"875 925 OFFCURVE",
"1029 770 OFFCURVE",
"1029 532 CURVE SMOOTH",
"1029 294 OFFCURVE",
"875 133 OFFCURVE",
"656 133 CURVE SMOOTH"
);
}
);
width = 1346;
}
);
leftKerningGroup = o;
leftMetricsKey = o;
rightKerningGroup = d;
rightMetricsKey = d;
unicode = 00F0;
},
{
glyphname = dcroat;
lastChange = "2020-06-22 23:49:44 +0000";
layers = (
{
components = (
{
name = d;
}
);
layerId = "A1A0948C-E637-4A65-8CCC-05505AD98C44";
paths = (
{
closed = 1;
nodes = (
"1121 1362 LINE",
"1121 1388 LINE",
"633 1388 LINE",
"633 1362 LINE"
);
}
);
width = 1198;
},
{
components = (
{
name = d;
}
);
layerId = "584F9D0D-8480-40C6-ABEA-8DD6EE64252D";
paths = (
{
closed = 1;
nodes = (
"1383 1220 LINE",
"1383 1399 LINE",
"482 1399 LINE",
"482 1220 LINE"
);
}
);
width = 1378;
},
{
components = (
{
alignment = -1;
name = d;
}
);
layerId = "F6BDCC95-B00C-46EE-8A70-124DE74BF6E5";
paths = (
{
closed = 1;
nodes = (
"1217 1275 LINE",
"1217 1405 LINE",
"575 1405 LINE",
"575 1275 LINE"
);
}
);
width = 1256;
}
);
leftKerningGroup = o;
leftMetricsKey = o;
rightKerningGroup = l;
unicode = 0111;
},
{
glyphname = e;
lastChange = "2020-06-22 23:49:44 +0000";
layers = (
{
anchors = (
{
name = bottom;
position = "{647, 0}";
},
{
name = ogonek;
position = "{840, 23}";
},
{
name = top;
position = "{648, 1062}";
}
);
layerId = "A1A0948C-E637-4A65-8CCC-05505AD98C44";
paths = (
{
closed = 1;
nodes = (
"1122 512 LINE",
"1122 521 OFFCURVE",
"1122 535 OFFCURVE",
"1122 544 CURVE SMOOTH",
"1122 828 OFFCURVE",
"937 1075 OFFCURVE",
"648 1075 CURVE SMOOTH",
"360 1075 OFFCURVE",
"143 847 OFFCURVE",
"143 527 CURVE SMOOTH",
"143 207 OFFCURVE",
"361 -17 OFFCURVE",
"647 -17 CURVE SMOOTH",
"946 -17 OFFCURVE",
"1095 202 OFFCURVE",
"1106 332 CURVE",
"1075 332 LINE",
"1063 220 OFFCURVE",
"931 11 OFFCURVE",
"647 11 CURVE SMOOTH",
"378 11 OFFCURVE",
"174 234 OFFCURVE",
"174 527 CURVE SMOOTH",
"174 813 OFFCURVE",
"372 1047 OFFCURVE",
"648 1047 CURVE SMOOTH",
"919 1047 OFFCURVE",
"1091 806 OFFCURVE",
"1091 554 CURVE SMOOTH",
"1091 548 OFFCURVE",
"1091 546 OFFCURVE",
"1091 538 CURVE",
"1104 540 LINE",
"166 540 LINE",
"166 512 LINE"
);
}
);
width = 1265;
},
{
anchors = (
{
name = bottom;
position = "{662, 0}";
},
{
name = ogonek;
position = "{956, 25}";
},
{
name = top;
position = "{652, 1062}";
}
);
layerId = "584F9D0D-8480-40C6-ABEA-8DD6EE64252D";
paths = (
{
closed = 1;
nodes = (
"1259 421 LINE",
"1261 438 OFFCURVE",
"1263 466 OFFCURVE",
"1263 506 CURVE SMOOTH",
"1263 861 OFFCURVE",
"1030 1084 OFFCURVE",
"654 1084 CURVE SMOOTH",
"289 1084 OFFCURVE",
"45 863 OFFCURVE",
"45 529 CURVE SMOOTH",
"45 202 OFFCURVE",
"279 -26 OFFCURVE",
"654 -26 CURVE SMOOTH",
"1015 -26 OFFCURVE",
"1229 148 OFFCURVE",
"1249 336 CURVE",
"851 336 LINE",
"846 303 OFFCURVE",
"800 262 OFFCURVE",
"671 262 CURVE SMOOTH",
"508 262 OFFCURVE",
"444 362 OFFCURVE",
"444 539 CURVE SMOOTH",
"444 707 OFFCURVE",
"516 800 OFFCURVE",
"659 800 CURVE SMOOTH",
"804 800 OFFCURVE",
"858 711 OFFCURVE",
"858 643 CURVE SMOOTH",
"858 633 OFFCURVE",
"858 619 OFFCURVE",
"858 609 CURVE",
"888 661 LINE",
"262 661 LINE",
"262 421 LINE"
);
}
);
width = 1308;
},
{
anchors = (
{
name = bottom;
position = "{658, 0}";
},
{
name = ogonek;
position = "{878, 19}";
},
{
name = top;
position = "{655, 1062}";
}
);
layerId = "F6BDCC95-B00C-46EE-8A70-124DE74BF6E5";
paths = (
{
closed = 1;
nodes = (
"1177 463 LINE",
"1179 475 OFFCURVE",
"1181 519 OFFCURVE",
"1181 540 CURVE SMOOTH",
"1181 850 OFFCURVE",
"978 1078 OFFCURVE",
"656 1078 CURVE SMOOTH",
"339 1078 OFFCURVE",
"112 853 OFFCURVE",
"112 528 CURVE SMOOTH",
"112 205 OFFCURVE",
"336 -21 OFFCURVE",
"655 -21 CURVE SMOOTH",
"978 -21 OFFCURVE",
"1151 164 OFFCURVE",
"1165 334 CURVE",
"995 334 LINE",
"985 241 OFFCURVE",
"885 135 OFFCURVE",
"660 135 CURVE SMOOTH",
"423 135 OFFCURVE",
"277 286 OFFCURVE",
"277 532 CURVE SMOOTH",
"277 773 OFFCURVE",
"432 924 OFFCURVE",
"658 924 CURVE SMOOTH",
"882 924 OFFCURVE",
"999 770 OFFCURVE",
"999 587 CURVE SMOOTH",
"999 580 OFFCURVE",
"999 573 OFFCURVE",
"999 565 CURVE",
"1029 615 LINE",
"208 615 LINE",
"208 463 LINE"
);
}
);
width = 1293;
}
);
leftKerningGroup = o;
leftMetricsKey = o;
note = e;
rightKerningGroup = o;
rightMetricsKey = o;
unicode = 0065;
},
{
glyphname = ecedilla;
lastChange = "2020-06-22 01:19:52 +0000";
layers = (
{
components = (
{
name = e;
}
);
layerId = "A1A0948C-E637-4A65-8CCC-05505AD98C44";
paths = (
{
closed = 1;
nodes = (
"657 -143 OFFCURVE",
"609 -160 OFFCURVE",
"598 -185 CURVE",
"599 -195 LINE",
"663 0 LINE",
"633 0 LINE",
"567 -199 LINE",
"596 -212 LINE",
"617 -188 OFFCURVE",
"662 -171 OFFCURVE",
"698 -171 CURVE SMOOTH",
"755 -171 OFFCURVE",
"792 -201 OFFCURVE",
"792 -273 CURVE SMOOTH",
"792 -357 OFFCURVE",
"722 -406 OFFCURVE",
"637 -406 CURVE SMOOTH",
"572 -406 OFFCURVE",
"536 -387 OFFCURVE",
"525 -379 CURVE",
"511 -407 LINE",
"521 -415 OFFCURVE",
"567 -434 OFFCURVE",
"633 -434 CURVE SMOOTH",
"735 -434 OFFCURVE",
"822 -378 OFFCURVE",
"822 -273 CURVE SMOOTH",
"822 -178 OFFCURVE",
"768 -143 OFFCURVE",
"703 -143 CURVE SMOOTH"
);
}
);
width = 1265;
},
{
components = (
{
name = e;
}
);
layerId = "584F9D0D-8480-40C6-ABEA-8DD6EE64252D";
paths = (
{
closed = 1;
nodes = (
"725 -56 OFFCURVE",
"687 -75 OFFCURVE",
"674 -107 CURVE",
"684 -107 LINE",
"742 0 LINE",
"576 0 LINE",
"502 -143 LINE",
"648 -182 LINE",
"662 -160 OFFCURVE",
"696 -150 OFFCURVE",
"727 -150 CURVE SMOOTH",
"758 -150 OFFCURVE",
"784 -165 OFFCURVE",
"784 -199 CURVE SMOOTH",
"784 -243 OFFCURVE",
"732 -265 OFFCURVE",
"661 -265 CURVE SMOOTH",
"590 -265 OFFCURVE",
"507 -230 OFFCURVE",
"477 -212 CURVE",
"401 -353 LINE",
"444 -382 OFFCURVE",
"559 -410 OFFCURVE",
"648 -410 CURVE SMOOTH",
"800 -410 OFFCURVE",
"955 -350 OFFCURVE",
"955 -207 CURVE SMOOTH",
"955 -95 OFFCURVE",
"862 -56 OFFCURVE",
"790 -56 CURVE SMOOTH"
);
}
);
width = 1294;
},
{
components = (
{
name = e;
}
);
layerId = "F6BDCC95-B00C-46EE-8A70-124DE74BF6E5";
paths = (
{
closed = 1;
nodes = (
"691 -100 OFFCURVE",
"627 -128 OFFCURVE",
"615 -156 CURVE",
"643 -162 LINE",
"705 0 LINE",
"616 0 LINE",
"547 -178 LINE",
"624 -201 LINE",
"642 -178 OFFCURVE",
"683 -163 OFFCURVE",
"717 -163 CURVE SMOOTH",
"764 -163 OFFCURVE",
"797 -188 OFFCURVE",
"797 -245 CURVE SMOOTH",
"797 -314 OFFCURVE",
"734 -353 OFFCURVE",
"654 -353 CURVE SMOOTH",
"587 -353 OFFCURVE",
"533 -328 OFFCURVE",
"515 -316 CURVE",
"478 -387 LINE",
"500 -403 OFFCURVE",
"572 -425 OFFCURVE",
"647 -425 CURVE SMOOTH",
"768 -425 OFFCURVE",
"880 -368 OFFCURVE",
"880 -248 CURVE SMOOTH",
"880 -147 OFFCURVE",
"812 -100 OFFCURVE",
"744 -100 CURVE SMOOTH"
);
}
);
width = 1293;
}
);
unicode = 0229;
},
{
glyphname = eogonek;
lastChange = "2020-06-22 23:49:44 +0000";
layers = (
{
components = (
{
name = e;
}
);
layerId = "A1A0948C-E637-4A65-8CCC-05505AD98C44";
paths = (
{
closed = 1;
nodes = (
"817 -338 OFFCURVE",
"780 -342 OFFCURVE",
"752 -342 CURVE SMOOTH",
"684 -342 OFFCURVE",
"645 -307 OFFCURVE",
"645 -240 CURVE SMOOTH",
"645 -156 OFFCURVE",
"755 -52 OFFCURVE",
"840 23 CURVE",
"812 23 LINE",
"715 -50 OFFCURVE",
"609 -149 OFFCURVE",
"609 -242 CURVE SMOOTH",
"609 -334 OFFCURVE",
"670 -373 OFFCURVE",
"748 -373 CURVE SMOOTH",
"779 -373 OFFCURVE",
"816 -369 OFFCURVE",
"840 -364 CURVE",
"840 -333 LINE"
);
}
);
width = 1265;
},
{
components = (
{
name = e;
}
);
layerId = "584F9D0D-8480-40C6-ABEA-8DD6EE64252D";
paths = (
{
closed = 1;
nodes = (
"927 -248 OFFCURVE",
"901 -251 OFFCURVE",
"877 -251 CURVE SMOOTH",
"829 -251 OFFCURVE",
"784 -242 OFFCURVE",
"784 -197 CURVE SMOOTH",
"784 -136 OFFCURVE",
"899 -15 OFFCURVE",
"949 25 CURVE",
"761 25 LINE",
"702 -14 OFFCURVE",
"573 -139 OFFCURVE",
"573 -253 CURVE SMOOTH",
"573 -384 OFFCURVE",
"703 -437 OFFCURVE",
"855 -437 CURVE SMOOTH",
"889 -437 OFFCURVE",
"921 -435 OFFCURVE",
"949 -432 CURVE",
"949 -245 LINE"
);
}
);
width = 1308;
},
{
components = (
{
name = e;
}
);
layerId = "F6BDCC95-B00C-46EE-8A70-124DE74BF6E5";
paths = (
{
closed = 1;
nodes = (
"855 -320 OFFCURVE",
"822 -324 OFFCURVE",
"796 -324 CURVE SMOOTH",
"735 -324 OFFCURVE",
"694 -299 OFFCURVE",
"694 -240 CURVE SMOOTH",
"694 -165 OFFCURVE",
"806 -45 OFFCURVE",
"878 19 CURVE",
"780 19 LINE",
"697 -44 OFFCURVE",
"592 -161 OFFCURVE",
"592 -262 CURVE SMOOTH",
"592 -369 OFFCURVE",
"679 -413 OFFCURVE",
"785 -413 CURVE SMOOTH",
"817 -413 OFFCURVE",
"852 -410 OFFCURVE",
"878 -406 CURVE",
"878 -316 LINE"
);
}
);
width = 1293;
}
);
leftKerningGroup = o;
leftMetricsKey = e;
rightKerningGroup = e;
rightMetricsKey = e;
unicode = 0119;
},
{
glyphname = schwa;
lastChange = "2020-06-22 23:49:44 +0000";
layers = (
{
layerId = "A1A0948C-E637-4A65-8CCC-05505AD98C44";
paths = (
{
closed = 1;
nodes = (
"905 -17 OFFCURVE",
"1122 211 OFFCURVE",
"1122 531 CURVE SMOOTH",
"1122 851 OFFCURVE",
"904 1075 OFFCURVE",
"618 1075 CURVE SMOOTH",
"319 1075 OFFCURVE",
"170 856 OFFCURVE",
"159 726 CURVE",
"190 726 LINE",
"202 838 OFFCURVE",
"334 1047 OFFCURVE",
"618 1047 CURVE SMOOTH",
"887 1047 OFFCURVE",
"1091 824 OFFCURVE",
"1091 531 CURVE SMOOTH",
"1091 245 OFFCURVE",
"893 11 OFFCURVE",
"617 11 CURVE SMOOTH",
"346 11 OFFCURVE",
"174 252 OFFCURVE",
"174 504 CURVE SMOOTH",
"174 510 OFFCURVE",
"174 512 OFFCURVE",
"174 520 CURVE",
"161 516 LINE",
"1099 516 LINE",
"1099 546 LINE",
"143 546 LINE",
"143 537 OFFCURVE",
"143 523 OFFCURVE",
"143 514 CURVE SMOOTH",
"143 230 OFFCURVE",
"328 -17 OFFCURVE",
"617 -17 CURVE SMOOTH"
);
}
);
width = 1265;
},
{
layerId = "584F9D0D-8480-40C6-ABEA-8DD6EE64252D";
paths = (
{
closed = 1;
nodes = (
"1019 -27 OFFCURVE",
"1263 194 OFFCURVE",
"1263 528 CURVE SMOOTH",
"1263 855 OFFCURVE",
"1029 1083 OFFCURVE",
"654 1083 CURVE SMOOTH",
"293 1083 OFFCURVE",
"79 909 OFFCURVE",
"59 721 CURVE",
"457 721 LINE",
"469 762 OFFCURVE",
"534 795 OFFCURVE",
"633 795 CURVE SMOOTH",
"825 795 OFFCURVE",
"874 695 OFFCURVE",
"874 518 CURVE SMOOTH",
"874 350 OFFCURVE",
"792 257 OFFCURVE",
"649 257 CURVE SMOOTH",
"512 257 OFFCURVE",
"450 346 OFFCURVE",
"450 414 CURVE SMOOTH",
"450 424 OFFCURVE",
"449 438 OFFCURVE",
"449 448 CURVE",
"420 396 LINE",
"966 396 LINE",
"966 636 LINE",
"49 636 LINE",
"47 619 OFFCURVE",
"45 591 OFFCURVE",
"45 551 CURVE SMOOTH",
"45 196 OFFCURVE",
"278 -27 OFFCURVE",
"654 -27 CURVE SMOOTH"
);
}
);
width = 1308;
},
{
layerId = "F6BDCC95-B00C-46EE-8A70-124DE74BF6E5";
paths = (
{
closed = 1;
nodes = (
"954 -21 OFFCURVE",
"1181 204 OFFCURVE",
"1181 529 CURVE SMOOTH",
"1181 852 OFFCURVE",
"957 1078 OFFCURVE",
"638 1078 CURVE SMOOTH",
"315 1078 OFFCURVE",
"142 893 OFFCURVE",
"128 723 CURVE",
"298 723 LINE",
"308 816 OFFCURVE",
"398 922 OFFCURVE",
"633 922 CURVE SMOOTH",
"880 922 OFFCURVE",
"1016 781 OFFCURVE",
"1016 525 CURVE SMOOTH",
"1016 274 OFFCURVE",
"871 133 OFFCURVE",
"635 133 CURVE SMOOTH",
"401 133 OFFCURVE",
"294 287 OFFCURVE",
"294 470 CURVE SMOOTH",
"294 477 OFFCURVE",
"294 484 OFFCURVE",
"294 492 CURVE",
"264 442 LINE",
"1085 442 LINE",
"1085 594 LINE",
"114 594 LINE",
"113 582 OFFCURVE",
"112 538 OFFCURVE",
"112 517 CURVE SMOOTH",
"112 207 OFFCURVE",
"315 -21 OFFCURVE",
"637 -21 CURVE SMOOTH"
);
}
);
width = 1293;
}
);
leftKerningGroup = o;
leftMetricsKey = o;
rightKerningGroup = o;
rightMetricsKey = o;
unicode = 0259;
},
{
glyphname = f;
lastChange = "2020-06-22 23:51:02 +0000";
layers = (
{
anchors = (
{
name = bottom;
position = "{310, 0}";
},
{
name = top;
position = "{389, 1563}";
}
);
layerId = "A1A0948C-E637-4A65-8CCC-05505AD98C44";
paths = (
{
closed = 1;
nodes = (
"324 0 LINE",
"324 1034 LINE",
"648 1034 LINE",
"648 1062 LINE",
"324 1062 LINE",
"324 1230 LINE SMOOTH",
"324 1373 OFFCURVE",
"351 1550 OFFCURVE",
"559 1550 CURVE SMOOTH",
"598 1550 OFFCURVE",
"635 1542 OFFCURVE",
"652 1536 CURVE",
"652 1564 LINE",
"638 1570 OFFCURVE",
"602 1578 OFFCURVE",
"559 1578 CURVE SMOOTH",
"311 1578 OFFCURVE",
"293 1356 OFFCURVE",
"293 1230 CURVE SMOOTH",
"293 1062 LINE",
"50 1062 LINE",
"50 1034 LINE",
"293 1034 LINE",
"293 0 LINE"
);
}
);
width = 717;
},
{
anchors = (
{
name = bottom;
position = "{456, 0}";
},
{
name = top;
position = "{456, 1563}";
}
);
layerId = "584F9D0D-8480-40C6-ABEA-8DD6EE64252D";
paths = (
{
closed = 1;
nodes = (
"629 0 LINE",
"629 762 LINE",
"898 762 LINE",
"898 1062 LINE",
"629 1062 LINE",
"629 1089 LINE SMOOTH",
"629 1204 OFFCURVE",
"675 1267 OFFCURVE",
"812 1267 CURVE SMOOTH",
"861 1267 OFFCURVE",
"909 1257 OFFCURVE",
"925 1252 CURVE",
"925 1555 LINE",
"909 1562 OFFCURVE",
"868 1577 OFFCURVE",
"766 1577 CURVE SMOOTH",
"576 1577 OFFCURVE",
"227 1519 OFFCURVE",
"227 1093 CURVE SMOOTH",
"227 1062 LINE",
"13 1062 LINE",
"13 762 LINE",
"227 762 LINE",
"227 0 LINE"
);
}
);
width = 930;
},
{
anchors = (
{
name = bottom;
position = "{375, 0}";
},
{
name = top;
position = "{430, 1563}";
}
);
layerId = "F6BDCC95-B00C-46EE-8A70-124DE74BF6E5";
paths = (
{
closed = 1;
nodes = (
"454 0 LINE",
"454 912 LINE",
"764 912 LINE",
"764 1062 LINE",
"454 1062 LINE",
"454 1168 LINE SMOOTH",
"454 1301 OFFCURVE",
"488 1425 OFFCURVE",
"670 1425 CURVE SMOOTH",
"713 1425 OFFCURVE",
"754 1416 OFFCURVE",
"770 1411 CURVE",
"770 1561 LINE",
"756 1567 OFFCURVE",
"718 1578 OFFCURVE",
"653 1578 CURVE SMOOTH",
"426 1578 OFFCURVE",
"284 1437 OFFCURVE",
"284 1199 CURVE SMOOTH",
"284 1062 LINE",
"52 1062 LINE",
"52 912 LINE",
"284 912 LINE",
"284 0 LINE"
);
}
);
width = 808;
}
);
leftKerningGroup = f;
leftMetricsKey = t;
note = f;
rightKerningGroup = f;
unicode = 0066;
},
{
glyphname = g;
lastChange = "2020-06-22 01:19:52 +0000";
layers = (
{
anchors = (
{
name = bottom;
position = "{585, -436}";
},
{
name = top;
position = "{578, 1062}";
}
);
layerId = "A1A0948C-E637-4A65-8CCC-05505AD98C44";
paths = (
{
closed = 1;
nodes = (
"395 34 LINE SMOOTH",
"268 43 OFFCURVE",
"217 88 OFFCURVE",
"217 150 CURVE SMOOTH",
"217 221 OFFCURVE",
"292 265 OFFCURVE",
"335 274 CURVE",
"306 295 LINE",
"260 286 OFFCURVE",
"186 231 OFFCURVE",
"186 150 CURVE SMOOTH",
"186 64 OFFCURVE",
"262 14 OFFCURVE",
"385 5 CURVE SMOOTH",
"791 -24 LINE SMOOTH",
"926 -34 OFFCURVE",
"1025 -78 OFFCURVE",
"1025 -191 CURVE SMOOTH",
"1025 -303 OFFCURVE",
"901 -419 OFFCURVE",
"581 -419 CURVE SMOOTH",
"304 -419 OFFCURVE",
"156 -327 OFFCURVE",
"156 -185 CURVE SMOOTH",
"156 -133 OFFCURVE",
"171 -92 OFFCURVE",
"185 -71 CURVE",
"156 -64 LINE",
"141 -88 OFFCURVE",
"125 -129 OFFCURVE",
"125 -187 CURVE SMOOTH",
"125 -333 OFFCURVE",
"262 -447 OFFCURVE",
"574 -447 CURVE SMOOTH",
"920 -447 OFFCURVE",
"1056 -327 OFFCURVE",
"1056 -191 CURVE SMOOTH",
"1056 -63 OFFCURVE",
"948 -6 OFFCURVE",
"801 5 CURVE SMOOTH"
);
},
{
closed = 1;
nodes = (
"978 782 LINE",
"986 774 LINE",
"965 896 OFFCURVE",
"838 1075 OFFCURVE",
"581 1075 CURVE SMOOTH",
"319 1075 OFFCURVE",
"147 872 OFFCURVE",
"147 636 CURVE SMOOTH",
"147 402 OFFCURVE",
"299 201 OFFCURVE",
"578 201 CURVE SMOOTH",
"848 201 OFFCURVE",
"1009 396 OFFCURVE",
"1009 634 CURVE SMOOTH",
"1009 1062 LINE",
"978 1062 LINE"
);
},
{
closed = 1;
nodes = (
"323 229 OFFCURVE",
"178 412 OFFCURVE",
"178 636 CURVE SMOOTH",
"178 853 OFFCURVE",
"340 1047 OFFCURVE",
"580 1047 CURVE SMOOTH",
"832 1047 OFFCURVE",
"978 859 OFFCURVE",
"978 640 CURVE SMOOTH",
"978 408 OFFCURVE",
"834 229 OFFCURVE",
"578 229 CURVE SMOOTH"
);
}
);
width = 1181;
},
{
anchors = (
{
name = bottom;
position = "{620, -437}";
},
{
name = top;
position = "{597, 1062}";
}
);
layerId = "584F9D0D-8480-40C6-ABEA-8DD6EE64252D";
paths = (
{
closed = 1;
nodes = (
"496 208 LINE SMOOTH",
"402 219 OFFCURVE",
"371 242 OFFCURVE",
"371 272 CURVE SMOOTH",
"371 298 OFFCURVE",
"401 320 OFFCURVE",
"421 323 CURVE",
"247 416 LINE",
"191 398 OFFCURVE",
"56 308 OFFCURVE",
"56 186 CURVE SMOOTH",
"56 54 OFFCURVE",
"175 -11 OFFCURVE",
"332 -30 CURVE SMOOTH",
"733 -78 LINE SMOOTH",
"789 -85 OFFCURVE",
"847 -100 OFFCURVE",
"847 -142 CURVE SMOOTH",
"847 -189 OFFCURVE",
"748 -220 OFFCURVE",
"617 -220 CURVE SMOOTH",
"486 -220 OFFCURVE",
"375 -190 OFFCURVE",
"375 -143 CURVE SMOOTH",
"375 -121 OFFCURVE",
"382 -108 OFFCURVE",
"386 -103 CURVE",
"25 -51 LINE",
"6 -80 OFFCURVE",
"-5 -120 OFFCURVE",
"-5 -165 CURVE SMOOTH",
"-5 -345 OFFCURVE",
"227 -463 OFFCURVE",
"608 -463 CURVE SMOOTH",
"986 -463 OFFCURVE",
"1221 -345 OFFCURVE",
"1221 -117 CURVE SMOOTH",
"1221 78 OFFCURVE",
"1081 142 OFFCURVE",
"869 166 CURVE SMOOTH"
);
},
{
closed = 1;
nodes = (
"925 820 LINE",
"977 842 LINE",
"977 987 OFFCURVE",
"785 1084 OFFCURVE",
"585 1084 CURVE SMOOTH",
"289 1084 OFFCURVE",
"60 925 OFFCURVE",
"60 669 CURVE SMOOTH",
"60 414 OFFCURVE",
"280 270 OFFCURVE",
"619 270 CURVE SMOOTH",
"940 270 OFFCURVE",
"1073 429 OFFCURVE",
"1154 660 CURVE SMOOTH",
"1295 1062 LINE",
"946 1062 LINE"
);
},
{
closed = 1;
nodes = (
"526 548 OFFCURVE",
"454 590 OFFCURVE",
"454 671 CURVE SMOOTH",
"454 754 OFFCURVE",
"527 797 OFFCURVE",
"617 797 CURVE SMOOTH",
"708 797 OFFCURVE",
"779 754 OFFCURVE",
"779 673 CURVE SMOOTH",
"779 592 OFFCURVE",
"709 548 OFFCURVE",
"617 548 CURVE SMOOTH"
);
}
);
width = 1290;
},
{
anchors = (
{
name = bottom;
position = "{602, -436}";
},
{
name = top;
position = "{589, 1062}";
}
);
layerId = "F6BDCC95-B00C-46EE-8A70-124DE74BF6E5";
paths = (
{
closed = 1;
nodes = (
"456 95 LINE SMOOTH",
"341 104 OFFCURVE",
"312 136 OFFCURVE",
"312 186 CURVE SMOOTH",
"312 240 OFFCURVE",
"376 286 OFFCURVE",
"410 292 CURVE",
"276 353 LINE",
"226 341 OFFCURVE",
"141 250 OFFCURVE",
"141 154 CURVE SMOOTH",
"141 50 OFFCURVE",
"234 -31 OFFCURVE",
"369 -41 CURVE SMOOTH",
"773 -71 LINE SMOOTH",
"879 -79 OFFCURVE",
"962 -86 OFFCURVE",
"962 -173 CURVE SMOOTH",
"962 -260 OFFCURVE",
"848 -314 OFFCURVE",
"599 -314 CURVE SMOOTH",
"376 -314 OFFCURVE",
"250 -276 OFFCURVE",
"250 -169 CURVE SMOOTH",
"250 -129 OFFCURVE",
"262 -98 OFFCURVE",
"273 -83 CURVE",
"111 -59 LINE",
"95 -85 OFFCURVE",
"80 -126 OFFCURVE",
"80 -179 CURVE SMOOTH",
"80 -348 OFFCURVE",
"253 -453 OFFCURVE",
"591 -453 CURVE SMOOTH",
"949 -453 OFFCURVE",
"1122 -334 OFFCURVE",
"1122 -163 CURVE SMOOTH",
"1122 -10 OFFCURVE",
"1002 51 OFFCURVE",
"831 65 CURVE SMOOTH"
);
},
{
closed = 1;
nodes = (
"943 796 LINE",
"1007 800 LINE",
"995 930 OFFCURVE",
"832 1078 OFFCURVE",
"587 1078 CURVE SMOOTH",
"312 1078 OFFCURVE",
"119 892 OFFCURVE",
"119 648 CURVE SMOOTH",
"119 407 OFFCURVE",
"296 227 OFFCURVE",
"598 227 CURVE SMOOTH",
"887 227 OFFCURVE",
"1035 410 OFFCURVE",
"1072 644 CURVE SMOOTH",
"1138 1062 LINE",
"978 1062 LINE"
);
},
{
closed = 1;
nodes = (
"403 379 OFFCURVE",
"286 479 OFFCURVE",
"286 649 CURVE SMOOTH",
"286 816 OFFCURVE",
"414 926 OFFCURVE",
"598 926 CURVE SMOOTH",
"790 926 OFFCURVE",
"908 820 OFFCURVE",
"908 652 CURVE SMOOTH",
"908 477 OFFCURVE",
"791 379 OFFCURVE",
"597 379 CURVE SMOOTH"
);
}
);
width = 1218;
}
);
leftKerningGroup = g;
note = g;
rightKerningGroup = g;
unicode = 0067;
},
{
color = 3;
glyphname = g.ss01;
lastChange = "2020-06-22 23:49:44 +0000";
layers = (
{
anchors = (
{
name = bottom;
position = "{663, -447}";
},
{
name = top;
position = "{649, 1062}";
}
);
layerId = "A1A0948C-E637-4A65-8CCC-05505AD98C44";
paths = (
{
closed = 1;
nodes = (
"850 -447 OFFCURVE",
"1087 -340 OFFCURVE",
"1087 0 CURVE SMOOTH",
"1087 1062 LINE",
"1056 1062 LINE",
"1056 0 LINE SMOOTH",
"1056 -318 OFFCURVE",
"840 -419 OFFCURVE",
"633 -419 CURVE SMOOTH",
"426 -419 OFFCURVE",
"211 -314 OFFCURVE",
"211 -104 CURVE SMOOTH",
"211 -102 OFFCURVE",
"211 -99 OFFCURVE",
"211 -97 CURVE",
"180 -97 LINE",
"180 -99 OFFCURVE",
"180 -102 OFFCURVE",
"180 -104 CURVE SMOOTH",
"180 -344 OFFCURVE",
"416 -447 OFFCURVE",
"633 -447 CURVE SMOOTH"
);
},
{
closed = 1;
nodes = (
"907 -17 OFFCURVE",
"1085 166 OFFCURVE",
"1085 383 CURVE",
"1056 383 LINE",
"1056 186 OFFCURVE",
"890 11 OFFCURVE",
"651 11 CURVE SMOOTH",
"409 11 OFFCURVE",
"184 204 OFFCURVE",
"184 534 CURVE SMOOTH",
"184 862 OFFCURVE",
"409 1047 OFFCURVE",
"651 1047 CURVE SMOOTH",
"890 1047 OFFCURVE",
"1056 872 OFFCURVE",
"1056 675 CURVE SMOOTH",
"1056 669 OFFCURVE",
"1056 661 OFFCURVE",
"1056 655 CURVE",
"1085 655 LINE",
"1085 661 OFFCURVE",
"1085 669 OFFCURVE",
"1085 675 CURVE SMOOTH",
"1085 892 OFFCURVE",
"907 1075 OFFCURVE",
"651 1075 CURVE SMOOTH",
"391 1075 OFFCURVE",
"153 881 OFFCURVE",
"153 534 CURVE SMOOTH",
"153 177 OFFCURVE",
"392 -17 OFFCURVE",
"651 -17 CURVE SMOOTH"
);
}
);
width = 1282;
},
{
anchors = (
{
name = bottom;
position = "{680, -430}";
},
{
name = top;
position = "{661, 1062}";
}
);
layerId = "584F9D0D-8480-40C6-ABEA-8DD6EE64252D";
paths = (
{
closed = 1;
nodes = (
"965 -457 OFFCURVE",
"1284 -359 OFFCURVE",
"1284 0 CURVE SMOOTH",
"1284 1062 LINE",
"881 1062 LINE",
"881 0 LINE SMOOTH",
"881 -115 OFFCURVE",
"819 -180 OFFCURVE",
"685 -180 CURVE SMOOTH",
"571 -180 OFFCURVE",
"504 -132 OFFCURVE",
"504 -85 CURVE SMOOTH",
"504 -80 OFFCURVE",
"504 -76 OFFCURVE",
"504 -71 CURVE",
"101 -71 LINE",
"101 -76 OFFCURVE",
"101 -80 OFFCURVE",
"101 -85 CURVE SMOOTH",
"101 -364 OFFCURVE",
"387 -457 OFFCURVE",
"676 -457 CURVE SMOOTH"
);
},
{
closed = 1;
nodes = (
"802 -26 OFFCURVE",
"1023 169 OFFCURVE",
"1023 484 CURVE",
"881 504 LINE",
"881 371 OFFCURVE",
"782 313 OFFCURVE",
"686 313 CURVE SMOOTH",
"585 313 OFFCURVE",
"481 382 OFFCURVE",
"481 539 CURVE SMOOTH",
"481 696 OFFCURVE",
"585 756 OFFCURVE",
"686 756 CURVE SMOOTH",
"780 756 OFFCURVE",
"881 703 OFFCURVE",
"881 570 CURVE SMOOTH",
"881 566 OFFCURVE",
"881 563 OFFCURVE",
"881 559 CURVE",
"1023 557 LINE",
"1023 565 OFFCURVE",
"1023 572 OFFCURVE",
"1023 580 CURVE SMOOTH",
"1023 882 OFFCURVE",
"802 1084 OFFCURVE",
"557 1084 CURVE SMOOTH",
"300 1084 OFFCURVE",
"55 891 OFFCURVE",
"55 539 CURVE SMOOTH",
"55 167 OFFCURVE",
"290 -26 OFFCURVE",
"557 -26 CURVE SMOOTH"
);
}
);
width = 1374;
},
{
anchors = (
{
name = bottom;
position = "{667, -441}";
},
{
name = top;
position = "{664, 1062}";
}
);
layerId = "F6BDCC95-B00C-46EE-8A70-124DE74BF6E5";
paths = (
{
closed = 1;
nodes = (
"900 -451 OFFCURVE",
"1159 -319 OFFCURVE",
"1159 30 CURVE SMOOTH",
"1159 1062 LINE",
"988 1062 LINE",
"988 30 LINE SMOOTH",
"988 -232 OFFCURVE",
"829 -309 OFFCURVE",
"649 -309 CURVE SMOOTH",
"477 -309 OFFCURVE",
"316 -246 OFFCURVE",
"316 -97 CURVE SMOOTH",
"316 -94 OFFCURVE",
"316 -90 OFFCURVE",
"316 -87 CURVE",
"146 -87 LINE",
"146 -90 OFFCURVE",
"146 -94 OFFCURVE",
"146 -97 CURVE SMOOTH",
"146 -352 OFFCURVE",
"402 -451 OFFCURVE",
"646 -451 CURVE SMOOTH"
);
},
{
closed = 1;
nodes = (
"892 -20 OFFCURVE",
"1098 137 OFFCURVE",
"1098 461 CURVE",
"988 468 LINE",
"988 255 OFFCURVE",
"835 134 OFFCURVE",
"662 134 CURVE SMOOTH",
"473 134 OFFCURVE",
"301 251 OFFCURVE",
"301 536 CURVE SMOOTH",
"301 820 OFFCURVE",
"473 924 OFFCURVE",
"662 924 CURVE SMOOTH",
"834 924 OFFCURVE",
"988 809 OFFCURVE",
"988 596 CURVE SMOOTH",
"988 592 OFFCURVE",
"988 589 OFFCURVE",
"988 585 CURVE",
"1098 585 LINE",
"1098 589 OFFCURVE",
"1098 595 OFFCURVE",
"1098 599 CURVE SMOOTH",
"1098 918 OFFCURVE",
"892 1078 OFFCURVE",
"643 1078 CURVE SMOOTH",
"384 1078 OFFCURVE",
"122 905 OFFCURVE",
"122 536 CURVE SMOOTH",
"122 153 OFFCURVE",
"381 -20 OFFCURVE",
"643 -20 CURVE SMOOTH"
);
}
);
width = 1302;
}
);
leftKerningGroup = o;
leftMetricsKey = a;
rightKerningGroup = n;
rightMetricsKey = u;
},
{
glyphname = h;
lastChange = "2020-06-22 16:25:28 +0000";
layers = (
{
anchors = (
{
name = bottom;
position = "{589, 0}";
},
{
name = center;
position = "{218, 1295}";
},
{
name = top;
position = "{219, 1542}";
}
);
layerId = "A1A0948C-E637-4A65-8CCC-05505AD98C44";
paths = (
{
closed = 1;
nodes = (
"1007 0 LINE",
"1007 400 LINE SMOOTH",
"1007 476 OFFCURVE",
"1007 569 OFFCURVE",
"1007 641 CURVE SMOOTH",
"1007 911 OFFCURVE",
"890 1075 OFFCURVE",
"639 1075 CURVE SMOOTH",
"378 1075 OFFCURVE",
"205 887 OFFCURVE",
"205 699 CURVE",
"235 693 LINE",
"235 870 OFFCURVE",
"411 1047 OFFCURVE",
"638 1047 CURVE SMOOTH",
"860 1047 OFFCURVE",
"977 897 OFFCURVE",
"977 652 CURVE SMOOTH",
"977 582 OFFCURVE",
"977 481 OFFCURVE",
"977 413 CURVE SMOOTH",
"977 0 LINE"
);
},
{
closed = 1;
nodes = (
"235 0 LINE",
"235 1563 LINE",
"205 1563 LINE",
"205 0 LINE"
);
}
);
width = 1202;
},
{
anchors = (
{
name = bottom;
position = "{659, 0}";
},
{
name = center;
position = "{303, 1298}";
},
{
name = top;
position = "{308, 1563}";
}
);
layerId = "584F9D0D-8480-40C6-ABEA-8DD6EE64252D";
paths = (
{
closed = 1;
nodes = (
"1242 0 LINE",
"1242 340 LINE",
"1242 485 OFFCURVE",
"1242 583 OFFCURVE",
"1242 651 CURVE",
"1242 924 OFFCURVE",
"1129 1084 OFFCURVE",
"866 1084 CURVE SMOOTH",
"600 1084 OFFCURVE",
"425 903 OFFCURVE",
"425 612 CURVE",
"503 532 LINE",
"503 670 OFFCURVE",
"551 751 OFFCURVE",
"680 751 CURVE SMOOTH",
"812 751 OFFCURVE",
"839 667 OFFCURVE",
"839 532 CURVE",
"839 496 OFFCURVE",
"839 397 OFFCURVE",
"839 366 CURVE",
"839 0 LINE"
);
},
{
closed = 1;
nodes = (
"503 0 LINE",
"503 1563 LINE",
"100 1563 LINE",
"100 0 LINE"
);
}
);
width = 1332;
},
{
anchors = (
{
name = bottom;
position = "{603, 0}";
},
{
name = center;
position = "{237, 1296}";
},
{
name = top;
position = "{240, 1550}";
}
);
layerId = "F6BDCC95-B00C-46EE-8A70-124DE74BF6E5";
paths = (
{
closed = 1;
nodes = (
"1084 0 LINE",
"1084 378 LINE SMOOTH",
"1084 479 OFFCURVE",
"1084 574 OFFCURVE",
"1084 645 CURVE SMOOTH",
"1084 916 OFFCURVE",
"927 1078 OFFCURVE",
"672 1078 CURVE SMOOTH",
"409 1078 OFFCURVE",
"215 893 OFFCURVE",
"215 666 CURVE",
"323 633 LINE",
"323 795 OFFCURVE",
"451 916 OFFCURVE",
"641 916 CURVE SMOOTH",
"830 916 OFFCURVE",
"914 811 OFFCURVE",
"914 607 CURVE SMOOTH",
"914 550 OFFCURVE",
"914 450 OFFCURVE",
"914 395 CURVE SMOOTH",
"914 0 LINE"
);
},
{
closed = 1;
nodes = (
"323 0 LINE",
"323 1563 LINE",
"153 1563 LINE",
"153 0 LINE"
);
}
);
width = 1227;
}
);
leftKerningGroup = h;
note = h;
rightKerningGroup = n;
unicode = 0068;
},
{
glyphname = hbar;
lastChange = "2020-06-22 21:10:47 +0000";
layers = (
{
components = (
{
name = h;
}
);
layerId = "A1A0948C-E637-4A65-8CCC-05505AD98C44";
paths = (
{
closed = 1;
nodes = (
"555 1362 LINE",
"555 1388 LINE",
"64 1388 LINE",
"64 1362 LINE"
);
}
);
width = 1202;
},
{
components = (
{
name = h;
transform = "{1, 0, 0, 1, 30, 0}";
}
);
layerId = "584F9D0D-8480-40C6-ABEA-8DD6EE64252D";
paths = (
{
closed = 1;
nodes = (
"862 1220 LINE",
"862 1399 LINE",
"-4 1399 LINE",
"-4 1220 LINE"
);
}
);
width = 1362;
},
{
components = (
{
alignment = -1;
name = h;
}
);
layerId = "F6BDCC95-B00C-46EE-8A70-124DE74BF6E5";
paths = (
{
closed = 1;
nodes = (
"657 1275 LINE",
"657 1405 LINE",
"25 1405 LINE",
"25 1275 LINE"
);
}
);
width = 1227;
}
);
leftKerningGroup = h;
rightKerningGroup = n;
rightMetricsKey = h;
unicode = 0127;
},
{
glyphname = i;
lastChange = "2020-06-22 01:19:52 +0000";
layers = (
{
anchors = (
{
name = bottom;
position = "{225, 0}";
}
);
layerId = "A1A0948C-E637-4A65-8CCC-05505AD98C44";
paths = (
{
closed = 1;
nodes = (
"241 0 LINE",
"241 1062 LINE",
"211 1062 LINE",
"211 0 LINE"
);
},
{
closed = 1;
nodes = (
"255 1377 OFFCURVE",
"278 1400 OFFCURVE",
"278 1429 CURVE SMOOTH",
"278 1457 OFFCURVE",
"255 1480 OFFCURVE",
"227 1480 CURVE SMOOTH",
"198 1480 OFFCURVE",
"175 1457 OFFCURVE",
"175 1429 CURVE SMOOTH",
"175 1400 OFFCURVE",
"198 1377 OFFCURVE",
"227 1377 CURVE SMOOTH"
);
}
);
width = 453;
},
{
anchors = (
{
name = bottom;
position = "{270, 0}";
}
);
layerId = "584F9D0D-8480-40C6-ABEA-8DD6EE64252D";
paths = (
{
closed = 1;
nodes = (
"472 0 LINE",
"472 1062 LINE",
"73 1062 LINE",
"73 0 LINE"
);
},
{
closed = 1;
nodes = (
"390 1187 OFFCURVE",
"494 1249 OFFCURVE",
"494 1364 CURVE SMOOTH",
"494 1479 OFFCURVE",
"390 1541 OFFCURVE",
"272 1541 CURVE SMOOTH",
"153 1541 OFFCURVE",
"50 1479 OFFCURVE",
"50 1364 CURVE SMOOTH",
"50 1250 OFFCURVE",
"153 1187 OFFCURVE",
"272 1187 CURVE SMOOTH"
);
}
);
width = 544;
},
{
anchors = (
{
name = bottom;
position = "{245, 0}";
}
);
layerId = "F6BDCC95-B00C-46EE-8A70-124DE74BF6E5";
paths = (
{
closed = 1;
nodes = (
"331 0 LINE",
"331 1062 LINE",
"163 1062 LINE",
"163 0 LINE"
);
},
{
closed = 1;
nodes = (
"310 1306 OFFCURVE",
"363 1343 OFFCURVE",
"363 1405 CURVE SMOOTH",
"363 1465 OFFCURVE",
"310 1503 OFFCURVE",
"248 1503 CURVE SMOOTH",
"185 1503 OFFCURVE",
"132 1465 OFFCURVE",
"132 1405 CURVE SMOOTH",
"132 1344 OFFCURVE",
"185 1306 OFFCURVE",
"248 1306 CURVE SMOOTH"
);
}
);
width = 495;
}
);
leftKerningGroup = i;
note = i;
rightKerningGroup = i;
unicode = 0069;
},
{
glyphname = idotless;
lastChange = "2020-06-22 01:19:52 +0000";
layers = (
{
anchors = (
{
name = bottom;
position = "{226, 0}";
},
{
name = ogonek;
position = "{242, 0}";
},
{
name = top;
position = "{226, 1062}";
}
);
background = {
paths = (
{
closed = 1;
nodes = (
"226 0 LINE",
"226 1062 LINE",
"196 1062 LINE",
"196 0 LINE"
);
},
{
closed = 1;
nodes = (
"238 1377 OFFCURVE",
"261 1400 OFFCURVE",
"261 1429 CURVE SMOOTH",
"261 1457 OFFCURVE",
"238 1480 OFFCURVE",
"210 1480 CURVE SMOOTH",
"181 1480 OFFCURVE",
"158 1457 OFFCURVE",
"158 1429 CURVE SMOOTH",
"158 1400 OFFCURVE",
"181 1377 OFFCURVE",
"210 1377 CURVE SMOOTH"
);
}
);
};
layerId = "A1A0948C-E637-4A65-8CCC-05505AD98C44";
paths = (
{
closed = 1;
nodes = (
"241 0 LINE",
"241 1062 LINE",
"211 1062 LINE",
"211 0 LINE"
);
}
);
width = 452;
},
{
anchors = (
{
name = bottom;
position = "{274, 0}";
},
{
name = ogonek;
position = "{472, 0}";
},
{
name = top;
position = "{274, 1062}";
}
);
background = {
components = (
{
name = i;
}
);
};
layerId = "584F9D0D-8480-40C6-ABEA-8DD6EE64252D";
paths = (
{
closed = 1;
nodes = (
"472 0 LINE",
"472 1062 LINE",
"73 1062 LINE",
"73 0 LINE"
);
}
);
width = 545;
},
{
anchors = (
{
name = bottom;
position = "{247, 0}";
},
{
name = ogonek;
position = "{332, 0}";
},
{
name = top;
position = "{247, 1062}";
}
);
layerId = "F6BDCC95-B00C-46EE-8A70-124DE74BF6E5";
paths = (
{
closed = 1;
nodes = (
"331 0 LINE",
"331 1062 LINE",
"163 1062 LINE",
"163 0 LINE"
);
}
);
width = 494;
}
);
leftKerningGroup = i;
rightKerningGroup = i;
unicode = 0131;
},
{
glyphname = j;
lastChange = "2020-06-22 01:19:52 +0000";
layers = (
{
layerId = "A1A0948C-E637-4A65-8CCC-05505AD98C44";
paths = (
{
closed = 1;
nodes = (
"261 -440 OFFCURVE",
"285 -282 OFFCURVE",
"285 -107 CURVE SMOOTH",
"285 1062 LINE",
"255 1062 LINE",
"255 -101 LINE SMOOTH",
"255 -242 OFFCURVE",
"249 -412 OFFCURVE",
"24 -412 CURVE SMOOTH",
"-8 -412 OFFCURVE",
"-39 -406 OFFCURVE",
"-54 -401 CURVE",
"-54 -432 LINE",
"-41 -436 OFFCURVE",
"-11 -440 OFFCURVE",
"24 -440 CURVE SMOOTH"
);
},
{
closed = 1;
nodes = (
"302 1377 OFFCURVE",
"325 1400 OFFCURVE",
"325 1429 CURVE SMOOTH",
"325 1457 OFFCURVE",
"302 1480 OFFCURVE",
"274 1480 CURVE SMOOTH",
"245 1480 OFFCURVE",
"222 1457 OFFCURVE",
"222 1429 CURVE SMOOTH",
"222 1400 OFFCURVE",
"245 1377 OFFCURVE",
"274 1377 CURVE SMOOTH"
);
}
);
width = 510;
},
{
layerId = "584F9D0D-8480-40C6-ABEA-8DD6EE64252D";
paths = (
{
closed = 1;
nodes = (
"413 -464 OFFCURVE",
"484 -264 OFFCURVE",
"484 -89 CURVE SMOOTH",
"484 1062 LINE",
"82 1062 LINE",
"82 -81 LINE SMOOTH",
"82 -121 OFFCURVE",
"55 -173 OFFCURVE",
"-40 -173 CURVE SMOOTH",
"-82 -173 OFFCURVE",
"-123 -169 OFFCURVE",
"-150 -165 CURVE",
"-150 -460 LINE",
"-122 -462 OFFCURVE",
"-80 -464 OFFCURVE",
"-40 -464 CURVE SMOOTH"
);
},
{
closed = 1;
nodes = (
"404 1187 OFFCURVE",
"508 1250 OFFCURVE",
"508 1364 CURVE SMOOTH",
"508 1479 OFFCURVE",
"404 1541 OFFCURVE",
"286 1541 CURVE SMOOTH",
"167 1541 OFFCURVE",
"64 1479 OFFCURVE",
"64 1364 CURVE SMOOTH",
"64 1250 OFFCURVE",
"167 1187 OFFCURVE",
"286 1187 CURVE SMOOTH"
);
}
);
width = 559;
},
{
layerId = "F6BDCC95-B00C-46EE-8A70-124DE74BF6E5";
paths = (
{
closed = 1;
nodes = (
"303 -446 OFFCURVE",
"345 -272 OFFCURVE",
"345 -97 CURVE SMOOTH",
"345 1062 LINE",
"175 1062 LINE",
"175 -90 LINE SMOOTH",
"175 -194 OFFCURVE",
"162 -319 OFFCURVE",
"-22 -319 CURVE SMOOTH",
"-58 -319 OFFCURVE",
"-93 -314 OFFCURVE",
"-112 -309 CURVE",
"-112 -439 LINE",
"-94 -443 OFFCURVE",
"-59 -446 OFFCURVE",
"-22 -446 CURVE SMOOTH"
);
},
{
closed = 1;
nodes = (
"326 1306 OFFCURVE",
"379 1344 OFFCURVE",
"379 1405 CURVE SMOOTH",
"379 1465 OFFCURVE",
"326 1503 OFFCURVE",
"264 1503 CURVE SMOOTH",
"201 1503 OFFCURVE",
"148 1465 OFFCURVE",
"148 1405 CURVE SMOOTH",
"148 1344 OFFCURVE",
"201 1306 OFFCURVE",
"264 1306 CURVE SMOOTH"
);
}
);
width = 512;
}
);
leftKerningGroup = j;
note = j;
rightKerningGroup = j;
unicode = 006A;
},
{
glyphname = jdotless;
lastChange = "2020-06-22 01:19:52 +0000";
layers = (
{
anchors = (
{
name = bottom;
position = "{229, -437}";
},
{
name = top;
position = "{274, 1062}";
}
);
layerId = "A1A0948C-E637-4A65-8CCC-05505AD98C44";
paths = (
{
closed = 1;
nodes = (
"261 -440 OFFCURVE",
"285 -282 OFFCURVE",
"285 -107 CURVE SMOOTH",
"285 1062 LINE",
"255 1062 LINE",
"255 -101 LINE SMOOTH",
"255 -242 OFFCURVE",
"249 -412 OFFCURVE",
"24 -412 CURVE SMOOTH",
"-8 -412 OFFCURVE",
"-39 -406 OFFCURVE",
"-54 -401 CURVE",
"-54 -432 LINE",
"-41 -436 OFFCURVE",
"-11 -440 OFFCURVE",
"24 -440 CURVE SMOOTH"
);
}
);
width = 510;
},
{
anchors = (
{
name = bottom;
position = "{287, -437}";
},
{
name = top;
position = "{287, 1062}";
}
);
layerId = "584F9D0D-8480-40C6-ABEA-8DD6EE64252D";
paths = (
{
closed = 1;
nodes = (
"413 -464 OFFCURVE",
"484 -264 OFFCURVE",
"484 -89 CURVE SMOOTH",
"484 1062 LINE",
"82 1062 LINE",
"82 -81 LINE SMOOTH",
"82 -121 OFFCURVE",
"55 -173 OFFCURVE",
"-40 -173 CURVE SMOOTH",
"-82 -173 OFFCURVE",
"-123 -169 OFFCURVE",
"-150 -165 CURVE",
"-150 -460 LINE",
"-122 -462 OFFCURVE",
"-80 -464 OFFCURVE",
"-40 -464 CURVE SMOOTH"
);
}
);
width = 559;
},
{
anchors = (
{
name = bottom;
position = "{222, -437}";
},
{
name = top;
position = "{262, 1062}";
}
);
layerId = "F6BDCC95-B00C-46EE-8A70-124DE74BF6E5";
paths = (
{
closed = 1;
nodes = (
"303 -446 OFFCURVE",
"345 -272 OFFCURVE",
"345 -97 CURVE SMOOTH",
"345 1062 LINE",
"175 1062 LINE",
"175 -90 LINE SMOOTH",
"175 -194 OFFCURVE",
"162 -319 OFFCURVE",
"-22 -319 CURVE SMOOTH",
"-58 -319 OFFCURVE",
"-93 -314 OFFCURVE",
"-112 -309 CURVE",
"-112 -439 LINE",
"-94 -443 OFFCURVE",
"-59 -446 OFFCURVE",
"-22 -446 CURVE SMOOTH"
);
}
);
width = 512;
}
);
leftKerningGroup = j;
leftMetricsKey = j;
rightKerningGroup = j;
unicode = 0237;
},
{
glyphname = k;
lastChange = "2020-06-22 16:25:29 +0000";
layers = (
{
anchors = (
{
name = bottom;
position = "{535, 0}";
},
{
name = top;
position = "{224, 1563}";
}
);
layerId = "A1A0948C-E637-4A65-8CCC-05505AD98C44";
paths = (
{
closed = 1;
nodes = (
"235 0 LINE",
"235 531 LINE",
"223 507 LINE",
"374 627 LINE",
"348 640 LINE",
"886 0 LINE",
"926 0 LINE",
"377 653 LINE",
"376 630 LINE",
"908 1062 LINE",
"865 1062 LINE",
"226 544 LINE",
"235 542 LINE",
"235 1563 LINE",
"205 1563 LINE",
"205 0 LINE"
);
}
);
width = 1042;
},
{
anchors = (
{
name = bottom;
position = "{642, 0}";
},
{
name = top;
position = "{292, 1563}";
}
);
layerId = "584F9D0D-8480-40C6-ABEA-8DD6EE64252D";
paths = (
{
closed = 1;
nodes = (
"482 0 LINE",
"482 514 LINE",
"445 345 LINE",
"622 510 LINE",
"514 507 LINE",
"797 0 LINE",
"1218 0 LINE",
"779 716 LINE",
"699 577 LINE",
"1236 1062 LINE",
"749 1062 LINE",
"413 748 LINE",
"482 710 LINE",
"482 1563 LINE",
"100 1563 LINE",
"100 0 LINE"
);
}
);
width = 1221;
},
{
anchors = (
{
name = bottom;
position = "{563, 0}";
},
{
name = top;
position = "{237, 1563}";
}
);
layerId = "F6BDCC95-B00C-46EE-8A70-124DE74BF6E5";
paths = (
{
closed = 1;
nodes = (
"315 0 LINE",
"315 525 LINE",
"290 444 LINE",
"455 587 LINE",
"420 607 LINE",
"815 0 LINE",
"998 0 LINE",
"530 701 LINE",
"485 614 LINE",
"994 1062 LINE",
"774 1062 LINE",
"266 627 LINE",
"315 605 LINE",
"315 1563 LINE",
"153 1563 LINE",
"153 0 LINE"
);
}
);
width = 1028;
}
);
leftKerningGroup = h;
leftMetricsKey = h;
note = k;
rightKerningGroup = k;
unicode = 006B;
},
{
glyphname = kgreenlandic;
lastChange = "2020-06-22 16:25:29 +0000";
layers = (
{
anchors = (
{
name = bottom;
position = "{477, 0}";
},
{
name = top;
position = "{477, 1062}";
}
);
layerId = "A1A0948C-E637-4A65-8CCC-05505AD98C44";
paths = (
{
closed = 1;
nodes = (
"728 1062 LINE",
"691 1062 LINE",
"221 447 LINE",
"235 446 LINE",
"235 1062 LINE",
"205 1062 LINE",
"205 0 LINE",
"235 0 LINE",
"235 433 LINE",
"228 412 LINE",
"341 555 LINE",
"314 559 LINE",
"723 0 LINE",
"762 0 LINE",
"339 579 LINE",
"346 560 LINE"
);
}
);
width = 878;
},
{
anchors = (
{
name = bottom;
position = "{617, 0}";
},
{
name = top;
position = "{617, 1062}";
}
);
layerId = "584F9D0D-8480-40C6-ABEA-8DD6EE64252D";
paths = (
{
closed = 1;
nodes = (
"1142 1062 LINE",
"727 1062 LINE",
"427 554 LINE",
"481 532 LINE",
"481 1062 LINE",
"100 1062 LINE",
"100 0 LINE",
"481 0 LINE",
"481 400 LINE",
"454 163 LINE",
"667 443 LINE",
"436 500 LINE",
"716 0 LINE",
"1142 0 LINE",
"708 722 LINE",
"740 500 LINE"
);
}
);
width = 1127;
},
{
anchors = (
{
name = bottom;
position = "{517, 0}";
},
{
name = top;
position = "{517, 1062}";
}
);
layerId = "F6BDCC95-B00C-46EE-8A70-124DE74BF6E5";
paths = (
{
closed = 1;
nodes = (
"871 1062 LINE",
"692 1062 LINE",
"257 487 LINE",
"315 478 LINE",
"315 1062 LINE",
"153 1062 LINE",
"153 0 LINE",
"315 0 LINE",
"315 421 LINE",
"300 319 LINE",
"451 513 LINE",
"347 527 LINE",
"708 0 LINE",
"892 0 LINE",
"465 633 LINE",
"481 538 LINE"
);
}
);
width = 922;
}
);
leftKerningGroup = h;
leftMetricsKey = h;
rightKerningGroup = k;
rightMetricsKey = k;
unicode = 0138;
},
{
glyphname = l;
lastChange = "2020-06-23 14:54:47 +0000";
layers = (
{
anchors = (
{
name = bottom;
position = "{233, 0}";
},
{
name = center;
position = "{233, 782}";
},
{
name = top;
position = "{233, 1563}";
},
{
name = topright;
position = "{307, 1062}";
}
);
layerId = "A1A0948C-E637-4A65-8CCC-05505AD98C44";
paths = (
{
closed = 1;
nodes = (
"220 1563 LINE",
"220 0 LINE",
"250 0 LINE",
"250 1563 LINE"
);
}
);
width = 460;
},
{
anchors = (
{
name = bottom;
position = "{308, 0}";
},
{
name = center;
position = "{308, 782}";
},
{
name = top;
position = "{308, 1563}";
},
{
name = topright;
position = "{558, 1062}";
}
);
layerId = "584F9D0D-8480-40C6-ABEA-8DD6EE64252D";
paths = (
{
closed = 1;
nodes = (
"115 1563 LINE",
"115 0 LINE",
"512 0 LINE",
"512 1563 LINE"
);
}
);
width = 617;
},
{
anchors = (
{
name = bottom;
position = "{249, 0}";
},
{
name = center;
position = "{249, 782}";
},
{
name = top;
position = "{249, 1563}";
},
{
name = topright;
position = "{389, 1062}";
}
);
layerId = "F6BDCC95-B00C-46EE-8A70-124DE74BF6E5";
paths = (
{
closed = 1;
nodes = (
"168 1563 LINE",
"168 0 LINE",
"336 0 LINE",
"336 1563 LINE"
);
}
);
width = 494;
}
);
leftKerningGroup = h;
leftMetricsKey = "=h+15";
note = l;
rightKerningGroup = l;
rightMetricsKey = "=h+15";
unicode = 006C;
},
{
color = 3;
glyphname = l.ss01;
lastChange = "2020-06-22 16:25:29 +0000";
layers = (
{
anchors = (
{
name = bottom;
position = "{299, 0}";
},
{
name = center;
position = "{219, 767}";
},
{
name = top;
position = "{215, 1563}";
},
{
name = topright;
position = "{330, 1062}";
}
);
layerId = "A1A0948C-E637-4A65-8CCC-05505AD98C44";
paths = (
{
closed = 1;
nodes = (
"380 -7 OFFCURVE",
"412 -3 OFFCURVE",
"427 0 CURVE",
"427 28 LINE",
"412 25 OFFCURVE",
"380 21 OFFCURVE",
"348 21 CURVE SMOOTH",
"308 21 OFFCURVE",
"235 32 OFFCURVE",
"235 176 CURVE SMOOTH",
"235 193 OFFCURVE",
"235 222 OFFCURVE",
"235 244 CURVE SMOOTH",
"235 1563 LINE",
"205 1563 LINE",
"205 252 LINE SMOOTH",
"205 228 OFFCURVE",
"205 197 OFFCURVE",
"205 178 CURVE SMOOTH",
"205 -1 OFFCURVE",
"299 -7 OFFCURVE",
"347 -7 CURVE SMOOTH"
);
}
);
width = 492;
},
{
anchors = (
{
name = bottom;
position = "{408, -20}";
},
{
name = center;
position = "{388, 767}";
},
{
name = top;
position = "{299, 1563}";
},
{
name = topright;
position = "{567, 1062}";
}
);
layerId = "584F9D0D-8480-40C6-ABEA-8DD6EE64252D";
paths = (
{
closed = 1;
nodes = (
"574 -26 OFFCURVE",
"641 -13 OFFCURVE",
"680 1 CURVE",
"680 293 LINE",
"653 281 OFFCURVE",
"621 271 OFFCURVE",
"586 271 CURVE SMOOTH",
"544 271 OFFCURVE",
"504 297 OFFCURVE",
"504 388 CURVE SMOOTH",
"504 400 OFFCURVE",
"504 414 OFFCURVE",
"504 430 CURVE SMOOTH",
"504 1563 LINE",
"100 1563 LINE",
"100 415 LINE SMOOTH",
"100 382 OFFCURVE",
"100 353 OFFCURVE",
"100 326 CURVE SMOOTH",
"100 8 OFFCURVE",
"324 -26 OFFCURVE",
"495 -26 CURVE SMOOTH"
);
}
);
width = 700;
},
{
anchors = (
{
name = bottom;
position = "{327, -8}";
},
{
name = center;
position = "{270, 767}";
},
{
name = top;
position = "{234, 1563}";
},
{
name = topright;
position = "{406, 1062}";
}
);
layerId = "F6BDCC95-B00C-46EE-8A70-124DE74BF6E5";
paths = (
{
closed = 1;
nodes = (
"460 -14 OFFCURVE",
"489 -8 OFFCURVE",
"513 0 CURVE",
"513 147 LINE",
"494 141 OFFCURVE",
"458 135 OFFCURVE",
"421 135 CURVE SMOOTH",
"357 135 OFFCURVE",
"323 158 OFFCURVE",
"323 282 CURVE SMOOTH",
"323 297 OFFCURVE",
"323 314 OFFCURVE",
"323 334 CURVE SMOOTH",
"323 1563 LINE",
"153 1563 LINE",
"153 313 LINE SMOOTH",
"153 286 OFFCURVE",
"153 262 OFFCURVE",
"153 240 CURVE SMOOTH",
"153 9 OFFCURVE",
"296 -14 OFFCURVE",
"410 -14 CURVE SMOOTH"
);
}
);
width = 533;
}
);
leftKerningGroup = h;
leftMetricsKey = h;
rightKerningGroup = l.ss01;
},
{
glyphname = lslash;
lastChange = "2020-06-22 01:19:52 +0000";
layers = (
{
components = (
{
name = l;
}
);
layerId = "A1A0948C-E637-4A65-8CCC-05505AD98C44";
paths = (
{
closed = 1;
nodes = (
"42 774 LINE",
"399 1038 LINE",
"377 1062 LINE",
"20 798 LINE"
);
}
);
width = 451;
},
{
components = (
{
name = l;
}
);
layerId = "F6BDCC95-B00C-46EE-8A70-124DE74BF6E5";
paths = (
{
closed = 1;
nodes = (
"15 699 LINE",
"485 978 LINE",
"435 1071 LINE",
"-36 792 LINE"
);
}
);
width = 491;
},
{
components = (
{
name = l;
}
);
layerId = "584F9D0D-8480-40C6-ABEA-8DD6EE64252D";
paths = (
{
closed = 1;
nodes = (
"-1 575 LINE",
"658 878 LINE",
"560 1086 LINE",
"-99 782 LINE"
);
}
);
width = 567;
}
);
leftKerningGroup = h;
rightKerningGroup = l;
unicode = 0142;
},
{
color = 3;
glyphname = lslash.ss01;
lastChange = "2020-06-22 01:19:52 +0000";
layers = (
{
components = (
{
name = l.ss01;
}
);
layerId = "A1A0948C-E637-4A65-8CCC-05505AD98C44";
paths = (
{
closed = 1;
nodes = (
"42 774 LINE",
"399 1038 LINE",
"377 1062 LINE",
"20 798 LINE"
);
}
);
width = 497;
},
{
components = (
{
name = l.ss01;
}
);
layerId = "584F9D0D-8480-40C6-ABEA-8DD6EE64252D";
paths = (
{
closed = 1;
nodes = (
"-1 575 LINE",
"658 878 LINE",
"560 1086 LINE",
"-99 782 LINE"
);
}
);
width = 680;
},
{
components = (
{
alignment = -1;
name = l.ss01;
}
);
layerId = "F6BDCC95-B00C-46EE-8A70-124DE74BF6E5";
paths = (
{
closed = 1;
nodes = (
"24 699 LINE",
"494 978 LINE",
"444 1071 LINE",
"-27 792 LINE"
);
}
);
width = 562;
}
);
leftKerningGroup = h;
rightKerningGroup = l.ss01;
},
{
glyphname = m;
lastChange = "2020-06-22 16:25:29 +0000";
layers = (
{
anchors = (
{
name = bottom;
position = "{866, 0}";
},
{
name = top;
position = "{884, 1062}";
}
);
layerId = "A1A0948C-E637-4A65-8CCC-05505AD98C44";
paths = (
{
closed = 1;
nodes = (
"878 0 LINE",
"878 523 LINE SMOOTH",
"878 602 OFFCURVE",
"878 673 OFFCURVE",
"878 723 CURVE SMOOTH",
"878 945 OFFCURVE",
"803 1075 OFFCURVE",
"584 1075 CURVE SMOOTH",
"344 1075 OFFCURVE",
"207 879 OFFCURVE",
"207 671 CURVE",
"235 662 LINE",
"235 788 OFFCURVE",
"316 1047 OFFCURVE",
"585 1047 CURVE SMOOTH",
"836 1047 OFFCURVE",
"848 822 OFFCURVE",
"848 719 CURVE SMOOTH",
"848 677 OFFCURVE",
"848 614 OFFCURVE",
"848 526 CURVE SMOOTH",
"848 0 LINE"
);
},
{
closed = 1;
nodes = (
"235 0 LINE",
"235 1062 LINE",
"205 1062 LINE",
"205 0 LINE"
);
},
{
closed = 1;
nodes = (
"1520 0 LINE",
"1520 551 LINE SMOOTH",
"1520 624 OFFCURVE",
"1520 699 OFFCURVE",
"1520 750 CURVE SMOOTH",
"1520 970 OFFCURVE",
"1419 1075 OFFCURVE",
"1220 1075 CURVE SMOOTH",
"978 1075 OFFCURVE",
"850 881 OFFCURVE",
"850 692 CURVE",
"878 687 LINE",
"878 787 OFFCURVE",
"948 1047 OFFCURVE",
"1221 1047 CURVE SMOOTH",
"1488 1047 OFFCURVE",
"1490 818 OFFCURVE",
"1490 726 CURVE SMOOTH",
"1490 681 OFFCURVE",
"1490 627 OFFCURVE",
"1490 528 CURVE SMOOTH",
"1490 0 LINE"
);
}
);
width = 1715;
},
{
anchors = (
{
name = bottom;
position = "{982, 0}";
},
{
name = top;
position = "{1109, 1062}";
}
);
layerId = "584F9D0D-8480-40C6-ABEA-8DD6EE64252D";
paths = (
{
closed = 1;
nodes = (
"1170 0 LINE",
"1170 330 LINE",
"1170 485 OFFCURVE",
"1170 591 OFFCURVE",
"1170 651 CURVE SMOOTH",
"1170 878 OFFCURVE",
"1109 1084 OFFCURVE",
"829 1084 CURVE SMOOTH",
"576 1084 OFFCURVE",
"426 903 OFFCURVE",
"426 612 CURVE",
"503 522 LINE",
"503 659 OFFCURVE",
"551 751 OFFCURVE",
"645 751 CURVE SMOOTH",
"756 751 OFFCURVE",
"770 650 OFFCURVE",
"770 542 CURVE SMOOTH",
"770 504 OFFCURVE",
"770 447 OFFCURVE",
"770 373 CURVE",
"770 0 LINE"
);
},
{
closed = 1;
nodes = (
"503 0 LINE",
"503 1062 LINE",
"100 1062 LINE",
"100 0 LINE"
);
},
{
closed = 1;
nodes = (
"1838 0 LINE",
"1838 333 LINE",
"1838 489 OFFCURVE",
"1838 588 OFFCURVE",
"1838 651 CURVE SMOOTH",
"1838 878 OFFCURVE",
"1774 1084 OFFCURVE",
"1495 1084 CURVE SMOOTH",
"1242 1084 OFFCURVE",
"1093 903 OFFCURVE",
"1093 612 CURVE",
"1170 522 LINE",
"1170 659 OFFCURVE",
"1217 751 OFFCURVE",
"1311 751 CURVE SMOOTH",
"1416 751 OFFCURVE",
"1435 666 OFFCURVE",
"1435 542 CURVE SMOOTH",
"1435 505 OFFCURVE",
"1435 446 OFFCURVE",
"1435 371 CURVE",
"1435 0 LINE"
);
}
);
width = 1928;
},
{
anchors = (
{
name = bottom;
position = "{897, 0}";
},
{
name = top;
position = "{918, 1062}";
}
);
layerId = "F6BDCC95-B00C-46EE-8A70-124DE74BF6E5";
paths = (
{
closed = 1;
nodes = (
"975 0 LINE",
"975 451 LINE",
"975 558 OFFCURVE",
"975 642 OFFCURVE",
"975 696 CURVE SMOOTH",
"975 920 OFFCURVE",
"872 1078 OFFCURVE",
"630 1078 CURVE SMOOTH",
"386 1078 OFFCURVE",
"227 868 OFFCURVE",
"227 629 CURVE",
"323 590 LINE",
"323 740 OFFCURVE",
"392 916 OFFCURVE",
"595 916 CURVE SMOOTH",
"794 916 OFFCURVE",
"806 758 OFFCURVE",
"806 653 CURVE SMOOTH",
"806 612 OFFCURVE",
"806 551 OFFCURVE",
"806 469 CURVE",
"806 0 LINE"
);
},
{
closed = 1;
nodes = (
"323 0 LINE",
"323 1062 LINE",
"153 1062 LINE",
"153 0 LINE"
);
},
{
closed = 1;
nodes = (
"1627 0 LINE",
"1627 469 LINE",
"1627 573 OFFCURVE",
"1627 657 OFFCURVE",
"1627 713 CURVE SMOOTH",
"1627 936 OFFCURVE",
"1507 1078 OFFCURVE",
"1278 1078 CURVE SMOOTH",
"1032 1078 OFFCURVE",
"879 869 OFFCURVE",
"879 642 CURVE",
"975 605 LINE",
"975 739 OFFCURVE",
"1036 916 OFFCURVE",
"1242 916 CURVE SMOOTH",
"1449 916 OFFCURVE",
"1457 761 OFFCURVE",
"1457 657 CURVE SMOOTH",
"1457 615 OFFCURVE",
"1457 559 OFFCURVE",
"1457 469 CURVE",
"1457 0 LINE"
);
}
);
width = 1770;
}
);
leftKerningGroup = n;
leftMetricsKey = h;
note = m;
rightKerningGroup = n;
rightMetricsKey = h;
unicode = 006D;
},
{
glyphname = n;
lastChange = "2020-06-22 16:25:29 +0000";
layers = (
{
anchors = (
{
name = bottom;
position = "{604, 0}";
},
{
name = top;
position = "{626, 1062}";
}
);
layerId = "A1A0948C-E637-4A65-8CCC-05505AD98C44";
paths = (
{
closed = 1;
nodes = (
"1005 0 LINE",
"1005 563 LINE SMOOTH",
"1005 596 OFFCURVE",
"1005 657 OFFCURVE",
"1005 707 CURVE SMOOTH",
"1005 947 OFFCURVE",
"864 1075 OFFCURVE",
"633 1075 CURVE SMOOTH",
"430 1075 OFFCURVE",
"206 927 OFFCURVE",
"206 701 CURVE",
"235 690 LINE",
"235 898 OFFCURVE",
"439 1047 OFFCURVE",
"636 1047 CURVE SMOOTH",
"859 1047 OFFCURVE",
"975 906 OFFCURVE",
"975 707 CURVE SMOOTH",
"975 668 OFFCURVE",
"975 639 OFFCURVE",
"975 566 CURVE SMOOTH",
"975 0 LINE"
);
},
{
closed = 1;
nodes = (
"235 0 LINE",
"235 1062 LINE",
"205 1062 LINE",
"205 0 LINE"
);
}
);
width = 1200;
},
{
anchors = (
{
name = bottom;
position = "{657, 0}";
},
{
name = top;
position = "{684, 1062}";
}
);
layerId = "584F9D0D-8480-40C6-ABEA-8DD6EE64252D";
paths = (
{
closed = 1;
nodes = (
"1242 0 LINE",
"1242 375 LINE SMOOTH",
"1242 480 OFFCURVE",
"1242 577 OFFCURVE",
"1242 651 CURVE SMOOTH",
"1242 903 OFFCURVE",
"1146 1084 OFFCURVE",
"875 1084 CURVE SMOOTH",
"619 1084 OFFCURVE",
"425 903 OFFCURVE",
"425 612 CURVE",
"503 532 LINE",
"503 669 OFFCURVE",
"553 751 OFFCURVE",
"680 751 CURVE SMOOTH",
"825 751 OFFCURVE",
"839 641 OFFCURVE",
"839 532 CURVE SMOOTH",
"839 501 OFFCURVE",
"839 455 OFFCURVE",
"839 413 CURVE SMOOTH",
"839 0 LINE"
);
},
{
closed = 1;
nodes = (
"503 0 LINE",
"503 1062 LINE",
"100 1062 LINE",
"100 0 LINE"
);
}
);
width = 1332;
},
{
anchors = (
{
name = bottom;
position = "{611, 0}";
},
{
name = top;
position = "{635, 1062}";
}
);
layerId = "F6BDCC95-B00C-46EE-8A70-124DE74BF6E5";
paths = (
{
closed = 1;
nodes = (
"1083 0 LINE",
"1083 493 LINE SMOOTH",
"1083 553 OFFCURVE",
"1083 627 OFFCURVE",
"1083 686 CURVE SMOOTH",
"1083 931 OFFCURVE",
"921 1078 OFFCURVE",
"675 1078 CURVE SMOOTH",
"432 1078 OFFCURVE",
"226 878 OFFCURVE",
"226 628 CURVE",
"323 591 LINE",
"323 772 OFFCURVE",
"469 916 OFFCURVE",
"640 916 CURVE SMOOTH",
"834 916 OFFCURVE",
"913 807 OFFCURVE",
"913 641 CURVE SMOOTH",
"913 605 OFFCURVE",
"913 570 OFFCURVE",
"913 509 CURVE SMOOTH",
"913 0 LINE"
);
},
{
closed = 1;
nodes = (
"323 0 LINE",
"323 1062 LINE",
"153 1062 LINE",
"153 0 LINE"
);
}
);
width = 1226;
}
);
leftKerningGroup = n;
leftMetricsKey = h;
note = n;
rightKerningGroup = n;
rightMetricsKey = h;
unicode = 006E;
},
{
glyphname = eng;
lastChange = "2020-06-22 16:25:29 +0000";
layers = (
{
layerId = "A1A0948C-E637-4A65-8CCC-05505AD98C44";
paths = (
{
closed = 1;
nodes = (
"939 -457 OFFCURVE",
"975 -255 OFFCURVE",
"975 -96 CURVE SMOOTH",
"975 563 LINE SMOOTH",
"975 611 OFFCURVE",
"975 659 OFFCURVE",
"975 707 CURVE SMOOTH",
"975 947 OFFCURVE",
"864 1075 OFFCURVE",
"633 1075 CURVE SMOOTH",
"430 1075 OFFCURVE",
"206 927 OFFCURVE",
"206 701 CURVE",
"235 690 LINE",
"235 898 OFFCURVE",
"439 1047 OFFCURVE",
"636 1047 CURVE SMOOTH",
"859 1047 OFFCURVE",
"945 906 OFFCURVE",
"945 707 CURVE SMOOTH",
"945 660 OFFCURVE",
"945 613 OFFCURVE",
"945 566 CURVE SMOOTH",
"945 -96 LINE SMOOTH",
"945 -224 OFFCURVE",
"921 -429 OFFCURVE",
"689 -429 CURVE",
"689 -457 LINE"
);
},
{
closed = 1;
nodes = (
"235 0 LINE",
"235 1062 LINE",
"205 1062 LINE",
"205 0 LINE"
);
}
);
width = 1170;
},
{
layerId = "584F9D0D-8480-40C6-ABEA-8DD6EE64252D";
paths = (
{
closed = 1;
nodes = (
"1041 -456 OFFCURVE",
"1242 -363 OFFCURVE",
"1242 -19 CURVE SMOOTH",
"1242 375 LINE SMOOTH",
"1242 467 OFFCURVE",
"1242 559 OFFCURVE",
"1242 651 CURVE SMOOTH",
"1242 903 OFFCURVE",
"1146 1084 OFFCURVE",
"875 1084 CURVE SMOOTH",
"619 1084 OFFCURVE",
"425 903 OFFCURVE",
"425 612 CURVE",
"503 532 LINE",
"503 669 OFFCURVE",
"553 751 OFFCURVE",
"680 751 CURVE SMOOTH",
"825 751 OFFCURVE",
"839 641 OFFCURVE",
"839 532 CURVE SMOOTH",
"839 492 OFFCURVE",
"839 453 OFFCURVE",
"839 413 CURVE SMOOTH",
"839 -28 LINE SMOOTH",
"839 -146 OFFCURVE",
"720 -169 OFFCURVE",
"608 -169 CURVE",
"608 -456 LINE"
);
},
{
closed = 1;
nodes = (
"503 0 LINE",
"503 1062 LINE",
"100 1062 LINE",
"100 0 LINE"
);
}
);
width = 1332;
},
{
layerId = "F6BDCC95-B00C-46EE-8A70-124DE74BF6E5";
paths = (
{
closed = 1;
nodes = (
"965 -457 OFFCURVE",
"1063 -296 OFFCURVE",
"1063 -67 CURVE SMOOTH",
"1063 493 LINE SMOOTH",
"1063 557 OFFCURVE",
"1063 622 OFFCURVE",
"1063 686 CURVE SMOOTH",
"1063 931 OFFCURVE",
"921 1078 OFFCURVE",
"675 1078 CURVE SMOOTH",
"432 1078 OFFCURVE",
"226 878 OFFCURVE",
"226 628 CURVE",
"323 591 LINE",
"323 772 OFFCURVE",
"469 916 OFFCURVE",
"640 916 CURVE SMOOTH",
"834 916 OFFCURVE",
"893 807 OFFCURVE",
"893 641 CURVE SMOOTH",
"893 597 OFFCURVE",
"893 553 OFFCURVE",
"893 509 CURVE SMOOTH",
"893 -71 LINE SMOOTH",
"893 -195 OFFCURVE",
"833 -332 OFFCURVE",
"646 -332 CURVE",
"646 -457 LINE"
);
},
{
closed = 1;
nodes = (
"323 0 LINE",
"323 1062 LINE",
"153 1062 LINE",
"153 0 LINE"
);
}
);
width = 1206;
}
);
leftKerningGroup = n;
leftMetricsKey = n;
rightKerningGroup = n;
rightMetricsKey = n;
unicode = 014B;
},
{
glyphname = nhookleft;
lastChange = "2020-06-22 16:21:44 +0000";
layers = (
{
layerId = "A1A0948C-E637-4A65-8CCC-05505AD98C44";
paths = (
{
closed = 1;
nodes = (
"971 0 LINE",
"971 563 LINE SMOOTH",
"971 596 OFFCURVE",
"971 657 OFFCURVE",
"971 707 CURVE SMOOTH",
"971 947 OFFCURVE",
"860 1075 OFFCURVE",
"629 1075 CURVE SMOOTH",
"426 1075 OFFCURVE",
"202 927 OFFCURVE",
"202 701 CURVE",
"231 690 LINE",
"231 898 OFFCURVE",
"435 1047 OFFCURVE",
"632 1047 CURVE SMOOTH",
"855 1047 OFFCURVE",
"941 906 OFFCURVE",
"941 707 CURVE SMOOTH",
"941 668 OFFCURVE",
"941 639 OFFCURVE",
"941 566 CURVE SMOOTH",
"941 0 LINE"
);
},
{
closed = 1;
nodes = (
"196 -457 OFFCURVE",
"231 -255 OFFCURVE",
"231 -96 CURVE SMOOTH",
"231 1062 LINE",
"201 1062 LINE",
"201 -96 LINE SMOOTH",
"201 -224 OFFCURVE",
"178 -429 OFFCURVE",
"-54 -429 CURVE",
"-54 -457 LINE"
);
}
);
width = 1166;
},
{
layerId = "584F9D0D-8480-40C6-ABEA-8DD6EE64252D";
paths = (
{
closed = 1;
nodes = (
"1170 0 LINE",
"1170 375 LINE SMOOTH",
"1170 480 OFFCURVE",
"1170 577 OFFCURVE",
"1170 651 CURVE SMOOTH",
"1170 903 OFFCURVE",
"1074 1084 OFFCURVE",
"803 1084 CURVE SMOOTH",
"547 1084 OFFCURVE",
"353 903 OFFCURVE",
"353 612 CURVE",
"431 532 LINE",
"431 669 OFFCURVE",
"481 751 OFFCURVE",
"608 751 CURVE SMOOTH",
"753 751 OFFCURVE",
"767 641 OFFCURVE",
"767 532 CURVE SMOOTH",
"767 501 OFFCURVE",
"767 455 OFFCURVE",
"767 413 CURVE SMOOTH",
"767 0 LINE"
);
},
{
closed = 1;
nodes = (
"384 -465 OFFCURVE",
"431 -241 OFFCURVE",
"431 -15 CURVE SMOOTH",
"431 1062 LINE",
"28 1062 LINE",
"28 -15 LINE SMOOTH",
"28 -133 OFFCURVE",
"-63 -179 OFFCURVE",
"-150 -179 CURVE",
"-150 -465 LINE"
);
}
);
width = 1260;
},
{
layerId = "F6BDCC95-B00C-46EE-8A70-124DE74BF6E5";
paths = (
{
closed = 1;
nodes = (
"1023 0 LINE",
"1023 493 LINE SMOOTH",
"1023 553 OFFCURVE",
"1023 627 OFFCURVE",
"1023 686 CURVE SMOOTH",
"1023 931 OFFCURVE",
"881 1078 OFFCURVE",
"635 1078 CURVE SMOOTH",
"392 1078 OFFCURVE",
"186 878 OFFCURVE",
"186 628 CURVE",
"283 591 LINE",
"283 772 OFFCURVE",
"429 916 OFFCURVE",
"600 916 CURVE SMOOTH",
"794 916 OFFCURVE",
"853 807 OFFCURVE",
"853 641 CURVE SMOOTH",
"853 605 OFFCURVE",
"853 570 OFFCURVE",
"853 509 CURVE SMOOTH",
"853 0 LINE"
);
},
{
closed = 1;
nodes = (
"244 -460 OFFCURVE",
"284 -250 OFFCURVE",
"284 -66 CURVE SMOOTH",
"284 1062 LINE",
"114 1062 LINE",
"114 -66 LINE SMOOTH",
"114 -190 OFFCURVE",
"65 -335 OFFCURVE",
"-112 -335 CURVE",
"-112 -460 LINE"
);
}
);
width = 1166;
}
);
leftKerningGroup = j;
leftMetricsKey = j;
rightKerningGroup = n;
rightMetricsKey = n;
unicode = 0272;
},
{
glyphname = o;
lastChange = "2020-06-22 23:49:43 +0000";
layers = (
{
anchors = (
{
name = bottom;
position = "{650, 0}";
},
{
name = center;
position = "{652, 531}";
},
{
name = ogonek;
position = "{842, 23}";
},
{
name = top;
position = "{650, 1062}";
},
{
name = topright;
position = "{992, 929}";
}
);
layerId = "A1A0948C-E637-4A65-8CCC-05505AD98C44";
paths = (
{
closed = 1;
nodes = (
"946 -17 OFFCURVE",
"1157 222 OFFCURVE",
"1157 533 CURVE SMOOTH",
"1157 844 OFFCURVE",
"946 1075 OFFCURVE",
"650 1075 CURVE SMOOTH",
"354 1075 OFFCURVE",
"143 844 OFFCURVE",
"143 533 CURVE SMOOTH",
"143 222 OFFCURVE",
"354 -17 OFFCURVE",
"650 -17 CURVE SMOOTH"
);
},
{
closed = 1;
nodes = (
"373 11 OFFCURVE",
"174 243 OFFCURVE",
"174 533 CURVE SMOOTH",
"174 823 OFFCURVE",
"373 1047 OFFCURVE",
"650 1047 CURVE SMOOTH",
"927 1047 OFFCURVE",
"1126 823 OFFCURVE",
"1126 533 CURVE SMOOTH",
"1126 243 OFFCURVE",
"927 11 OFFCURVE",
"650 11 CURVE SMOOTH"
);
}
);
width = 1300;
},
{
anchors = (
{
name = bottom;
position = "{651, 0}";
},
{
name = center;
position = "{651, 531}";
},
{
name = ogonek;
position = "{920, 25}";
},
{
name = top;
position = "{651, 1062}";
},
{
name = topright;
position = "{921, 1023}";
}
);
layerId = "584F9D0D-8480-40C6-ABEA-8DD6EE64252D";
paths = (
{
closed = 1;
nodes = (
"1011 -25 OFFCURVE",
"1257 200 OFFCURVE",
"1257 530 CURVE SMOOTH",
"1257 860 OFFCURVE",
"1011 1084 OFFCURVE",
"651 1084 CURVE SMOOTH",
"291 1084 OFFCURVE",
"45 860 OFFCURVE",
"45 530 CURVE SMOOTH",
"45 200 OFFCURVE",
"291 -25 OFFCURVE",
"651 -25 CURVE SMOOTH"
);
},
{
closed = 1;
nodes = (
"528 280 OFFCURVE",
"454 378 OFFCURVE",
"454 530 CURVE SMOOTH",
"454 682 OFFCURVE",
"528 778 OFFCURVE",
"651 778 CURVE SMOOTH",
"774 778 OFFCURVE",
"848 682 OFFCURVE",
"848 530 CURVE SMOOTH",
"848 378 OFFCURVE",
"774 280 OFFCURVE",
"651 280 CURVE SMOOTH"
);
}
);
width = 1302;
},
{
anchors = (
{
name = bottom;
position = "{656, 0}";
},
{
name = center;
position = "{657, 531}";
},
{
name = ogonek;
position = "{863, 19}";
},
{
name = top;
position = "{657, 1062}";
},
{
name = topright;
position = "{971, 964}";
}
);
layerId = "F6BDCC95-B00C-46EE-8A70-124DE74BF6E5";
paths = (
{
closed = 1;
nodes = (
"976 -19 OFFCURVE",
"1200 214 OFFCURVE",
"1200 532 CURVE SMOOTH",
"1200 850 OFFCURVE",
"976 1077 OFFCURVE",
"656 1077 CURVE SMOOTH",
"336 1077 OFFCURVE",
"112 850 OFFCURVE",
"112 532 CURVE SMOOTH",
"112 214 OFFCURVE",
"336 -19 OFFCURVE",
"656 -19 CURVE SMOOTH"
);
},
{
closed = 1;
nodes = (
"437 137 OFFCURVE",
"283 294 OFFCURVE",
"283 532 CURVE SMOOTH",
"283 770 OFFCURVE",
"437 921 OFFCURVE",
"656 921 CURVE SMOOTH",
"875 921 OFFCURVE",
"1029 770 OFFCURVE",
"1029 532 CURVE SMOOTH",
"1029 294 OFFCURVE",
"875 137 OFFCURVE",
"656 137 CURVE SMOOTH"
);
}
);
width = 1312;
}
);
leftKerningGroup = o;
note = o;
rightKerningGroup = o;
unicode = 006F;
},
{
glyphname = ohorn;
lastChange = "2020-06-22 01:19:52 +0000";
layers = (
{
anchors = (
{
name = bottom;
position = "{650, 0}";
},
{
name = center;
position = "{652, 531}";
},
{
name = ogonek;
position = "{842, 23}";
},
{
name = top;
position = "{650, 1062}";
},
{
name = topright;
position = "{992, 929}";
}
);
layerId = "A1A0948C-E637-4A65-8CCC-05505AD98C44";
paths = (
{
closed = 1;
nodes = (
"992 901 LINE",
"1145 901 OFFCURVE",
"1204 1010 OFFCURVE",
"1204 1201 CURVE",
"1172 1201 LINE",
"1172 1024 OFFCURVE",
"1126 929 OFFCURVE",
"992 929 CURVE"
);
},
{
closed = 1;
nodes = (
"946 -17 OFFCURVE",
"1157 222 OFFCURVE",
"1157 533 CURVE SMOOTH",
"1157 844 OFFCURVE",
"946 1075 OFFCURVE",
"650 1075 CURVE SMOOTH",
"354 1075 OFFCURVE",
"143 844 OFFCURVE",
"143 533 CURVE SMOOTH",
"143 222 OFFCURVE",
"354 -17 OFFCURVE",
"650 -17 CURVE SMOOTH"
);
},
{
closed = 1;
nodes = (
"373 11 OFFCURVE",
"174 243 OFFCURVE",
"174 533 CURVE SMOOTH",
"174 823 OFFCURVE",
"373 1047 OFFCURVE",
"650 1047 CURVE SMOOTH",
"927 1047 OFFCURVE",
"1126 823 OFFCURVE",
"1126 533 CURVE SMOOTH",
"1126 243 OFFCURVE",
"927 11 OFFCURVE",
"650 11 CURVE SMOOTH"
);
}
);
width = 1300;
},
{
anchors = (
{
name = bottom;
position = "{644, 0}";
},
{
name = center;
position = "{644, 531}";
},
{
name = ogonek;
position = "{913, 25}";
},
{
name = top;
position = "{644, 1062}";
},
{
name = topright;
position = "{914, 1023}";
}
);
layerId = "584F9D0D-8480-40C6-ABEA-8DD6EE64252D";
paths = (
{
closed = 1;
nodes = (
"914 843 LINE",
"1151 843 OFFCURVE",
"1284 930 OFFCURVE",
"1284 1294 CURVE",
"1070 1294 LINE",
"1070 1066 OFFCURVE",
"1050 1023 OFFCURVE",
"914 1023 CURVE"
);
},
{
closed = 1;
nodes = (
"1004 -25 OFFCURVE",
"1250 200 OFFCURVE",
"1250 530 CURVE SMOOTH",
"1250 860 OFFCURVE",
"1004 1084 OFFCURVE",
"644 1084 CURVE SMOOTH",
"284 1084 OFFCURVE",
"38 860 OFFCURVE",
"38 530 CURVE SMOOTH",
"38 200 OFFCURVE",
"284 -25 OFFCURVE",
"644 -25 CURVE SMOOTH"
);
},
{
closed = 1;
nodes = (
"521 280 OFFCURVE",
"443 378 OFFCURVE",
"443 530 CURVE SMOOTH",
"443 682 OFFCURVE",
"521 778 OFFCURVE",
"644 778 CURVE SMOOTH",
"767 778 OFFCURVE",
"845 682 OFFCURVE",
"845 530 CURVE SMOOTH",
"845 378 OFFCURVE",
"767 280 OFFCURVE",
"644 280 CURVE SMOOTH"
);
}
);
width = 1313;
},
{
anchors = (
{
name = bottom;
position = "{656, 0}";
},
{
name = center;
position = "{657, 531}";
},
{
name = ogonek;
position = "{863, 19}";
},
{
name = top;
position = "{657, 1062}";
},
{
name = topright;
position = "{971, 964}";
}
);
layerId = "F6BDCC95-B00C-46EE-8A70-124DE74BF6E5";
paths = (
{
closed = 1;
nodes = (
"961 879 LINE",
"1146 879 OFFCURVE",
"1233 980 OFFCURVE",
"1233 1236 CURVE",
"1132 1236 LINE",
"1132 1040 OFFCURVE",
"1096 964 OFFCURVE",
"961 964 CURVE"
);
},
{
closed = 1;
nodes = (
"976 -19 OFFCURVE",
"1200 214 OFFCURVE",
"1200 532 CURVE SMOOTH",
"1200 850 OFFCURVE",
"976 1077 OFFCURVE",
"656 1077 CURVE SMOOTH",
"336 1077 OFFCURVE",
"112 850 OFFCURVE",
"112 532 CURVE SMOOTH",
"112 214 OFFCURVE",
"336 -19 OFFCURVE",
"656 -19 CURVE SMOOTH"
);
},
{
closed = 1;
nodes = (
"437 137 OFFCURVE",
"283 294 OFFCURVE",
"283 532 CURVE SMOOTH",
"283 770 OFFCURVE",
"437 921 OFFCURVE",
"656 921 CURVE SMOOTH",
"875 921 OFFCURVE",
"1029 770 OFFCURVE",
"1029 532 CURVE SMOOTH",
"1029 294 OFFCURVE",
"875 137 OFFCURVE",
"656 137 CURVE SMOOTH"
);
}
);
width = 1302;
}
);
leftKerningGroup = o;
rightKerningGroup = ohorn;
unicode = 01A1;
},
{
glyphname = oogonek;
lastChange = "2020-06-22 01:19:52 +0000";
layers = (
{
components = (
{
name = o;
}
);
layerId = "A1A0948C-E637-4A65-8CCC-05505AD98C44";
paths = (
{
closed = 1;
nodes = (
"819 -338 OFFCURVE",
"782 -342 OFFCURVE",
"754 -342 CURVE SMOOTH",
"686 -342 OFFCURVE",
"647 -307 OFFCURVE",
"647 -240 CURVE SMOOTH",
"647 -156 OFFCURVE",
"757 -52 OFFCURVE",
"842 23 CURVE",
"814 23 LINE",
"717 -50 OFFCURVE",
"611 -149 OFFCURVE",
"611 -242 CURVE SMOOTH",
"611 -334 OFFCURVE",
"672 -373 OFFCURVE",
"750 -373 CURVE SMOOTH",
"781 -373 OFFCURVE",
"818 -369 OFFCURVE",
"842 -364 CURVE",
"842 -333 LINE"
);
}
);
width = 1300;
},
{
components = (
{
name = o;
}
);
layerId = "584F9D0D-8480-40C6-ABEA-8DD6EE64252D";
paths = (
{
closed = 1;
nodes = (
"891 -248 OFFCURVE",
"865 -251 OFFCURVE",
"841 -251 CURVE SMOOTH",
"793 -251 OFFCURVE",
"748 -242 OFFCURVE",
"748 -197 CURVE SMOOTH",
"748 -136 OFFCURVE",
"863 -15 OFFCURVE",
"913 25 CURVE",
"725 25 LINE",
"666 -14 OFFCURVE",
"537 -139 OFFCURVE",
"537 -253 CURVE SMOOTH",
"537 -384 OFFCURVE",
"667 -437 OFFCURVE",
"819 -437 CURVE SMOOTH",
"853 -437 OFFCURVE",
"885 -435 OFFCURVE",
"913 -432 CURVE",
"913 -245 LINE"
);
}
);
width = 1288;
},
{
components = (
{
name = o;
}
);
layerId = "F6BDCC95-B00C-46EE-8A70-124DE74BF6E5";
paths = (
{
closed = 1;
nodes = (
"840 -320 OFFCURVE",
"807 -324 OFFCURVE",
"781 -324 CURVE SMOOTH",
"720 -324 OFFCURVE",
"679 -299 OFFCURVE",
"679 -240 CURVE SMOOTH",
"679 -165 OFFCURVE",
"791 -45 OFFCURVE",
"863 19 CURVE",
"765 19 LINE",
"682 -44 OFFCURVE",
"577 -161 OFFCURVE",
"577 -262 CURVE SMOOTH",
"577 -369 OFFCURVE",
"664 -413 OFFCURVE",
"770 -413 CURVE SMOOTH",
"802 -413 OFFCURVE",
"837 -410 OFFCURVE",
"863 -406 CURVE",
"863 -316 LINE"
);
}
);
width = 1312;
}
);
leftKerningGroup = o;
rightKerningGroup = o;
unicode = 01EB;
},
{
glyphname = oslash;
lastChange = "2020-06-22 23:49:44 +0000";
layers = (
{
anchors = (
{
name = top;
position = "{650, 1062}";
}
);
components = (
{
name = o;
}
);
layerId = "A1A0948C-E637-4A65-8CCC-05505AD98C44";
paths = (
{
closed = 1;
nodes = (
"938 1084 LINE",
"339 -8 LINE",
"366 -22 LINE",
"964 1070 LINE"
);
}
);
width = 1300;
},
{
anchors = (
{
name = top;
position = "{651, 1062}";
}
);
components = (
{
name = o;
}
);
layerId = "584F9D0D-8480-40C6-ABEA-8DD6EE64252D";
paths = (
{
closed = 1;
nodes = (
"1014 1129 LINE",
"157 31 LINE",
"286 -67 LINE",
"1144 1031 LINE"
);
}
);
width = 1302;
},
{
anchors = (
{
name = top;
position = "{646, 1062}";
}
);
components = (
{
name = o;
}
);
layerId = "F6BDCC95-B00C-46EE-8A70-124DE74BF6E5";
paths = (
{
closed = 1;
nodes = (
"947 1108 LINE",
"251 14 LINE",
"343 -48 LINE",
"1039 1046 LINE"
);
}
);
width = 1312;
}
);
leftKerningGroup = o;
leftMetricsKey = o;
rightKerningGroup = o;
rightMetricsKey = o;
unicode = 00F8;
},
{
glyphname = oe;
lastChange = "2020-06-22 23:49:44 +0000";
layers = (
{
anchors = (
{
name = bottom;
position = "{1125, 0}";
},
{
name = top;
position = "{1125, 1062}";
}
);
layerId = "A1A0948C-E637-4A65-8CCC-05505AD98C44";
paths = (
{
closed = 1;
nodes = (
"902 -17 OFFCURVE",
"1092 158 OFFCURVE",
"1143 401 CURVE",
"1139 401 LINE",
"1189 149 OFFCURVE",
"1385 -17 OFFCURVE",
"1631 -17 CURVE SMOOTH",
"1930 -17 OFFCURVE",
"2079 202 OFFCURVE",
"2090 332 CURVE",
"2059 332 LINE",
"2047 220 OFFCURVE",
"1915 11 OFFCURVE",
"1631 11 CURVE SMOOTH",
"1370 11 OFFCURVE",
"1166 216 OFFCURVE",
"1158 513 CURVE SMOOTH",
"1158 516 OFFCURVE",
"1158 520 OFFCURVE",
"1158 523 CURVE",
"1144 512 LINE",
"2106 512 LINE",
"2106 523 OFFCURVE",
"2106 533 OFFCURVE",
"2106 544 CURVE SMOOTH",
"2106 828 OFFCURVE",
"1921 1075 OFFCURVE",
"1632 1075 CURVE SMOOTH",
"1386 1075 OFFCURVE",
"1192 909 OFFCURVE",
"1140 659 CURVE",
"1144 659 LINE",
"1095 906 OFFCURVE",
"903 1075 OFFCURVE",
"650 1075 CURVE SMOOTH",
"354 1075 OFFCURVE",
"143 844 OFFCURVE",
"143 533 CURVE SMOOTH",
"143 222 OFFCURVE",
"354 -17 OFFCURVE",
"650 -17 CURVE SMOOTH"
);
},
{
closed = 1;
nodes = (
"373 11 OFFCURVE",
"174 243 OFFCURVE",
"174 533 CURVE SMOOTH",
"174 823 OFFCURVE",
"373 1047 OFFCURVE",
"650 1047 CURVE SMOOTH",
"927 1047 OFFCURVE",
"1126 823 OFFCURVE",
"1126 533 CURVE SMOOTH",
"1126 243 OFFCURVE",
"927 11 OFFCURVE",
"650 11 CURVE SMOOTH"
);
},
{
closed = 1;
nodes = (
"1162 820 OFFCURVE",
"1361 1047 OFFCURVE",
"1632 1047 CURVE SMOOTH",
"1903 1047 OFFCURVE",
"2075 806 OFFCURVE",
"2075 554 CURVE SMOOTH",
"2075 549 OFFCURVE",
"2075 545 OFFCURVE",
"2075 540 CURVE",
"1158 540 LINE"
);
}
);
width = 2249;
},
{
anchors = (
{
name = bottom;
position = "{1058, 0}";
},
{
name = top;
position = "{1058, 1062}";
}
);
layerId = "584F9D0D-8480-40C6-ABEA-8DD6EE64252D";
paths = (
{
closed = 1;
nodes = (
"856 -25 OFFCURVE",
"1025 49 OFFCURVE",
"1133 174 CURVE",
"976 174 LINE",
"1081 48 OFFCURVE",
"1249 -26 OFFCURVE",
"1462 -26 CURVE SMOOTH",
"1823 -26 OFFCURVE",
"2037 148 OFFCURVE",
"2057 336 CURVE",
"1659 336 LINE",
"1654 303 OFFCURVE",
"1602 262 OFFCURVE",
"1473 262 CURVE SMOOTH",
"1317 262 OFFCURVE",
"1257 345 OFFCURVE",
"1245 477 CURVE SMOOTH",
"1243 503 OFFCURVE",
"1243 530 OFFCURVE",
"1244 560 CURVE",
"1072 421 LINE",
"2067 421 LINE",
"2069 438 OFFCURVE",
"2071 466 OFFCURVE",
"2071 506 CURVE SMOOTH",
"2071 861 OFFCURVE",
"1838 1084 OFFCURVE",
"1462 1084 CURVE SMOOTH",
"1252 1084 OFFCURVE",
"1082 1010 OFFCURVE",
"976 886 CURVE",
"1132 885 LINE",
"1028 1010 OFFCURVE",
"857 1084 OFFCURVE",
"651 1084 CURVE SMOOTH",
"291 1084 OFFCURVE",
"45 860 OFFCURVE",
"45 530 CURVE SMOOTH",
"45 200 OFFCURVE",
"291 -25 OFFCURVE",
"651 -25 CURVE SMOOTH"
);
},
{
closed = 1;
nodes = (
"528 280 OFFCURVE",
"450 378 OFFCURVE",
"450 530 CURVE SMOOTH",
"450 682 OFFCURVE",
"528 778 OFFCURVE",
"651 778 CURVE SMOOTH",
"774 778 OFFCURVE",
"852 682 OFFCURVE",
"852 530 CURVE SMOOTH",
"852 378 OFFCURVE",
"774 280 OFFCURVE",
"651 280 CURVE SMOOTH"
);
},
{
closed = 1;
nodes = (
"1290 741 OFFCURVE",
"1351 800 OFFCURVE",
"1467 800 CURVE SMOOTH",
"1592 800 OFFCURVE",
"1644 731 OFFCURVE",
"1664 671 CURVE SMOOTH",
"1665 668 OFFCURVE",
"1666 664 OFFCURVE",
"1666 661 CURVE",
"1262 661 LINE"
);
}
);
width = 2116;
},
{
anchors = (
{
name = bottom;
position = "{1106, 0}";
},
{
name = top;
position = "{1106, 1062}";
}
);
layerId = "F6BDCC95-B00C-46EE-8A70-124DE74BF6E5";
paths = (
{
closed = 1;
nodes = (
"876 -19 OFFCURVE",
"1051 91 OFFCURVE",
"1138 262 CURVE",
"1089 263 LINE",
"1175 88 OFFCURVE",
"1351 -21 OFFCURVE",
"1573 -21 CURVE SMOOTH",
"1896 -21 OFFCURVE",
"2069 164 OFFCURVE",
"2083 334 CURVE",
"1913 334 LINE",
"1903 241 OFFCURVE",
"1813 135 OFFCURVE",
"1578 135 CURVE SMOOTH",
"1350 135 OFFCURVE",
"1216 256 OFFCURVE",
"1198 483 CURVE SMOOTH",
"1197 497 OFFCURVE",
"1196 511 OFFCURVE",
"1196 525 CURVE",
"1123 463 LINE",
"2095 463 LINE",
"2097 475 OFFCURVE",
"2099 519 OFFCURVE",
"2099 540 CURVE SMOOTH",
"2099 850 OFFCURVE",
"1896 1078 OFFCURVE",
"1574 1078 CURVE SMOOTH",
"1355 1078 OFFCURVE",
"1178 970 OFFCURVE",
"1090 796 CURVE",
"1140 797 LINE",
"1053 968 OFFCURVE",
"877 1077 OFFCURVE",
"656 1077 CURVE SMOOTH",
"336 1077 OFFCURVE",
"112 850 OFFCURVE",
"112 532 CURVE SMOOTH",
"112 214 OFFCURVE",
"336 -19 OFFCURVE",
"656 -19 CURVE SMOOTH"
);
},
{
closed = 1;
nodes = (
"437 137 OFFCURVE",
"283 294 OFFCURVE",
"283 532 CURVE SMOOTH",
"283 770 OFFCURVE",
"437 921 OFFCURVE",
"656 921 CURVE SMOOTH",
"875 921 OFFCURVE",
"1029 770 OFFCURVE",
"1029 532 CURVE SMOOTH",
"1029 294 OFFCURVE",
"875 137 OFFCURVE",
"656 137 CURVE SMOOTH"
);
},
{
closed = 1;
nodes = (
"1230 806 OFFCURVE",
"1366 924 OFFCURVE",
"1576 924 CURVE SMOOTH",
"1790 924 OFFCURVE",
"1915 789 OFFCURVE",
"1915 626 CURVE SMOOTH",
"1915 622 OFFCURVE",
"1915 620 OFFCURVE",
"1915 615 CURVE",
"1202 615 LINE"
);
}
);
width = 2211;
}
);
leftKerningGroup = o;
leftMetricsKey = o;
rightKerningGroup = o;
rightMetricsKey = e;
unicode = 0153;
},
